<svg xmlns="http://www.w3.org/2000/svg" width="27.355" height="27.762" viewBox="0 0 27.355 27.762">
  <g id="Beverages-icn" transform="translate(-3.497 -3.14)">
    <g id="Group_16596" data-name="Group 16596" transform="translate(3.497 3.14)">
      <g id="Group_16571" data-name="Group 16571" transform="translate(15.4 12.898)">
        <g id="Group_16570" data-name="Group 16570" transform="translate(0)">
          <path id="Path_552" data-name="Path 552" d="M65.972,47.773H54.923l.453.453V46.283l-.453.453H65.972l-.453-.453v1.943a.453.453,0,0,0,.906,0V46.283a.461.461,0,0,0-.453-.453H54.923a.461.461,0,0,0-.453.453v1.943a.461.461,0,0,0,.453.453H65.972A.453.453,0,0,0,65.972,47.773Z" transform="translate(-54.47 -45.83)" fill="#2c3d60"/>
        </g>
      </g>
      <g id="Group_16573" data-name="Group 16573" transform="translate(16.586 14.892)">
        <g id="Group_16572" data-name="Group 16572">
          <path id="Path_553" data-name="Path 553" d="M66.152,64.376h-6.07l.453.453Q60,59.608,59.457,54.385c-.051-.5-.1-1-.154-1.5l-.453.453h8.58l-.453-.453q-.557,5.221-1.118,10.444c-.054.5-.109,1-.16,1.5-.063.58.846.574.906,0q.557-5.221,1.118-10.444c.054-.5.109-1,.16-1.5a.456.456,0,0,0-.453-.453h-8.58a.456.456,0,0,0-.453.453l1.079,10.444c.051.5.1,1,.154,1.5a.463.463,0,0,0,.453.453h6.07A.453.453,0,0,0,66.152,64.376Z" transform="translate(-58.395 -52.43)" fill="#2c3d60"/>
        </g>
      </g>
      <g id="Group_16575" data-name="Group 16575" transform="translate(0 11.855)">
        <g id="Group_16574" data-name="Group 16574" transform="translate(0 0)">
          <path id="Path_554" data-name="Path 554" d="M13.28,57.377h-8.2l.453.453q-.19-2.529-.384-5.058-.3-4.038-.61-8.073c-.045-.622-.094-1.245-.139-1.867l-.453.453H14.284l-.453-.453q-.168,2.529-.338,5.058-.272,4.038-.541,8.073c-.042.622-.085,1.248-.124,1.87-.039.583.867.58.906,0q.168-2.529.338-5.058.272-4.038.541-8.073c.042-.622.085-1.248.124-1.87a.458.458,0,0,0-.453-.453H3.951a.456.456,0,0,0-.453.453q.19,2.529.384,5.058.3,4.038.61,8.073c.048.622.094,1.248.142,1.87a.463.463,0,0,0,.453.453h8.2A.455.455,0,0,0,13.28,57.377Z" transform="translate(-3.497 -42.38)" fill="#2c3d60"/>
        </g>
      </g>
      <g id="Group_16577" data-name="Group 16577" transform="translate(16.053 8.232)">
        <g id="Group_16576" data-name="Group 16576" transform="translate(0 0)">
          <path id="Path_555" data-name="Path 555" d="M57.533,35.507a4.268,4.268,0,0,1,2.852-3.955,4.522,4.522,0,0,1,4.882,1.26,4.168,4.168,0,0,1,1.009,2.7.453.453,0,0,0,.906,0A5.2,5.2,0,0,0,63.715,30.7a5.4,5.4,0,0,0-5.843,1.514,5.114,5.114,0,0,0-1.242,3.3.452.452,0,0,0,.9,0Z" transform="translate(-56.63 -30.389)" fill="#2c3d60"/>
        </g>
      </g>
      <g id="Group_16579" data-name="Group 16579" transform="translate(20.875 3.122)">
        <g id="Group_16578" data-name="Group 16578">
          <path id="Path_556" data-name="Path 556" d="M76.974,13.5q-1.772.725-3.547,1.453l-.5.208a.476.476,0,0,0-.332.438v3.438a.453.453,0,0,0,.906,0V15.6c-.112.145-.221.29-.332.438q1.772-.725,3.547-1.453l.5-.208a.471.471,0,0,0,.317-.559.461.461,0,0,0-.559-.317Z" transform="translate(-72.59 -13.474)" fill="#2c3d60"/>
        </g>
      </g>
      <g id="Group_16580" data-name="Group 16580" transform="translate(3.415 17.547)">
        <circle id="Ellipse_21" data-name="Ellipse 21" cx="1.115" cy="1.115" r="1.115" fill="#2c3d60"/>
      </g>
      <g id="Group_16581" data-name="Group 16581" transform="translate(6.536 21.318)">
        <circle id="Ellipse_22" data-name="Ellipse 22" cx="0.656" cy="0.656" r="0.656" fill="#2c3d60"/>
      </g>
      <g id="Group_16583" data-name="Group 16583" transform="translate(0.805 15.124)">
        <g id="Group_16582" data-name="Group 16582">
          <path id="Path_557" data-name="Path 557" d="M6.6,54.106h8.919a.453.453,0,0,0,0-.906H6.6a.453.453,0,0,0,0,.906Z" transform="translate(-6.163 -53.2)" fill="#2c3d60"/>
        </g>
      </g>
      <g id="Group_16585" data-name="Group 16585" transform="translate(19.782 14.898)">
        <g id="Group_16584" data-name="Group 16584">
          <path id="Path_558" data-name="Path 558" d="M70.1,53.219a4.345,4.345,0,0,1,1.118,1.254,3.671,3.671,0,0,1,.341,1.477,5.8,5.8,0,0,1-.912,3.133,11.513,11.513,0,0,0-1.583,3.187,3.04,3.04,0,0,0,.725,2.882c.408.417,1.048-.224.641-.64a2.578,2.578,0,0,1-.139-3.009c.517-1.085,1.278-2.027,1.728-3.145a5.847,5.847,0,0,0,.372-3.115,4.311,4.311,0,0,0-.5-1.432,5.476,5.476,0,0,0-1.148-1.23c-.42-.4-1.063.236-.637.637Z" transform="translate(-68.972 -52.453)" fill="#2c3d60"/>
        </g>
      </g>
      <g id="Group_16587" data-name="Group 16587" transform="translate(2.532 2.129)">
        <g id="Group_16586" data-name="Group 16586">
          <path id="Path_559" data-name="Path 559" d="M12.8,20.367V15.446a.583.583,0,0,0,0-.1c-.03-.142.175.057-.06.175.1-.051.218-.372.272-.465q.68-1.169,1.363-2.341.535-.92,1.07-1.837c-.13.076-.26.151-.393.224h10.8c-.13-.076-.26-.151-.393-.224q.73,1.2,1.459,2.4.508.834,1.012,1.668c.115.187.227.375.341.562.021.036.1.218.142.233-.06-.021-.03-.329-.06-.157a1.21,1.21,0,0,0,0,.181v1.357a.453.453,0,0,0,.906,0c0-.517.024-1.039,0-1.553a1.769,1.769,0,0,0-.366-.786q-1.006-1.65-2.009-3.3c-.205-.338-.4-.692-.622-1.021-.172-.26-.384-.257-.65-.257H15.5a1.468,1.468,0,0,0-.68.06c-.257.154-.423.607-.565.852L12.3,14.47a2.271,2.271,0,0,0-.408.831c-.036.36,0,.743,0,1.1v3.964a.452.452,0,0,0,.9,0Z" transform="translate(-11.877 -10.188)" fill="#2c3d60"/>
        </g>
      </g>
      <g id="Group_16589" data-name="Group 16589" transform="translate(5.194)">
        <g id="Group_16588" data-name="Group 16588">
          <path id="Path_560" data-name="Path 560" d="M34.953,10.134H23.811c.13.076.26.151.393.224q-.725-1.346-1.45-2.695c-.305-.568-.61-1.133-.915-1.7a2.6,2.6,0,0,0-.224-.414c-.1-.118.063.124.036.172.027-.048-.006-.205-.006-.26-.015-.622-.033-1.245-.048-1.867l-.453.453H32l-.453-.453V5.726a.453.453,0,0,0,.906,0V3.593A.461.461,0,0,0,32,3.14H21.143a.458.458,0,0,0-.453.453c.015.556.027,1.112.042,1.668a1.875,1.875,0,0,0,.076.7c.039.091.094.175.142.263q.938,1.745,1.879,3.493c.2.369.4.737.6,1.106a.453.453,0,0,0,.393.224H34.959a.455.455,0,0,0-.006-.909Z" transform="translate(-20.69 -3.14)" fill="#2c3d60"/>
        </g>
      </g>
      <g id="Group_16591" data-name="Group 16591" transform="translate(2.727 6.994)">
        <g id="Group_16590" data-name="Group 16590">
          <path id="Path_561" data-name="Path 561" d="M18.437,31.6V26.743a.461.461,0,0,0-.453-.453H12.96a.453.453,0,0,0,0,.906h5.024l-.453-.453V31.6a.453.453,0,0,0,.906,0Z" transform="translate(-12.523 -26.29)" fill="#2c3d60"/>
        </g>
      </g>
      <g id="Group_16593" data-name="Group 16593" transform="translate(10.341 15.89)">
        <g id="Group_16592" data-name="Group 16592">
          <path id="Path_562" data-name="Path 562" d="M38.049,56.621c.335.069.4.408.441.713a11.651,11.651,0,0,1,.069,1.417c.015,1.148-.372,2.6.474,3.553a1.959,1.959,0,0,0,2.87-.3,3.59,3.59,0,0,0,.2-1.909c-.015-.619-.057-1.245-.018-1.861a1.619,1.619,0,0,1,.637-1.369,3.091,3.091,0,0,1,1.8-.2c.583.042.58-.864,0-.906-1.079-.079-2.293-.021-2.937.991-.607.955-.411,2.275-.387,3.344.009.32.024.641.021.958a.708.708,0,0,1-.257.65c-.335.224-1.027.29-1.293-.057a2.623,2.623,0,0,1-.257-1.665c.03-.6.057-1.178.039-1.773-.03-.9-.042-2.23-1.157-2.465-.571-.118-.816.755-.245.876Z" transform="translate(-37.724 -55.734)" fill="#2c3d60"/>
        </g>
      </g>
      <g id="Group_16595" data-name="Group 16595" transform="translate(9.355 26.551)">
        <g id="Group_16594" data-name="Group 16594">
          <path id="Path_563" data-name="Path 563" d="M34.9,91.926h8.45a.453.453,0,0,0,0-.906H34.9a.453.453,0,0,0,0,.906Z" transform="translate(-34.463 -91.02)" fill="#2c3d60"/>
        </g>
      </g>
    </g>
  </g>
</svg>
