<svg xmlns="http://www.w3.org/2000/svg" width="36.215" height="36.189" viewBox="0 0 36.215 36.189">
  <g id="call-icn" transform="translate(-10.352 -10.277)">
    <g id="Group_16878" data-name="Group 16878" transform="translate(10.876 10.892)">
      <g id="Group_16877" data-name="Group 16877" transform="translate(0 0)">
        <path id="Path_7237" data-name="Path 7237" d="M35.156,28.076l-7.1-4.735a2.072,2.072,0,0,0-2.775.451l-2.068,2.659a.884.884,0,0,1-1.133.239l-.393-.217a23.773,23.773,0,0,1-6.2-4.866,23.87,23.87,0,0,1-4.867-6.2l-.216-.393a.885.885,0,0,1,.234-1.137L13.3,11.812a2.073,2.073,0,0,0,.451-2.775l-4.735-7.1a2.061,2.061,0,0,0-2.779-.625L3.269,3.1a4.188,4.188,0,0,0-1.91,2.478C.29,9.47,1.095,16.192,11,26.1c7.877,7.877,13.742,10,17.773,10a10.356,10.356,0,0,0,2.747-.359A4.184,4.184,0,0,0,34,33.823l1.785-2.967A2.062,2.062,0,0,0,35.156,28.076Zm-.382,2.18-1.781,2.969a3.021,3.021,0,0,1-1.783,1.382c-3.6.987-9.878.17-19.385-9.338S1.5,9.48,2.487,5.884A3.025,3.025,0,0,1,3.87,4.1L6.839,2.318a.894.894,0,0,1,1.206.271L10.617,6.45l2.159,3.238a.9.9,0,0,1-.2,1.2L9.922,12.959a2.046,2.046,0,0,0-.542,2.626l.211.383a24.8,24.8,0,0,0,5.067,6.465A24.822,24.822,0,0,0,21.122,27.5l.384.212a2.046,2.046,0,0,0,2.626-.542L26.2,24.511a.9.9,0,0,1,1.2-.2l7.1,4.735A.894.894,0,0,1,34.773,30.256Z" transform="translate(-1 -1.018)" fill="teal" stroke="teal" stroke-width="1"/>
      </g>
    </g>
  </g>
</svg>
