<svg xmlns="http://www.w3.org/2000/svg" xmlns:xlink="http://www.w3.org/1999/xlink" width="92" height="92" viewBox="0 0 92 92">
  <defs>
    <filter id="Path_593" x="0" y="0" width="92" height="92" filterUnits="userSpaceOnUse">
      <feOffset dx="3" dy="3" input="SourceAlpha"/>
      <feGaussianBlur stdDeviation="10" result="blur"/>
      <feFlood flood-color="#24415d" flood-opacity="0.161"/>
      <feComposite operator="in" in2="blur"/>
      <feComposite in="SourceGraphic"/>
    </filter>
  </defs>
  <g id="close-button-icn" transform="translate(27 27)">
    <g transform="matrix(1, 0, 0, 1, -27, -27)" filter="url(#Path_593)">
      <path id="Path_593-2" data-name="Path 593" d="M16,0A16,16,0,1,1,0,16,16,16,0,0,1,16,0Z" transform="translate(27 27)" fill="#fff"/>
    </g>
    <g id="Top_Bar" data-name="Top Bar" transform="translate(6 6)">
      <g id="Icon_L" data-name="Icon L">
        <path id="times" d="M6.18,5,9.763,1.428A.837.837,0,1,0,8.58.245L5,3.828,1.43.245A.837.837,0,0,0,.246,1.428L3.83,5,.246,8.578A.837.837,0,1,0,1.43,9.762L5,6.178,8.58,9.762A.837.837,0,1,0,9.763,8.578Z" transform="translate(4.995 4.997)" fill="#172b4d"/>
      </g>
    </g>
  </g>
</svg>
