<svg xmlns="http://www.w3.org/2000/svg" width="30" height="28" viewBox="0 0 30 28">
  <g id="Dairy-_-Bakery-icn" data-name="Dairy-&amp;-Bakery-icn" transform="translate(-0.375 -4.847)">
    <g id="Group_16706" data-name="Group 16706" transform="translate(0.375 4.847)">
      <g id="Group_16665" data-name="Group 16665" transform="translate(16.058 15.205)">
        <g id="Group_16664" data-name="Group 16664">
          <path id="Path_596" data-name="Path 596" d="M62.643,53.825q1.781,2.283,3.565,4.564c-.048-.111-.092-.224-.139-.335V64.1l.475-.474H53.562l.475.474v-6c-.079.136-.158.272-.234.411q4.123-2.018,8.242-4.039l1.178-.578c.548-.268.066-1.086-.478-.818Q58.622,55.1,54.5,57.122l-1.178.578a.473.473,0,0,0-.234.411v6a.482.482,0,0,0,.475.474H66.547a.482.482,0,0,0,.475-.474V58.846c0-.253.022-.515,0-.767a1.157,1.157,0,0,0-.332-.6q-.917-1.175-1.833-2.346l-1.539-1.971C62.937,52.675,62.269,53.348,62.643,53.825Z" transform="translate(-53.09 -52.992)" fill="#2c3d60"/>
        </g>
      </g>
      <g id="Group_16667" data-name="Group 16667" transform="translate(16.176 19.793)">
        <g id="Group_16666" data-name="Group 16666">
          <path id="Path_597" data-name="Path 597" d="M53.921,68.467H66.8a.474.474,0,0,0,0-.947H53.921a.474.474,0,0,0,0,.947Z" transform="translate(-53.462 -67.52)" fill="#2c3d60"/>
        </g>
      </g>
      <g id="Group_16669" data-name="Group 16669" transform="translate(23.411 19.92)">
        <g id="Group_16668" data-name="Group 16668">
          <path id="Path_598" data-name="Path 598" d="M78.43,68.642c.019.032.038.06.057.092a.25.25,0,0,1,.032.066s-.028-.085-.013-.028c.01.035.022.07.032.1,0,.019.009.035.013.054.016.069.013,0,0-.016.032.032,0,.18,0,.224s0-.047.006-.051-.013.063-.013.06a.53.53,0,0,1-.028.1c-.006.016-.041.111-.013.041s-.016.028-.029.051-.028.05-.047.076a.242.242,0,0,0-.025.035c-.028.047.063-.063.019-.028-.009.01-.136.126-.136.133s.079-.054.038-.028a.141.141,0,0,0-.035.025,1.055,1.055,0,0,1-.1.06l-.041.019c-.041.025.041-.019.044-.019-.013-.006-.089.032-.1.035a.723.723,0,0,1-.089.022c-.108.022.07,0-.009,0s-.136,0-.2,0,.051.006.051.006a.221.221,0,0,0-.044-.01c-.038-.009-.079-.019-.117-.031-.016-.006-.111-.041-.041-.013s-.035-.019-.051-.028-.051-.028-.076-.047a.237.237,0,0,0-.035-.025c-.047-.028.063.063.028.019-.009-.009-.127-.136-.133-.136s.054.079.028.038a.139.139,0,0,0-.025-.035,1.069,1.069,0,0,1-.06-.1l-.019-.041c-.032-.047.028.085.013.032l-.038-.114c-.01-.031-.01-.073-.022-.1,0,0,.009.1.006.05,0-.022,0-.041,0-.063,0-.05,0-.1,0-.148s0,.028,0,.028.013-.063.016-.076a.779.779,0,0,1,.047-.145c0,.006-.038.07-.01.028.016-.025.032-.057.048-.082a.475.475,0,0,0-.171-.647.484.484,0,0,0-.649.171,1.6,1.6,0,1,0,2.717-.038.476.476,0,1,0-.82.483Z" transform="translate(-76.312 -67.923)" fill="#2c3d60"/>
        </g>
      </g>
      <g id="Group_16671" data-name="Group 16671" transform="translate(18.588 19.908)">
        <g id="Group_16670" data-name="Group 16670">
          <path id="Path_599" data-name="Path 599" d="M63.264,68.489a1.031,1.031,0,0,1,.047.139c.006.025.06.177.019.057a.448.448,0,0,1,.006.145c0,.022,0,.041,0,.063-.006.054,0,.041.006-.035a1.757,1.757,0,0,0-.063.231c.028-.066.032-.079.013-.032-.01.019-.019.035-.028.054a1.044,1.044,0,0,1-.063.1c-.028.041-.022.031.019-.025-.013.016-.025.028-.038.044s-.057.054-.085.082c-.073.069.089-.057,0,0-.032.022-.066.044-.1.063-.016.01-.035.019-.054.028-.047.022-.035.019.032-.013-.019-.006-.092.032-.114.038s-.111.013-.117.025c.076-.009.085-.009.035-.006a.415.415,0,0,1-.063,0c-.041,0-.082,0-.127,0s-.041,0,.035.006a.406.406,0,0,1-.06-.013c-.038-.01-.079-.019-.117-.032a.414.414,0,0,1-.057-.022c.066.029.079.032.032.013l-.1-.057c-.019-.013-.054-.047-.073-.051q.086.066.028.019a.514.514,0,0,1-.044-.041.694.694,0,0,0-.076-.085c.044.057.051.066.019.025a.411.411,0,0,1-.032-.047c-.022-.035-.038-.069-.057-.1s-.019-.035.013.032c-.006-.019-.016-.038-.022-.057a.708.708,0,0,1-.032-.117c0-.019-.01-.041-.013-.06.009.076.009.085.006.035s0-.088,0-.133a.664.664,0,0,1,.006-.079q-.014.09,0,.009c.016-.05.025-.1.041-.148a.481.481,0,0,0-.332-.584.489.489,0,0,0-.586.332,1.6,1.6,0,0,0,2.913,1.3,1.6,1.6,0,0,0,.1-1.352.529.529,0,0,0-.218-.284.475.475,0,0,0-.7.54Z" transform="translate(-61.079 -67.883)" fill="#2c3d60"/>
        </g>
      </g>
      <g id="Group_16673" data-name="Group 16673" transform="translate(27.562 20.847)">
        <g id="Group_16672" data-name="Group 16672">
          <path id="Path_600" data-name="Path 600" d="M91.244,73.069a.45.45,0,0,1-.152.038c.06-.006.063-.006.006,0a.714.714,0,0,1-.082,0,.564.564,0,0,0-.123-.006c.076.009.086.013.035,0l-.06-.013a.854.854,0,0,1-.085-.025.413.413,0,0,1-.057-.022c.066.028.079.032.032.013l-.1-.057c-.016-.009-.032-.022-.047-.032-.041-.028-.032-.022.025.019l-.146-.145c.044.057.051.066.019.025a.412.412,0,0,1-.032-.047c-.022-.035-.038-.069-.057-.1s-.019-.035.013.032c-.006-.019-.016-.038-.022-.057a.861.861,0,0,1-.025-.085.335.335,0,0,1-.013-.06c-.01-.051-.006-.041,0,.035a1.2,1.2,0,0,1,0-.246c-.01.076-.013.085,0,.035,0-.019.01-.041.013-.06a.86.86,0,0,1,.025-.085.415.415,0,0,1,.022-.057c-.028.066-.032.079-.013.031l.057-.1c.009-.016.022-.032.032-.047.028-.041.022-.032-.019.025.006,0,.146-.148.146-.145-.057.044-.066.05-.025.019a.428.428,0,0,1,.047-.032c.035-.022.07-.038.1-.057s.035-.019-.032.013c.019-.006.038-.016.057-.022a.887.887,0,0,1,.085-.025.331.331,0,0,1,.06-.013c.051-.01.041-.006-.035,0a.556.556,0,0,0,.123-.006.714.714,0,0,1,.082,0c.057.006.054,0-.006,0a.429.429,0,0,1,.152.038.475.475,0,1,0,.253-.916,1.6,1.6,0,1,0,0,3.048.483.483,0,0,0,.332-.584.489.489,0,0,0-.586-.322Z" transform="translate(-89.421 -70.857)" fill="#2c3d60"/>
        </g>
      </g>
      <g id="Group_16675" data-name="Group 16675" transform="translate(16.05 22.384)">
        <g id="Group_16674" data-name="Group 16674">
          <path id="Path_601" data-name="Path 601" d="M53.667,76.756a1.274,1.274,0,0,1,.142-.051l.066-.019a.6.6,0,0,1,.152-.006c.022,0,.041,0,.063,0,.054.006.041,0-.035-.006a1.746,1.746,0,0,0,.231.063c-.066-.028-.079-.031-.032-.013l.054.028a1.037,1.037,0,0,1,.1.063c.041.029.032.022-.025-.019l.044.038c.028.025.054.057.082.085s.025.028-.019-.028c.013.016.022.032.035.047a1.033,1.033,0,0,1,.06.1.4.4,0,0,1,.025.054c-.029-.069-.032-.079-.013-.031s.025.076.035.114a.334.334,0,0,1,.013.06c.009.051.006.041,0-.035a1.2,1.2,0,0,1,0,.246c.01-.076.013-.085,0-.035,0,.019-.01.041-.013.06-.01.038-.022.076-.035.114s-.013.038.013-.032c-.01.019-.016.035-.025.054a1.062,1.062,0,0,1-.06.1.441.441,0,0,1-.035.047q.066-.085.019-.028c-.028.028-.054.057-.082.085l-.044.038c.057-.044.066-.051.025-.019s-.066.044-.1.063c-.016.01-.035.019-.054.029-.048.022-.035.019.032-.013-.009,0-.228.06-.231.063.076-.01.085-.01.035-.006a.423.423,0,0,1-.063,0,.449.449,0,0,1-.146-.006c.117.041-.032-.01-.057-.019a1.046,1.046,0,0,1-.139-.047.48.48,0,0,0-.586.332.49.49,0,0,0,.332.584,1.6,1.6,0,0,0,2.09-1.98,1.636,1.636,0,0,0-.722-.9,1.6,1.6,0,0,0-1.387-.1.53.53,0,0,0-.285.218.478.478,0,0,0-.047.366.485.485,0,0,0,.586.335Z" transform="translate(-53.063 -75.725)" fill="#2c3d60"/>
        </g>
      </g>
      <g id="Group_16677" data-name="Group 16677" transform="translate(19.791 24.546)">
        <g id="Group_16676" data-name="Group 16676">
          <path id="Path_602" data-name="Path 602" d="M65.83,84.168a.563.563,0,0,0,.006-.123c.016.016-.022.117,0,.006.006-.028.016-.06.022-.089s.032-.132.019-.054.016-.028.028-.051.028-.051.047-.076c.063-.092.013.006,0,0a.7.7,0,0,0,.079-.085c.01-.009.066-.051.066-.06l-.038.029a.331.331,0,0,0,.035-.025.822.822,0,0,1,.089-.054l.038-.019c.047-.022.035-.019-.032.013.028.01.136-.044.171-.054l.06-.013c-.076.009-.085.009-.035.006.032,0,.063,0,.095,0s.063,0,.1,0c.1.006-.111-.022.009,0a.947.947,0,0,1,.1.025.468.468,0,0,0,.085.028c-.066-.028-.079-.032-.032-.013a.188.188,0,0,1,.025.013,1.062,1.062,0,0,1,.1.06.1.1,0,0,0,.025.016c.041.029.032.022-.025-.019,0,0,.06.054.066.06.022.022.044.054.07.076l-.028-.038c.013.016.022.032.035.047s.066.148.085.155c-.028-.07-.032-.079-.013-.032l.019.057a.737.737,0,0,1,.022.089c0,.016.006.028.009.044.006.038,0,.019-.006-.051a.562.562,0,0,0,.006.123.475.475,0,0,0,.95,0,1.626,1.626,0,0,0-1.073-1.506,1.6,1.6,0,0,0-1.732.452,1.635,1.635,0,0,0-.4,1.055.475.475,0,0,0,.95,0Z" transform="translate(-64.88 -82.57)" fill="#2c3d60"/>
        </g>
      </g>
      <g id="Group_16679" data-name="Group 16679" transform="translate(25.222 24.095)">
        <g id="Group_16678" data-name="Group 16678">
          <path id="Path_603" data-name="Path 603" d="M83.1,83.13c-.019-.032-.038-.06-.057-.092a.216.216,0,0,1-.032-.066s.028.082.013.028c-.01-.035-.022-.069-.032-.1s-.009-.047-.016-.073c-.016-.063,0,.079,0,.013s.009-.152,0-.221c0,0-.019.1-.006.051,0-.016.006-.028.009-.044.01-.038.019-.079.032-.117,0-.013.013-.028.016-.041.013-.047-.016.044-.019.044a.617.617,0,0,0,.048-.092l.047-.076c.057-.089-.06.057.016-.019.019-.022.041-.044.06-.063l.032-.028c.041-.041.016.019-.028.019.016,0,.057-.041.073-.051.035-.022.07-.038.1-.057.073-.041-.086.028,0,0l.085-.028c.035-.01.07-.016.1-.022.051-.013-.051.006-.051.006a.23.23,0,0,0,.063-.006.646.646,0,0,1,.111,0c.019,0,.123.013.044,0s.035.009.057.016.066.019.1.032c.1.032-.057-.035.009,0,.025.016.054.028.079.041s.051.032.073.047c.073.047-.028-.016-.025-.019a.269.269,0,0,0,.044.038c.022.019.041.041.063.063l.038.044s-.054-.079-.028-.038c.035.057.07.12.1.177.025.041-.019-.041-.019-.044s.019.047.022.057a.707.707,0,0,1,.032.117c0,.016.006.032.009.044.016.06-.006-.1,0-.035,0,.044.006.085.006.13,0,.019,0,.038,0,.057,0,.079.009-.01,0-.016.013.009-.028.126-.035.142s-.013.035-.019.051c-.016.06.051-.095,0,0a1.259,1.259,0,0,1-.073.123.473.473,0,0,0,.171.647.484.484,0,0,0,.649-.171,1.6,1.6,0,1,0-2.691.006.473.473,0,1,0,.817-.477Z" transform="translate(-82.031 -81.141)" fill="#2c3d60"/>
        </g>
      </g>
      <g id="Group_16693" data-name="Group 16693" transform="translate(0 15.645)">
        <g id="Group_16681" data-name="Group 16681" transform="translate(0 1.279)">
          <g id="Group_16680" data-name="Group 16680">
            <path id="Path_604" data-name="Path 604" d="M4.042,69.5H10.78c.294,0,.6.019.89,0,.652-.041.887-.549.883-1.118q-.014-1.89-.028-3.777c0-.594-.009-1.187-.013-1.778,0-.133-.016-.275,0-.411.022-.227.212-.272.4-.366a1.165,1.165,0,0,0,.76-.78,1.088,1.088,0,0,0-.424-1.042,5.827,5.827,0,0,0-2.327-1.541,7.153,7.153,0,0,0-1.738-.227c-.693-.032-1.39-.038-2.083,0a6.418,6.418,0,0,0-3.242.951c-.529.335-1.339.673-1.463,1.352a1.105,1.105,0,0,0,.443,1.071c.19.155.431.281.465.54a8.438,8.438,0,0,1-.006,1.1q0,1.037-.009,2.072c-.006,1.048-.076,2.122-.016,3.171a.778.778,0,0,0,.643.771c.6.1.855-.815.253-.913.089.016.016.24.054.111a.582.582,0,0,0,0-.148c0-.189,0-.379,0-.572,0-.584.006-1.172.009-1.756.006-1.172.009-2.343.016-3.515a1.548,1.548,0,0,0-.424-1.276c-.111-.1-.507-.3-.5-.471s.355-.294.469-.366a6.765,6.765,0,0,1,2.166-1.042,13.362,13.362,0,0,1,3.724-.1,3.9,3.9,0,0,1,2.546,1.131c.073.069.526.414.516.5-.013.1-.488.246-.579.3-.877.5-.6,1.885-.6,2.726.009,1.263.019,2.53.028,3.793,0,.183,0,.363,0,.546,0,.057-.035.234.038.158s-.1-.035-.161-.035H4.039A.477.477,0,0,0,4.042,69.5Z" transform="translate(-2.375 -58.436)" fill="#2c3d60"/>
          </g>
        </g>
        <g id="Group_16682" data-name="Group 16682" transform="translate(6.075 7.83)">
          <ellipse id="Ellipse_23" data-name="Ellipse 23" cx="0.38" cy="0.379" rx="0.38" ry="0.379" fill="#2c3d60"/>
        </g>
        <g id="Group_16683" data-name="Group 16683" transform="translate(4.517 9.82)">
          <ellipse id="Ellipse_24" data-name="Ellipse 24" cx="0.38" cy="0.379" rx="0.38" ry="0.379" fill="#2c3d60"/>
        </g>
        <g id="Group_16684" data-name="Group 16684" transform="translate(3.437 4.186)">
          <ellipse id="Ellipse_25" data-name="Ellipse 25" cx="0.38" cy="0.379" rx="0.38" ry="0.379" fill="#2c3d60"/>
        </g>
        <g id="Group_16685" data-name="Group 16685" transform="translate(3.304 6.008)">
          <ellipse id="Ellipse_26" data-name="Ellipse 26" cx="0.256" cy="0.256" rx="0.256" ry="0.256" fill="#2c3d60"/>
        </g>
        <g id="Group_16686" data-name="Group 16686" transform="translate(3.13 10.199)">
          <ellipse id="Ellipse_27" data-name="Ellipse 27" cx="0.174" cy="0.174" rx="0.174" ry="0.174" fill="#2c3d60"/>
        </g>
        <g id="Group_16687" data-name="Group 16687" transform="translate(7.49 9.068)">
          <ellipse id="Ellipse_28" data-name="Ellipse 28" cx="0.174" cy="0.174" rx="0.174" ry="0.174" fill="#2c3d60"/>
        </g>
        <g id="Group_16688" data-name="Group 16688" transform="translate(7.234 4.562)">
          <ellipse id="Ellipse_29" data-name="Ellipse 29" cx="0.256" cy="0.256" rx="0.256" ry="0.256" fill="#2c3d60"/>
        </g>
        <g id="Group_16690" data-name="Group 16690" transform="translate(1.657)">
          <g id="Group_16689" data-name="Group 16689">
            <path id="Path_605" data-name="Path 605" d="M8.329,57.211a20.72,20.72,0,0,1,2.419-.919c.864-.278,1.741-.518,2.628-.711a8.877,8.877,0,0,1,1.381-.234,8.611,8.611,0,0,1,3.606.54,6.273,6.273,0,0,1,1.073.553c.187.12.348.136.2.268a4.315,4.315,0,0,1-.909.442l-2.441,1.184c-.551.265-.07,1.083.478.818L19.2,57.969c.307-.148.633-.281.931-.452a1,1,0,0,0-.009-1.753,8.39,8.39,0,0,0-4.677-1.377,13.808,13.808,0,0,0-4.028.711,23.963,23.963,0,0,0-3.568,1.295c-.554.262-.07,1.077.478.818Z" transform="translate(-7.606 -54.386)" fill="#2c3d60"/>
          </g>
        </g>
        <g id="Group_16692" data-name="Group 16692" transform="translate(9.042 2.583)">
          <g id="Group_16691" data-name="Group 16691">
            <path id="Path_606" data-name="Path 606" d="M34.7,63.024V69.8c.079-.136.158-.272.234-.411l-3.771,2.056c-.535.294-.057,1.112.478.818l3.771-2.056a.473.473,0,0,0,.234-.411V63.02a.474.474,0,0,0-.947,0Z" transform="translate(-30.931 -62.564)" fill="#2c3d60"/>
          </g>
        </g>
      </g>
      <g id="Group_16695" data-name="Group 16695" transform="translate(13.237 23.757)">
        <g id="Group_16694" data-name="Group 16694">
          <path id="Path_607" data-name="Path 607" d="M44.654,81.017h2.815a.474.474,0,1,0,0-.947H44.654a.474.474,0,1,0,0,.947Z" transform="translate(-44.178 -80.07)" fill="#2c3d60"/>
        </g>
      </g>
      <g id="Group_16697" data-name="Group 16697" transform="translate(8.415 4.983)">
        <g id="Group_16696" data-name="Group 16696">
          <path id="Path_608" data-name="Path 608" d="M29.9,31.763V24.288c-.079.136-.158.272-.234.411q2.18-1.592,4.36-3.187c-.193-.025-.383-.051-.576-.073l3.831,3.591c-.047-.111-.092-.224-.139-.335V35.474a.475.475,0,0,0,.95,0V25.137a1.123,1.123,0,0,0-.142-.78,11.958,11.958,0,0,0-.921-.865q-1.453-1.364-2.907-2.725a.48.48,0,0,0-.576-.073c-1.438,1.052-2.888,2.091-4.316,3.155a.7.7,0,0,0-.279.673v7.242a.475.475,0,0,0,.95,0Z" transform="translate(-28.95 -20.626)" fill="#2c3d60"/>
        </g>
      </g>
      <g id="Group_16699" data-name="Group 16699" transform="translate(12.769 0)">
        <g id="Group_16698" data-name="Group 16698">
          <path id="Path_609" data-name="Path 609" d="M50.674,23.111V12.105c0-.335.009-.673,0-1.007s-.218-.508-.44-.736Q48.79,8.893,47.349,7.425a.479.479,0,0,0-.576-.073L42.941,9.9l.716.411V7.936c-.079.136-.158.272-.234.411q1.914-1.3,3.831-2.609l-.716-.411V7.763a.475.475,0,0,0,.95,0V5.328a.48.48,0,0,0-.716-.411q-1.278.872-2.558,1.74c-.4.272-.8.537-1.194.812s-.313.663-.313,1.09V10.3a.48.48,0,0,0,.716.411l3.831-2.549c-.193-.025-.383-.051-.576-.073l3.185,3.243c-.048-.111-.092-.224-.139-.335V23.111a.475.475,0,0,0,.95,0Z" transform="translate(-42.701 -4.847)" fill="#2c3d60"/>
        </g>
      </g>
      <g id="Group_16701" data-name="Group 16701" transform="translate(16.609 5.685)">
        <g id="Group_16700" data-name="Group 16700">
          <path id="Path_610" data-name="Path 610" d="M55.636,26.55l2.786-2.533c.133-.12.266-.243.4-.363a.474.474,0,1,0-.671-.67l-2.786,2.533c-.133.12-.266.243-.4.363a.474.474,0,1,0,.671.67Z" transform="translate(-54.829 -22.849)" fill="#2c3d60"/>
        </g>
      </g>
      <g id="Group_16703" data-name="Group 16703" transform="translate(8.431 10.938)">
        <g id="Group_16702" data-name="Group 16702">
          <path id="Path_611" data-name="Path 611" d="M29.461,40.427h8.191a.474.474,0,0,0,0-.947H29.461a.474.474,0,0,0,0,.947Z" transform="translate(-29.003 -39.48)" fill="#2c3d60"/>
        </g>
      </g>
      <g id="Group_16705" data-name="Group 16705" transform="translate(8.431 13.085)">
        <g id="Group_16704" data-name="Group 16704">
          <path id="Path_612" data-name="Path 612" d="M29.461,47.227h8.191a.474.474,0,0,0,0-.947H29.461a.474.474,0,0,0,0,.947Z" transform="translate(-29.003 -46.28)" fill="#2c3d60"/>
        </g>
      </g>
    </g>
  </g>
</svg>
