<svg xmlns="http://www.w3.org/2000/svg" width="50" height="69" viewBox="0 0 50 69">
  <g id="Flower-Bouquets_-Bunches-icn-big" data-name="Flower-Bouquets,-Bunches-icn-big" transform="translate(-18.279 -5.992)">
    <g id="Group_16663" data-name="Group 16663" transform="translate(18.279 5.992)">
      <g id="Group_16634" data-name="Group 16634" transform="translate(3.733 21.159)">
        <g id="Group_16633" data-name="Group 16633">
          <path id="Path_581" data-name="Path 581" d="M50.458,60.986a28.686,28.686,0,0,0-9.582-19.394A33.9,33.9,0,0,0,27.539,34.7a24.584,24.584,0,0,0-3.2-.656A1.143,1.143,0,0,0,23.2,35.18,28.91,28.91,0,0,0,24.33,41.4a38.553,38.553,0,0,0,6.464,13.05,39.124,39.124,0,0,0,7.617,7.506c1.168.875,2.306-1.086,1.146-1.954A36.241,36.241,0,0,1,25.665,36.915c-.091-.566-.091-.558-.159-1.215-.015-.173-.03-.347-.038-.52L24.33,36.311c-.668-.083.19.038.357.068.546.1,1.085.219,1.616.347a34.015,34.015,0,0,1,5.273,1.758A27.634,27.634,0,0,1,44.344,49.09a27.567,27.567,0,0,1,3.831,11.9c.144,1.433,2.42,1.448,2.284-.008Z" transform="translate(-23.199 -34.042)" fill="teal"/>
        </g>
      </g>
      <g id="Group_16636" data-name="Group 16636" transform="translate(17.974 46.662)">
        <g id="Group_16635" data-name="Group 16635">
          <path id="Path_582" data-name="Path 582" d="M54.313,72.512H43.108l1.138,1.132V68.982l-1.138,1.132H54.313l-1.138-1.132v4.662a1.139,1.139,0,0,0,2.276,0V68.982a1.153,1.153,0,0,0-1.138-1.132H43.108a1.153,1.153,0,0,0-1.138,1.132v4.662a1.153,1.153,0,0,0,1.138,1.132H54.313A1.132,1.132,0,0,0,54.313,72.512Z" transform="translate(-41.97 -67.85)" fill="teal"/>
        </g>
      </g>
      <g id="Group_16638" data-name="Group 16638" transform="translate(23.523 21.718)">
        <g id="Group_16637" data-name="Group 16637">
          <path id="Path_583" data-name="Path 583" d="M51.458,47.559c.061-.083.2-.241-.068.091.076-.1.152-.2.235-.287.3-.362.607-.717.926-1.056a31.008,31.008,0,0,1,3.642-3.334,28.792,28.792,0,0,1,13.845-5.922L68.9,35.92a12.772,12.772,0,0,1-.114,1.313c-.038.287.015-.1-.015.121-.015.121-.038.249-.053.37-.046.3-.1.6-.159.89-.137.679-.288,1.35-.47,2.014a36.415,36.415,0,0,1-5.644,11.647,46.266,46.266,0,0,1-7.162,7.785c-1.1.966.516,2.557,1.608,1.6,6.949-6.088,12.715-14.416,14.081-23.7a16.7,16.7,0,0,0,.212-2.037,1.143,1.143,0,0,0-1.138-1.132A31.849,31.849,0,0,0,50.685,45c-.41.46-.812.928-1.176,1.426-.888,1.169,1.092,2.293,1.95,1.132Z" transform="translate(-49.285 -34.782)" fill="teal"/>
        </g>
      </g>
      <g id="Group_16640" data-name="Group 16640" transform="translate(13.449 51.37)">
        <g id="Group_16639" data-name="Group 16639" transform="translate(0 0)">
          <path id="Path_584" data-name="Path 584" d="M40.569,74.875q-1.8,5.329-3.588,10.651c-.463,1.365-1.419,3.161-.736,4.579.835,1.743,2.64,1.554,4.241,1.554H53.944c1.161,0,2.9.272,3.96-.324,2.018-1.132,1.153-3.115.539-4.73q-2.242-5.861-4.476-11.73c-.516-1.35-2.716-.762-2.193.6q1.821,4.764,3.634,9.52a28.6,28.6,0,0,1,1.472,3.855c.106.49-.091.513-.478.551-.523.045-1.077,0-1.608,0H42.2a20.555,20.555,0,0,1-3.475,0c-.592-.106-.463-.521-.334-.935.2-.619.417-1.23.622-1.848q1.878-5.567,3.748-11.142c.47-1.388-1.73-1.984-2.193-.6Z" transform="translate(-36.006 -74.091)" fill="teal"/>
        </g>
      </g>
      <g id="Group_16642" data-name="Group 16642" transform="translate(29.192 50.757)">
        <g id="Group_16641" data-name="Group 16641">
          <path id="Path_585" data-name="Path 585" d="M57.306,75.377a16.709,16.709,0,0,1,1.525.852c.25.158.5.332.743.505.137.1.266.2.394.294-.129-.1-.023-.015.046.038s.129.106.2.158a23.8,23.8,0,0,1,3.1,3.078,1.134,1.134,0,1,0,1.608-1.6,20.429,20.429,0,0,0-6.464-5.288,1.136,1.136,0,1,0-1.146,1.961Z" transform="translate(-56.758 -73.278)" fill="teal"/>
        </g>
      </g>
      <g id="Group_16644" data-name="Group 16644" transform="translate(10.866 50.707)">
        <g id="Group_16643" data-name="Group 16643">
          <path id="Path_586" data-name="Path 586" d="M34.527,80.286a17.8,17.8,0,0,1,1.919-1.856c.159-.136.311-.264.478-.392.083-.068.167-.136.258-.2l.114-.091h0c.387-.287.781-.573,1.183-.837A19.843,19.843,0,0,1,41.423,75.3a1.133,1.133,0,0,0,.41-1.546,1.172,1.172,0,0,0-1.555-.407,21.977,21.977,0,0,0-5.364,3.432,17.55,17.55,0,0,0-1.988,1.909,1.131,1.131,0,1,0,1.6,1.6Z" transform="translate(-32.601 -73.212)" fill="teal"/>
        </g>
      </g>
      <g id="Group_16646" data-name="Group 16646" transform="translate(31.088 2.065)">
        <g id="Group_16645" data-name="Group 16645">
          <path id="Path_587" data-name="Path 587" d="M69.326,16.552A10.837,10.837,0,0,1,76.45,18.9c-.076-.6-.152-1.184-.228-1.78q-2.139,1.844-4.286,3.689c-1.464,1.26-3,2.459-4.4,3.787a3.03,3.03,0,0,1-4.15.37A3.9,3.9,0,0,1,61.7,20.588a6.929,6.929,0,0,1,1.3-2.059L65.192,15.7q2.048-2.648,4.1-5.3l-2.079-.272a27.189,27.189,0,0,1,.266,14.7c-.349,1.411,1.844,2.014,2.193.6a30.847,30.847,0,0,0,.69-11.029,24.312,24.312,0,0,0-.963-4.873,1.158,1.158,0,0,0-2.079-.272c-1.282,1.667-2.572,3.327-3.854,4.994-.812,1.049-1.616,2.1-2.428,3.138A8.246,8.246,0,0,0,59.5,19.985c-1.259,4.021,2.526,8.637,6.8,7.83a6.975,6.975,0,0,0,3.247-1.969c.872-.754,1.745-1.5,2.617-2.256Q75,21.146,77.831,18.71a1.149,1.149,0,0,0-.228-1.78,12.693,12.693,0,0,0-8.277-2.655c-1.441.151-1.457,2.414,0,2.278Z" transform="translate(-59.256 -8.729)" fill="teal"/>
        </g>
      </g>
      <g id="Group_16648" data-name="Group 16648" transform="translate(23.891 17.734)">
        <g id="Group_16647" data-name="Group 16647">
          <path id="Path_588" data-name="Path 588" d="M58.965,30.036q-3.949,6.416-7.89,12.824c-.379.611-.759,1.23-1.13,1.841-.766,1.245,1.2,2.384,1.965,1.139q3.949-6.416,7.89-12.824c.379-.611.759-1.23,1.13-1.841.766-1.245-1.2-2.376-1.965-1.139Z" transform="translate(-49.77 -29.501)" fill="teal"/>
        </g>
      </g>
      <g id="Group_16650" data-name="Group 16650" transform="translate(0 2.821)">
        <g id="Group_16649" data-name="Group 16649">
          <path id="Path_589" data-name="Path 589" d="M26.162,15.222a10.47,10.47,0,0,0-7.556,2.052,1.141,1.141,0,0,0,0,1.6L22.9,22.984q1.366,1.3,2.724,2.61a15.217,15.217,0,0,0,1.942,1.758c3.406,2.263,8.072-.543,8.747-4.27a6.114,6.114,0,0,0-1.1-4.685c-.523-.747-1.039-1.5-1.555-2.248q-2.037-2.931-4.066-5.869a1.154,1.154,0,0,0-1.965,0c-2.564,4.534-2.853,10.463-1.624,15.4a1.138,1.138,0,0,0,2.193-.6,20.325,20.325,0,0,1-.008-9.829,21.724,21.724,0,0,1,.933-2.851c.083-.2.3-.679.478-.988H27.634c1.032,1.494,2.071,2.987,3.1,4.481.652.95,1.312,1.893,1.965,2.844a9.834,9.834,0,0,1,1.214,1.916,3.775,3.775,0,0,1-1.3,4.315,3.146,3.146,0,0,1-3.892.422,13.671,13.671,0,0,1-1.441-1.365c-.827-.792-1.661-1.584-2.488-2.376q-2.287-2.184-4.575-4.375v1.6c.083-.075.2-.1-.076.053.1-.053.2-.143.288-.2a6.954,6.954,0,0,1,1.168-.626,9.617,9.617,0,0,1,4.567-.611c1.464.113,1.457-2.15,0-2.263Z" transform="translate(-18.279 -9.732)" fill="teal"/>
        </g>
      </g>
      <g id="Group_16652" data-name="Group 16652" transform="translate(13.985 17.76)">
        <g id="Group_16651" data-name="Group 16651">
          <path id="Path_590" data-name="Path 590" d="M36.908,31.191l8.649,12.831c.41.611.827,1.222,1.237,1.833.812,1.207,2.784.075,1.965-1.139L40.109,31.885c-.41-.611-.827-1.222-1.237-1.833-.812-1.207-2.784-.075-1.965,1.139Z" transform="translate(-36.713 -29.536)" fill="teal"/>
        </g>
      </g>
      <g id="Group_16654" data-name="Group 16654" transform="translate(27.692 19.007)">
        <g id="Group_16653" data-name="Group 16653">
          <path id="Path_591" data-name="Path 591" d="M54.78,32.321v7.227a1.138,1.138,0,0,0,2.276,0V32.321a1.138,1.138,0,0,0-2.276,0Z" transform="translate(-54.78 -31.188)" fill="teal"/>
        </g>
      </g>
      <g id="Group_16656" data-name="Group 16656" transform="translate(30.024 21.734)">
        <g id="Group_16655" data-name="Group 16655">
          <path id="Path_592" data-name="Path 592" d="M62.592,34.831c-1.138.2-2.268.415-3.406.619l-.493.091a1.131,1.131,0,0,0-.8,1.4,1.175,1.175,0,0,0,1.4.792c1.138-.2,2.268-.415,3.406-.619l.493-.091a1.131,1.131,0,0,0,.8-1.4,1.176,1.176,0,0,0-1.4-.792Z" transform="translate(-57.853 -34.804)" fill="teal"/>
        </g>
      </g>
      <g id="Group_16658" data-name="Group 16658" transform="translate(18.278 0)">
        <g id="Group_16657" data-name="Group 16657">
          <path id="Path_593" data-name="Path 593" d="M49.661,11.1A5.338,5.338,0,0,1,52.68,8.6a9.865,9.865,0,0,1,1.267-.3,1.487,1.487,0,0,0,.3-.023,1.236,1.236,0,0,1,.167-.008L53.28,7.137c-.425,4.006-.8,8.026-1.282,12.032a2.936,2.936,0,0,1-2.5,2.685,4.271,4.271,0,0,1-4.112-1.546,4.524,4.524,0,0,1-.668-2.814c.008-1.124.015-2.256.023-3.379.015-2.323.038-4.647.053-6.978-.569.324-1.138.649-1.715.981a19.514,19.514,0,0,1,3.239,2.723,26.29,26.29,0,0,1,5.72,8.4,1.186,1.186,0,0,0,1.4.792,1.142,1.142,0,0,0,.8-1.4A27.484,27.484,0,0,0,44.229,6.157a1.149,1.149,0,0,0-1.715.981c-.015,2.225-.03,4.443-.053,6.668-.015,2.346-.463,5.273.789,7.385,2.117,3.561,8.216,4.224,10.363.309a7.877,7.877,0,0,0,.728-3.115c.137-1.252.266-2.5.4-3.757.266-2.5.531-4.986.8-7.483A1.148,1.148,0,0,0,54.4,6.013a7.921,7.921,0,0,0-6.714,3.953A1.138,1.138,0,0,0,49.661,11.1Z" transform="translate(-42.371 -5.992)" fill="teal"/>
        </g>
      </g>
      <g id="Group_16660" data-name="Group 16660" transform="translate(23.595 15.902)">
        <g id="Group_16659" data-name="Group 16659">
          <path id="Path_594" data-name="Path 594" d="M49.38,28.164q.1,7.219.2,14.438c.008.694.015,1.388.03,2.074a1.139,1.139,0,0,0,2.276,0q-.1-7.219-.2-14.438c-.008-.694-.015-1.388-.03-2.074a1.139,1.139,0,0,0-2.276,0Z" transform="translate(-49.38 -27.072)" fill="teal"/>
        </g>
      </g>
      <g id="Group_16662" data-name="Group 16662" transform="translate(18.843 18.521)">
        <g id="Group_16661" data-name="Group 16661">
          <path id="Path_595" data-name="Path 595" d="M44,31.363c-.25,1.592-.5,3.191-.759,4.783-.038.226-.068.453-.106.679a1.17,1.17,0,0,0,.8,1.4,1.158,1.158,0,0,0,1.4-.792c.25-1.592.5-3.191.759-4.783.038-.226.068-.453.106-.679a1.141,1.141,0,0,0-2.2-.6Z" transform="translate(-43.116 -30.545)" fill="teal"/>
        </g>
      </g>
    </g>
  </g>
</svg>
