<svg xmlns="http://www.w3.org/2000/svg" width="22" height="30" viewBox="0 0 22 30">
  <g id="Flower-Bouquets_-Bunches-icn" data-name="Flower-Bouquets,-Bunches-icn" transform="translate(-18.279 -5.992)">
    <g id="Group_16663" data-name="Group 16663" transform="translate(18.279 5.992)">
      <g id="Group_16634" data-name="Group 16634" transform="translate(1.643 9.2)">
        <g id="Group_16633" data-name="Group 16633">
          <path id="Path_581" data-name="Path 581" d="M35.193,45.757a12.419,12.419,0,0,0-4.216-8.432,14.981,14.981,0,0,0-5.868-2.994,10.932,10.932,0,0,0-1.409-.285.5.5,0,0,0-.5.492,12.436,12.436,0,0,0,.5,2.706,16.684,16.684,0,0,0,2.844,5.674,17.118,17.118,0,0,0,3.351,3.263c.514.38,1.015-.472.5-.849a15.727,15.727,0,0,1-6.112-10.039c-.04-.246-.04-.243-.07-.528-.007-.075-.013-.151-.017-.226l-.5.492c-.294-.036.083.016.157.03.24.043.477.1.711.151a15.092,15.092,0,0,1,2.32.764A12.126,12.126,0,0,1,32.5,40.585a11.887,11.887,0,0,1,1.686,5.175c.063.623,1.065.63,1,0Z" transform="translate(-23.199 -34.042)" fill="#2c3d60"/>
        </g>
      </g>
      <g id="Group_16636" data-name="Group 16636" transform="translate(7.908 20.288)">
        <g id="Group_16635" data-name="Group 16635">
          <path id="Path_582" data-name="Path 582" d="M47.4,69.877h-4.93l.5.492V68.342l-.5.492H47.4l-.5-.492v2.027a.5.5,0,0,0,1,0V68.342a.5.5,0,0,0-.5-.492h-4.93a.5.5,0,0,0-.5.492v2.027a.5.5,0,0,0,.5.492H47.4A.492.492,0,0,0,47.4,69.877Z" transform="translate(-41.97 -67.85)" fill="#2c3d60"/>
        </g>
      </g>
      <g id="Group_16638" data-name="Group 16638" transform="translate(10.35 9.442)">
        <g id="Group_16637" data-name="Group 16637">
          <path id="Path_583" data-name="Path 583" d="M50.241,40.337c.027-.036.087-.1-.03.039.033-.043.067-.085.1-.125.134-.157.267-.312.407-.459a13.586,13.586,0,0,1,1.6-1.45,12.747,12.747,0,0,1,6.092-2.575l-.5-.492a5.491,5.491,0,0,1-.05.571c-.017.125.007-.043-.007.052-.007.052-.017.108-.023.161-.02.131-.043.259-.07.387-.06.3-.127.587-.207.876a15.755,15.755,0,0,1-2.484,5.064,20.208,20.208,0,0,1-3.151,3.385c-.484.42.227,1.112.708.7,3.058-2.647,5.595-6.268,6.2-10.305a7.179,7.179,0,0,0,.093-.886.5.5,0,0,0-.5-.492A14.067,14.067,0,0,0,49.9,39.226c-.18.2-.357.4-.517.62-.391.508.481,1,.858.492Z" transform="translate(-49.285 -34.782)" fill="#2c3d60"/>
        </g>
      </g>
      <g id="Group_16640" data-name="Group 16640" transform="translate(5.918 22.335)">
        <g id="Group_16639" data-name="Group 16639" transform="translate(0 0)">
          <path id="Path_584" data-name="Path 584" d="M38.014,74.432q-.791,2.317-1.579,4.631c-.2.594-.624,1.374-.324,1.991.367.758,1.162.676,1.866.676H43.9a3.94,3.94,0,0,0,1.742-.141c.888-.492.507-1.355.237-2.056q-.986-2.548-1.969-5.1c-.227-.587-1.2-.331-.965.262q.8,2.071,1.6,4.139a12.345,12.345,0,0,1,.648,1.676c.047.213-.04.223-.21.239-.23.02-.474,0-.708,0H38.731a9.152,9.152,0,0,1-1.529,0c-.26-.046-.2-.226-.147-.407.087-.269.184-.535.274-.8q.826-2.42,1.649-4.844c.207-.6-.761-.863-.965-.262Z" transform="translate(-36.006 -74.091)" fill="#2c3d60"/>
        </g>
      </g>
      <g id="Group_16642" data-name="Group 16642" transform="translate(12.845 22.068)">
        <g id="Group_16641" data-name="Group 16641">
          <path id="Path_585" data-name="Path 585" d="M57,74.19a7.38,7.38,0,0,1,.671.371c.11.069.22.144.327.22.06.043.117.085.174.128-.057-.043-.01-.007.02.016l.087.069a10.412,10.412,0,0,1,1.362,1.338.51.51,0,0,0,.708,0,.5.5,0,0,0,0-.7,8.967,8.967,0,0,0-2.844-2.3.514.514,0,0,0-.684.177.5.5,0,0,0,.18.676Z" transform="translate(-56.758 -73.278)" fill="#2c3d60"/>
        </g>
      </g>
      <g id="Group_16644" data-name="Group 16644" transform="translate(4.781 22.047)">
        <g id="Group_16643" data-name="Group 16643">
          <path id="Path_586" data-name="Path 586" d="M33.449,76.288a7.793,7.793,0,0,1,.845-.807c.07-.059.137-.115.21-.171.037-.03.073-.059.113-.089l.05-.039h0c.17-.125.344-.249.521-.364a8.763,8.763,0,0,1,1.3-.7.49.49,0,0,0,.18-.672.519.519,0,0,0-.684-.177,9.685,9.685,0,0,0-2.36,1.492,7.683,7.683,0,0,0-.875.83.5.5,0,0,0,0,.7.506.506,0,0,0,.7,0Z" transform="translate(-32.601 -73.212)" fill="#2c3d60"/>
        </g>
      </g>
      <g id="Group_16646" data-name="Group 16646" transform="translate(13.679 0.898)">
        <g id="Group_16645" data-name="Group 16645">
          <path id="Path_587" data-name="Path 587" d="M63.687,12.131a4.806,4.806,0,0,1,3.134,1.02c-.033-.259-.067-.515-.1-.774q-.941.8-1.886,1.6c-.644.548-1.322,1.069-1.936,1.646a1.344,1.344,0,0,1-1.826.161,1.686,1.686,0,0,1-.741-1.9,3.008,3.008,0,0,1,.574-.9l.961-1.23q.9-1.151,1.8-2.306l-.915-.118a11.687,11.687,0,0,1,.117,6.392c-.154.613.811.876.965.262a13.257,13.257,0,0,0,.3-4.8,10.461,10.461,0,0,0-.424-2.119.512.512,0,0,0-.915-.118c-.564.725-1.132,1.446-1.7,2.171-.357.456-.711.912-1.068,1.364a3.576,3.576,0,0,0-.674,1.128,2.733,2.733,0,0,0,2.991,3.4,3.076,3.076,0,0,0,1.429-.856c.384-.328.768-.653,1.152-.981q1.247-1.063,2.494-2.122a.5.5,0,0,0-.1-.774,5.63,5.63,0,0,0-3.642-1.154c-.634.066-.641,1.05,0,.99Z" transform="translate(-59.256 -8.729)" fill="#2c3d60"/>
        </g>
      </g>
      <g id="Group_16648" data-name="Group 16648" transform="translate(10.512 7.71)">
        <g id="Group_16647" data-name="Group 16647">
          <path id="Path_588" data-name="Path 588" d="M53.816,29.733q-1.737,2.789-3.472,5.576c-.167.266-.334.535-.5.8-.337.541.527,1.036.865.5q1.737-2.789,3.472-5.576c.167-.266.334-.535.5-.8.337-.541-.527-1.033-.865-.5Z" transform="translate(-49.77 -29.501)" fill="#2c3d60"/>
        </g>
      </g>
      <g id="Group_16650" data-name="Group 16650" transform="translate(0 1.226)">
        <g id="Group_16649" data-name="Group 16649">
          <path id="Path_589" data-name="Path 589" d="M21.747,12.119a4.647,4.647,0,0,0-3.325.892.492.492,0,0,0,0,.7l1.889,1.787q.6.566,1.2,1.135a6.668,6.668,0,0,0,.855.764c1.5.984,3.552-.236,3.849-1.856A2.634,2.634,0,0,0,25.73,13.5c-.23-.325-.457-.653-.684-.977q-.9-1.274-1.789-2.552a.511.511,0,0,0-.865,0,9.324,9.324,0,0,0-.714,6.7.5.5,0,0,0,.965-.262,8.735,8.735,0,0,1,0-4.274,9.366,9.366,0,0,1,.411-1.24c.037-.089.134-.3.21-.43h-.865c.454.649.911,1.3,1.365,1.948.287.413.577.823.865,1.236a4.269,4.269,0,0,1,.534.833,1.63,1.63,0,0,1-.574,1.876,1.4,1.4,0,0,1-1.712.184,5.986,5.986,0,0,1-.634-.594c-.364-.344-.731-.689-1.095-1.033q-1.006-.949-2.013-1.9v.7c.037-.033.087-.043-.033.023.043-.023.087-.062.127-.089a3.072,3.072,0,0,1,.514-.272,4.278,4.278,0,0,1,2.01-.266c.644.049.641-.935,0-.984Z" transform="translate(-18.279 -9.732)" fill="#2c3d60"/>
        </g>
      </g>
      <g id="Group_16652" data-name="Group 16652" transform="translate(6.153 7.722)">
        <g id="Group_16651" data-name="Group 16651">
          <path id="Path_590" data-name="Path 590" d="M36.8,30.256,40.6,35.835c.18.266.364.531.544.8.357.525,1.225.033.865-.5l-3.805-5.579c-.18-.266-.364-.531-.544-.8-.357-.525-1.225-.033-.865.5Z" transform="translate(-36.713 -29.536)" fill="#2c3d60"/>
        </g>
      </g>
      <g id="Group_16654" data-name="Group 16654" transform="translate(12.184 8.264)">
        <g id="Group_16653" data-name="Group 16653">
          <path id="Path_591" data-name="Path 591" d="M54.78,31.681v3.142a.5.5,0,0,0,1,0V31.681a.5.5,0,0,0-1,0Z" transform="translate(-54.78 -31.188)" fill="#2c3d60"/>
        </g>
      </g>
      <g id="Group_16656" data-name="Group 16656" transform="translate(13.21 9.45)">
        <g id="Group_16655" data-name="Group 16655">
          <path id="Path_592" data-name="Path 592" d="M59.938,34.816c-.5.089-1,.18-1.5.269l-.217.039a.5.5,0,0,0-.3.226.49.49,0,0,0-.05.38.518.518,0,0,0,.618.344c.5-.089,1-.18,1.5-.269l.217-.039a.5.5,0,0,0,.3-.226.49.49,0,0,0,.05-.38.518.518,0,0,0-.618-.344Z" transform="translate(-57.853 -34.804)" fill="#2c3d60"/>
        </g>
      </g>
      <g id="Group_16658" data-name="Group 16658" transform="translate(8.042 0)">
        <g id="Group_16657" data-name="Group 16657">
          <path id="Path_593" data-name="Path 593" d="M45.579,8.212a2.342,2.342,0,0,1,1.329-1.086A4.384,4.384,0,0,1,47.465,7a.662.662,0,0,0,.134-.01.55.55,0,0,1,.073,0l-.5-.492c-.187,1.742-.354,3.49-.564,5.231a1.283,1.283,0,0,1-1.1,1.168,1.891,1.891,0,0,1-1.809-.672,1.949,1.949,0,0,1-.294-1.223c0-.489.007-.981.01-1.469.007-1.01.017-2.02.023-3.034l-.754.426A8.563,8.563,0,0,1,44.11,8.1a11.426,11.426,0,0,1,2.517,3.65.523.523,0,0,0,.618.344.5.5,0,0,0,.351-.607,11.977,11.977,0,0,0-4.406-5.425.506.506,0,0,0-.754.426c-.007.968-.013,1.932-.023,2.9-.007,1.02-.2,2.293.347,3.211.931,1.548,3.615,1.837,4.56.134a3.391,3.391,0,0,0,.32-1.355c.06-.544.117-1.089.177-1.633.117-1.086.234-2.168.35-3.254a.5.5,0,0,0-.5-.492A3.492,3.492,0,0,0,44.711,7.72a.5.5,0,0,0,.868.492Z" transform="translate(-42.371 -5.992)" fill="#2c3d60"/>
        </g>
      </g>
      <g id="Group_16660" data-name="Group 16660" transform="translate(10.382 6.914)">
        <g id="Group_16659" data-name="Group 16659">
          <path id="Path_594" data-name="Path 594" d="M49.38,27.547q.045,3.139.087,6.277c0,.3.007.6.013.9a.5.5,0,0,0,1,0q-.045-3.139-.087-6.277c0-.3-.007-.6-.013-.9a.5.5,0,0,0-1,0Z" transform="translate(-49.38 -27.073)" fill="#2c3d60"/>
        </g>
      </g>
      <g id="Group_16662" data-name="Group 16662" transform="translate(8.291 8.053)">
        <g id="Group_16661" data-name="Group 16661">
          <path id="Path_595" data-name="Path 595" d="M43.5,30.9c-.11.692-.22,1.387-.334,2.079-.017.1-.03.2-.047.3a.5.5,0,0,0,.968.262c.11-.692.22-1.387.334-2.079.017-.1.03-.2.047-.3a.508.508,0,0,0-.351-.607.513.513,0,0,0-.618.344Z" transform="translate(-43.116 -30.545)" fill="#2c3d60"/>
        </g>
      </g>
    </g>
  </g>
</svg>
