<svg xmlns="http://www.w3.org/2000/svg" width="42" height="32" viewBox="0 0 42 32">
  <g id="Fruits-_-Vegetables-icn" data-name="Fruits-&amp;-Vegetables-icn" transform="translate(-4.625 -16.338)">
    <g id="Group_16505" data-name="Group 16505" transform="translate(4.625 16.338)">
      <g id="Group_16470" data-name="Group 16470" transform="translate(33.567 11.252)">
        <g id="Group_16469" data-name="Group 16469">
          <path id="Path_508" data-name="Path 508" d="M79.926,46.575c0-.092,0-.185,0-.281,0-.022.027-.281.009-.154a2.705,2.705,0,0,1,.1-.422c.023-.075.045-.149.073-.224.014-.031.086-.185.018-.053a2.982,2.982,0,0,1,.182-.334c.036-.057.077-.119.118-.176a1.018,1.018,0,0,1,.064-.083c-.054.066-.059.07-.009.018a2.688,2.688,0,0,1,.222-.228c.082-.079.173-.154.259-.224.023-.018.209-.154.068-.053.05-.035.1-.075.15-.11a12.714,12.714,0,0,1,1.911-1.085.651.651,0,0,0,.245-.9.712.712,0,0,0-.931-.237,12.507,12.507,0,0,0-2.084,1.208,4.339,4.339,0,0,0-1.23,1.274,3.964,3.964,0,0,0-.531,2.061.684.684,0,0,0,1.367,0Z" transform="translate(-78.56 -41.948)" fill="#2c3d60"/>
        </g>
      </g>
      <g id="Group_16472" data-name="Group 16472" transform="translate(31.483 10.552)">
        <g id="Group_16471" data-name="Group 16471">
          <path id="Path_509" data-name="Path 509" d="M74.655,41.688c-.191-.026-.232-.031-.15-.018l.073.013c.086.013.173.031.263.048a6.251,6.251,0,0,1,.795.22l.222.083c.073.026-.182-.079-.086-.035l.064.026.127.057a3.187,3.187,0,0,1,.431.246l.045.031c.086.057-.145-.114-.064-.048l.086.07a1.6,1.6,0,0,1,.177.171.233.233,0,0,0,.045.048c.054.062-.073-.079-.064-.083s.068.092.077.105l.054.092a.232.232,0,0,1,.023.048c.059.105-.064-.163-.027-.066s.05.171.073.259c-.059-.246-.009-.088-.009-.013v.145c0,.026-.009.053-.009.075,0-.189.023-.141.009-.07-.014.053-.023.11-.036.163s-.036.114-.054.167a.72.72,0,0,1-.036.088c.073-.207.023-.057,0-.009l.409-.3-.054.013c-.023,0-.041,0-.064.009-.05.013.236-.026.136-.018-.018,0-.032,0-.05,0a1.937,1.937,0,0,1-.227,0A.715.715,0,0,0,76.7,43.2c.027-.009.227.035.1.013a.545.545,0,0,1-.082-.018,1.571,1.571,0,0,1-.154-.044l-.073-.026c-.136-.048.173.079.054.022a3.138,3.138,0,0,1-.336-.193c.232.149.018.009-.041-.044a2.166,2.166,0,0,1-.173-.18c-.009-.013-.023-.026-.032-.04-.073-.083.1.145.041.053-.023-.035-.05-.066-.073-.1-.059-.083-.109-.171-.159-.259a1.637,1.637,0,0,1-.077-.154c-.014-.026-.023-.048-.036-.075-.054-.114.064.154.014.035s-.1-.25-.136-.378a6.6,6.6,0,0,1-.222-.975.656.656,0,0,0-.313-.4.709.709,0,0,0-.527-.066.679.679,0,0,0-.477.813,4.216,4.216,0,0,0,1.5,2.887,2.4,2.4,0,0,0,1.589.439.833.833,0,0,0,.817-.475,2.307,2.307,0,0,0,.186-1.573,2.847,2.847,0,0,0-1.848-1.709,6.368,6.368,0,0,0-1.594-.4.681.681,0,0,0-.481.193.656.656,0,0,0-.2.466.648.648,0,0,0,.2.466A.755.755,0,0,0,74.655,41.688Z" transform="translate(-73.969 -40.353)" fill="#2c3d60"/>
        </g>
      </g>
      <g id="Group_16474" data-name="Group 16474" transform="translate(25.146 14.721)">
        <g id="Group_16473" data-name="Group 16473">
          <path id="Path_510" data-name="Path 510" d="M68.133,62.953c-.014.079-.032.154-.045.233a1.618,1.618,0,0,1,.35-.083,1.585,1.585,0,0,1,.354.009,4.357,4.357,0,0,1,.867.321,3.532,3.532,0,0,0,2.048.048A5.156,5.156,0,0,0,74.6,61.41a10.574,10.574,0,0,0,2.252-6.687c-.109-1.621-.663-3.572-2.265-4.389a4.827,4.827,0,0,0-3.623-.1,9.121,9.121,0,0,0-2.2,1.011h.686c-2.57-1.23-6.56-2.562-8.5.343a7.147,7.147,0,0,0-.863,4.7c.014.119.068.488.014.1.045.316.091.628.145.94a8.189,8.189,0,0,0,.835,2.821c.44.734,1.616.07,1.176-.663a6.809,6.809,0,0,1-.645-2.232c-.054-.286-.1-.571-.145-.857-.014-.07-.054-.343,0-.009-.073-.47,0,0,0-.031a10.09,10.09,0,0,1-.064-1.384,6.157,6.157,0,0,1,.109-1.072,4.927,4.927,0,0,1,.141-.58c.032-.1.064-.2.1-.3a2.6,2.6,0,0,1,.1-.255,2.512,2.512,0,0,1,1.743-1.511c1.693-.426,3.673.417,5.18,1.142a.7.7,0,0,0,.686,0c1.162-.756,2.856-1.472,4.222-1,1.385.475,1.784,2.289,1.83,3.555a9.521,9.521,0,0,1-2.279,6.068A3.588,3.588,0,0,1,71.7,62.127a2.475,2.475,0,0,1-1.939-.075,2.961,2.961,0,0,0-1.857-.176c-.522.132-1.2.47-1.13,1.09.1.822,1.466.83,1.362-.013Z" transform="translate(-60.011 -49.843)" fill="#2c3d60"/>
        </g>
      </g>
      <g id="Group_16476" data-name="Group 16476" transform="translate(15.949 20.467)">
        <g id="Group_16475" data-name="Group 16475" transform="translate(0)">
          <path id="Path_511" data-name="Path 511" d="M41.169,67.832c.3-.545.6-1.085.908-1.63a8.351,8.351,0,0,1,.953-1.652c.726-.769,1.834.136,2.52.523q4.358,2.445,8.721,4.895l3.305,1.854c.182.1.5.224.595.417.241.514-.531.94-.99.883a2.2,2.2,0,0,1-.281-.07c-2.706-.716-5.4-1.485-8.095-2.228l-5.362-1.476c-.658-.171-2.815-.422-2.275-1.516.372-.76-.8-1.432-1.176-.663A2.069,2.069,0,0,0,41.3,70.143c.268.083.54.149.808.224q2.234.613,4.467,1.23,4.869,1.338,9.738,2.68a2.974,2.974,0,0,0,1.594.105c1.43-.373,2.3-2.2,1.049-3.26a15.022,15.022,0,0,0-2.374-1.371q-4.849-2.722-9.693-5.444a10.236,10.236,0,0,0-2.6-1.331c-2.261-.475-3.133,2.109-3.968,3.607-.109.2-.218.4-.331.593A.674.674,0,0,0,41.169,67.832Z" transform="translate(-39.754 -62.92)" fill="#2c3d60"/>
        </g>
      </g>
      <g id="Group_16478" data-name="Group 16478" transform="translate(19.915 21.4)">
        <g id="Group_16477" data-name="Group 16477">
          <path id="Path_512" data-name="Path 512" d="M49.752,68.535c.422-.734.844-1.463,1.267-2.2.059-.105.123-.211.182-.312a.654.654,0,0,0-.245-.9.707.707,0,0,0-.931.237c-.422.734-.844,1.463-1.267,2.2-.059.105-.123.211-.182.312a.654.654,0,0,0,.245.9.708.708,0,0,0,.931-.237Z" transform="translate(-48.489 -65.043)" fill="#2c3d60"/>
        </g>
      </g>
      <g id="Group_16480" data-name="Group 16480" transform="translate(22.434 25.694)">
        <g id="Group_16479" data-name="Group 16479">
          <path id="Path_513" data-name="Path 513" d="M54.806,75.3c-.218.611-.431,1.221-.649,1.832-.032.088-.064.171-.091.259a.667.667,0,0,0,.477.813.7.7,0,0,0,.84-.461c.218-.611.431-1.221.649-1.832.032-.088.064-.171.091-.259a.667.667,0,0,0-.477-.813.7.7,0,0,0-.84.461Z" transform="translate(-54.038 -74.817)" fill="#2c3d60"/>
        </g>
      </g>
      <g id="Group_16482" data-name="Group 16482" transform="translate(27.633 25.542)">
        <g id="Group_16481" data-name="Group 16481">
          <path id="Path_514" data-name="Path 514" d="M66.761,77.094c.245-.475.495-.949.74-1.424.036-.066.068-.136.1-.2a.652.652,0,0,0-.245-.905.709.709,0,0,0-.527-.066.689.689,0,0,0-.409.3c-.245.475-.495.949-.74,1.424-.036.066-.068.136-.1.2a.652.652,0,0,0,.245.905.709.709,0,0,0,.527.066.689.689,0,0,0,.409-.3Z" transform="translate(-65.49 -74.471)" fill="#2c3d60"/>
        </g>
      </g>
      <g id="Group_16484" data-name="Group 16484" transform="translate(3.395 17.687)">
        <g id="Group_16483" data-name="Group 16483">
          <path id="Path_515" data-name="Path 515" d="M27.365,60.189c-2.788-2.245-6.751-3.932-10.419-3.541a9.477,9.477,0,0,0-4.531,1.7.663.663,0,0,0,.345,1.23A34.405,34.405,0,0,1,22.793,61.13a9.777,9.777,0,0,1,3.092,1.555c.667.545,1.634-.387.962-.931a14.9,14.9,0,0,0-6.415-2.614,44.783,44.783,0,0,0-6.361-.817c-.436-.026-.876-.053-1.312-.057.114.409.227.817.345,1.23a8.733,8.733,0,0,1,7.11-1.318,16.293,16.293,0,0,1,5.271,2.3c.259.167.508.343.758.523.127.092-.068-.053,0,0,.027.022.054.04.077.062l.073.057c.672.536,1.639-.391.967-.936Z" transform="translate(-12.103 -56.591)" fill="#2c3d60"/>
        </g>
      </g>
      <g id="Group_16486" data-name="Group 16486" transform="translate(0 20.683)">
        <g id="Group_16485" data-name="Group 16485">
          <path id="Path_516" data-name="Path 516" d="M18.8,63.679A18.222,18.222,0,0,0,8.345,64.914,10.519,10.519,0,0,0,4.8,67.589a.668.668,0,0,0,.663,1.1,40.729,40.729,0,0,1,11.881-1.621,10.066,10.066,0,0,1,3.8.716c.79.36,1.48-.778.686-1.138-2.393-1.085-5.244-1.015-7.818-.8a53.533,53.533,0,0,0-7.373,1.191c-.513.119-1.031.237-1.539.378.222.369.44.734.663,1.1,2.792-3.287,7.514-4.016,11.677-3.682.286.022.568.053.849.088-.218-.026.073.009.154.026.863.136,1.23-1.134.368-1.279Z" transform="translate(-4.625 -63.412)" fill="#2c3d60"/>
        </g>
      </g>
      <g id="Group_16488" data-name="Group 16488" transform="translate(13.515 4.276)">
        <g id="Group_16487" data-name="Group 16487">
          <path id="Path_517" data-name="Path 517" d="M42.359,30.587A3.246,3.246,0,0,1,40.2,33.593a3.419,3.419,0,0,1-3.732-1,3.139,3.139,0,0,1-.254-3.647,3.367,3.367,0,0,1,3.419-1.507,3.27,3.27,0,0,1,2.724,3.15.683.683,0,0,0,1.362,0,4.6,4.6,0,0,0-3.06-4.24,4.789,4.789,0,0,0-5.189,1.345,4.452,4.452,0,0,0-.436,5.207,4.782,4.782,0,0,0,4.9,2.122,4.609,4.609,0,0,0,3.777-4.433C43.735,29.739,42.373,29.739,42.359,30.587Z" transform="translate(-34.392 -26.071)" fill="#2c3d60"/>
        </g>
      </g>
      <g id="Group_16490" data-name="Group 16490" transform="translate(20.169 2.849)">
        <g id="Group_16489" data-name="Group 16489">
          <path id="Path_518" data-name="Path 518" d="M50.4,26.1a3.4,3.4,0,0,1,5.389-1.019,3.178,3.178,0,0,1-.867,5.132,3.425,3.425,0,0,1-3.682-.488c-.654-.562-1.621.369-.962.931a4.853,4.853,0,0,0,4.635.98,4.652,4.652,0,0,0,3.006-2.975A4.6,4.6,0,0,0,53.1,22.839a4.755,4.755,0,0,0-4.018,2.909.661.661,0,0,0,.477.813.706.706,0,0,0,.84-.461Z" transform="translate(-49.05 -22.822)" fill="#2c3d60"/>
        </g>
      </g>
      <g id="Group_16492" data-name="Group 16492" transform="translate(15.325 0)">
        <g id="Group_16491" data-name="Group 16491">
          <path id="Path_519" data-name="Path 519" d="M39.647,19.318a3.374,3.374,0,0,1,3.5-1.621,3.321,3.321,0,0,1,2.647,2.5c.2.826,1.512.475,1.312-.352a4.634,4.634,0,0,0-3.7-3.44,4.791,4.791,0,0,0-4.935,2.245c-.436.738.74,1.4,1.171.668Z" transform="translate(-38.38 -16.338)" fill="#2c3d60"/>
        </g>
      </g>
      <g id="Group_16494" data-name="Group 16494" transform="translate(8.592 0.924)">
        <g id="Group_16493" data-name="Group 16493">
          <path id="Path_520" data-name="Path 520" d="M25.115,24.091a3.234,3.234,0,0,1,2.456-4.284,3.33,3.33,0,0,1,3.923,2.746.69.69,0,0,0,.681.659.675.675,0,0,0,.681-.659,4.623,4.623,0,0,0-3.75-4.038,4.764,4.764,0,0,0-5.035,2.346,4.462,4.462,0,0,0-.268,3.581c.281.8,1.6.457,1.312-.352Z" transform="translate(-23.548 -18.441)" fill="#2c3d60"/>
        </g>
      </g>
      <g id="Group_16496" data-name="Group 16496" transform="translate(12.759 8.519)">
        <g id="Group_16495" data-name="Group 16495">
          <path id="Path_521" data-name="Path 521" d="M34,35.751a3.543,3.543,0,0,1-.431.079c.059-.009.123-.018.182-.022-.113.013-.227.026-.34.031a.537.537,0,0,0-.263.057.468.468,0,0,0-.218.136.5.5,0,0,0-.141.211.492.492,0,0,0-.059.255.648.648,0,0,0,.2.466.7.7,0,0,0,.481.193,4.932,4.932,0,0,0,.949-.132.524.524,0,0,0,.232-.119.582.582,0,0,0,.177-.185.483.483,0,0,0,.082-.246.475.475,0,0,0-.014-.264.686.686,0,0,0-.313-.4l-.163-.066a.709.709,0,0,0-.359,0Z" transform="translate(-32.729 -35.727)" fill="#2c3d60"/>
        </g>
      </g>
      <g id="Group_16498" data-name="Group 16498" transform="translate(4.977 6.096)">
        <g id="Group_16497" data-name="Group 16497">
          <path id="Path_522" data-name="Path 522" d="M23.548,34.724a3.273,3.273,0,0,1-2.71,3.15A3.362,3.362,0,0,1,17.4,36.367a3.146,3.146,0,0,1,.173-3.541,3.39,3.39,0,0,1,3.46-1.208,3.26,3.26,0,0,1,2.511,3.106.683.683,0,0,0,1.362,0,4.584,4.584,0,0,0-2.96-4.2,4.8,4.8,0,0,0-5.117,1.116,4.46,4.46,0,0,0-.8,5.035,4.711,4.711,0,0,0,4.472,2.557,4.642,4.642,0,0,0,4.4-4.508A.683.683,0,0,0,23.548,34.724Z" transform="translate(-15.588 -30.212)" fill="#2c3d60"/>
        </g>
      </g>
      <g id="Group_16500" data-name="Group 16500" transform="translate(11.509 12.833)">
        <g id="Group_16499" data-name="Group 16499" transform="translate(0)">
          <path id="Path_523" data-name="Path 523" d="M38.009,54.558c.445-.483,0-1.107-.254-1.573-.377-.7-.79-1.388-1.217-2.061a17.808,17.808,0,0,0-3.691-4.565,2.581,2.581,0,0,0-2.37-.721.676.676,0,0,0-.477.813.692.692,0,0,0,.84.461c.054-.022.113-.031.168-.048.082-.026-.15,0-.064.009a.453.453,0,0,0,.077,0c.018-.009.059,0,.082,0,.086,0-.173-.044-.036,0l.191.053c.145.035-.091-.057.077.031l.182.092c.064.035.123.075.182.114.036.026.245.176.145.1a10.114,10.114,0,0,1,1.712,1.758,32.017,32.017,0,0,1,2.792,4.209c.145.264.291.527.427.8.023.048.045.1.073.145.045.092.023.167-.009-.022.045.268.023-.149.041-.22l.177-.29h0c-.595.62.368,1.555.953.923Z" transform="translate(-29.975 -45.544)" fill="#2c3d60"/>
        </g>
      </g>
      <g id="Group_16502" data-name="Group 16502" transform="translate(23.394 10.576)">
        <g id="Group_16501" data-name="Group 16501">
          <path id="Path_524" data-name="Path 524" d="M56.428,40.883a18.43,18.43,0,0,0-.268,3.739c.054,1.876.381,4.152,1.952,5.44.663.545,1.634-.382.963-.931-1.344-1.1-1.53-3.1-1.557-4.693a18.67,18.67,0,0,1,.1-2.311c.014-.154.036-.3.054-.453,0-.048.014-.1.018-.141-.027.2,0,.018,0-.022.014-.092.027-.18.045-.272.145-.835-1.167-1.191-1.317-.356Z" transform="translate(-56.152 -40.407)" fill="#2c3d60"/>
        </g>
      </g>
      <g id="Group_16504" data-name="Group 16504" transform="translate(15.905 11.251)">
        <g id="Group_16503" data-name="Group 16503" transform="translate(0)">
          <path id="Path_525" data-name="Path 525" d="M39.763,43.365l2.9,4.508a2.885,2.885,0,0,0,.59.765,1.671,1.671,0,0,0,2.611-.743,2.341,2.341,0,0,0-.05-1.213c-.1-.488-.2-.975-.3-1.459-.191-.931-.381-1.867-.577-2.8a.7.7,0,0,0-.84-.461.672.672,0,0,0-.477.813c.318,1.547.617,3.1.953,4.64l.014.066c-.036-.224-.018-.018-.014-.031a.351.351,0,0,1-.059.141.3.3,0,0,1-.368.07,1.668,1.668,0,0,1-.331-.475c-.54-.835-1.076-1.674-1.616-2.509-.422-.659-.844-1.314-1.267-1.973-.454-.725-1.634-.062-1.171.659Z" transform="translate(-39.657 -41.943)" fill="#2c3d60"/>
        </g>
      </g>
    </g>
  </g>
</svg>
