<svg xmlns="http://www.w3.org/2000/svg" width="92" height="72" viewBox="0 0 92 72">
  <g id="Fruits_-Vegetables-icn-big" data-name="Fruits&amp;-Vegetables-icn-big" transform="translate(-4.625 -16.338)">
    <g id="Group_16505" data-name="Group 16505" transform="translate(4.625 16.338)">
      <g id="Group_16470" data-name="Group 16470" transform="translate(73.528 25.318)">
        <g id="Group_16469" data-name="Group 16469">
          <path id="Path_508" data-name="Path 508" d="M81.553,52.36c0-.208,0-.415.01-.633,0-.049.06-.633.02-.346a6.222,6.222,0,0,1,.209-.949c.05-.168.1-.336.159-.5.03-.069.189-.415.04-.119a6.766,6.766,0,0,1,.4-.751c.08-.129.169-.267.259-.4a2.3,2.3,0,0,1,.139-.188c-.119.148-.129.158-.02.04A5.972,5.972,0,0,1,83.254,48c.179-.178.378-.346.567-.5.05-.04.457-.346.149-.119.109-.079.219-.168.328-.247a27.668,27.668,0,0,1,4.187-2.442,1.487,1.487,0,0,0,.537-2.027,1.536,1.536,0,0,0-2.039-.534,27.229,27.229,0,0,0-4.565,2.719,9.652,9.652,0,0,0-2.7,2.867A9.108,9.108,0,0,0,78.56,52.35a1.5,1.5,0,0,0,2.993.01Z" transform="translate(-78.56 -41.948)" fill="teal"/>
        </g>
      </g>
      <g id="Group_16472" data-name="Group 16472" transform="translate(68.962 23.742)">
        <g id="Group_16471" data-name="Group 16471">
          <path id="Path_509" data-name="Path 509" d="M75.472,43.355c-.418-.059-.507-.069-.328-.04l.159.03c.189.03.378.069.577.109a13.41,13.41,0,0,1,1.74.494c.159.059.328.129.487.188s-.4-.178-.189-.079c.05.02.09.04.139.059.09.04.189.089.278.129a6.93,6.93,0,0,1,.945.554l.1.069c.189.129-.318-.257-.139-.109l.189.158a3.561,3.561,0,0,1,.388.386.52.52,0,0,0,.1.109c.119.138-.159-.178-.139-.188s.149.208.169.237l.119.208a.527.527,0,0,1,.05.109c.129.237-.139-.366-.06-.148.06.188.109.386.159.583-.129-.554-.02-.2-.02-.03v.326c0,.059-.02.119-.02.168-.01-.425.05-.316.02-.158-.03.119-.05.247-.08.366s-.08.257-.119.376a1.646,1.646,0,0,1-.08.2c.159-.465.05-.129,0-.02l.9-.682-.119.03c-.05.01-.089.01-.139.02-.109.03.517-.059.3-.04-.04,0-.07.01-.109.01a4.133,4.133,0,0,1-.5.01,1.528,1.528,0,0,0-.3-.03c.06-.02.5.079.219.03a1.167,1.167,0,0,1-.179-.04,3.375,3.375,0,0,1-.338-.1c-.05-.02-.109-.04-.159-.059-.3-.109.378.178.119.049a6.834,6.834,0,0,1-.736-.435c.507.336.04.02-.09-.1a4.818,4.818,0,0,1-.378-.405c-.02-.03-.05-.059-.07-.089-.159-.188.229.326.089.119-.05-.079-.109-.148-.159-.217-.129-.188-.239-.386-.348-.583a3.727,3.727,0,0,1-.169-.346c-.03-.059-.05-.109-.08-.168-.119-.257.139.346.03.079s-.209-.564-.3-.85a15.186,15.186,0,0,1-.487-2.195,1.469,1.469,0,0,0-.686-.89,1.517,1.517,0,0,0-1.154-.148,1.533,1.533,0,0,0-1.044,1.829c.368,2.442,1.233,4.963,3.292,6.5a5.16,5.16,0,0,0,3.481.989,1.817,1.817,0,0,0,1.79-1.068A5.318,5.318,0,0,0,83,45.115c-.527-1.948-2.277-3.114-4.048-3.846a13.65,13.65,0,0,0-3.491-.91,1.471,1.471,0,0,0-1.054.435,1.5,1.5,0,0,0-.438,1.048,1.477,1.477,0,0,0,.438,1.048A1.633,1.633,0,0,0,75.472,43.355Z" transform="translate(-73.969 -40.353)" fill="teal"/>
        </g>
      </g>
      <g id="Group_16474" data-name="Group 16474" transform="translate(55.081 33.123)">
        <g id="Group_16473" data-name="Group 16473">
          <path id="Path_510" data-name="Path 510" d="M77.8,79.34c-.03.178-.07.346-.1.524a3.466,3.466,0,0,1,.766-.188,3.381,3.381,0,0,1,.776.02,9.387,9.387,0,0,1,1.9.722,7.542,7.542,0,0,0,4.485.109,11.309,11.309,0,0,0,6.335-4.656c3.053-4.142,5.271-9.856,4.933-15.047-.239-3.648-1.452-8.037-4.963-9.876A10.316,10.316,0,0,0,84,50.72a19.736,19.736,0,0,0-4.823,2.274h1.5c-5.629-2.768-14.37-5.764-18.627.771-1.959,3.005-2.287,7.088-1.89,10.578.03.267.149,1.1.03.227.1.712.2,1.414.318,2.116a18.8,18.8,0,0,0,1.83,6.347,1.49,1.49,0,0,0,2.576-1.493A15.636,15.636,0,0,1,63.5,66.518c-.119-.643-.219-1.285-.318-1.928-.03-.158-.119-.771-.01-.02-.159-1.058,0,.01-.01-.069a23.316,23.316,0,0,1-.139-3.114,14.215,14.215,0,0,1,.239-2.412,11.333,11.333,0,0,1,.308-1.3c.07-.227.139-.455.219-.682a5.95,5.95,0,0,1,.229-.573,5.549,5.549,0,0,1,3.819-3.4c3.709-.959,8.045.939,11.347,2.57a1.508,1.508,0,0,0,1.5,0c2.546-1.7,6.255-3.312,9.249-2.254,3.033,1.068,3.908,5.151,4.008,8,.169,4.735-2.019,10.024-4.992,13.653a7.874,7.874,0,0,1-3.342,2.5,5.291,5.291,0,0,1-4.246-.168,6.327,6.327,0,0,0-4.067-.4c-1.144.3-2.635,1.058-2.476,2.452.229,1.849,3.212,1.868,2.983-.03Z" transform="translate(-60.011 -49.843)" fill="teal"/>
        </g>
      </g>
      <g id="Group_16476" data-name="Group 16476" transform="translate(34.936 46.051)">
        <g id="Group_16475" data-name="Group 16475" transform="translate(0)">
          <path id="Path_511" data-name="Path 511" d="M42.853,73.973c.666-1.226,1.323-2.442,1.989-3.668a18.923,18.923,0,0,1,2.088-3.717c1.591-1.73,4.018.306,5.519,1.176q9.547,5.5,19.1,11.013c2.417,1.394,4.823,2.778,7.24,4.172.4.227,1.1.5,1.3.939.527,1.157-1.164,2.116-2.168,1.987a4.709,4.709,0,0,1-.617-.158C71.385,84.106,65.487,82.376,59.58,80.7Q53.7,79.044,47.835,77.383c-1.442-.386-6.166-.949-4.982-3.411.815-1.71-1.75-3.223-2.576-1.493a4.689,4.689,0,0,0,2.864,6.693c.587.188,1.183.336,1.77.5Q49.8,81.056,54.7,82.445q10.666,3.01,21.332,6.03a6.352,6.352,0,0,0,3.491.237c3.133-.84,5.042-4.953,2.3-7.335a32.7,32.7,0,0,0-5.2-3.084Q65.995,72.168,55.383,66.044c-1.711-.989-3.709-2.57-5.688-3-4.953-1.068-6.862,4.745-8.692,8.116-.239.445-.477.89-.726,1.335C39.362,74.151,41.938,75.653,42.853,73.973Z" transform="translate(-39.754 -62.92)" fill="teal"/>
        </g>
      </g>
      <g id="Group_16478" data-name="Group 16478" transform="translate(43.623 48.15)">
        <g id="Group_16477" data-name="Group 16477">
          <path id="Path_512" data-name="Path 512" d="M51.255,72.9c.925-1.651,1.85-3.292,2.775-4.943.129-.237.269-.475.4-.7a1.494,1.494,0,0,0-.537-2.027,1.524,1.524,0,0,0-2.039.534c-.925,1.651-1.85,3.292-2.775,4.943-.129.237-.269.475-.4.7a1.494,1.494,0,0,0,.537,2.027,1.527,1.527,0,0,0,2.039-.534Z" transform="translate(-48.489 -65.043)" fill="teal"/>
        </g>
      </g>
      <g id="Group_16480" data-name="Group 16480" transform="translate(49.141 57.812)">
        <g id="Group_16479" data-name="Group 16479">
          <path id="Path_513" data-name="Path 513" d="M55.721,75.9c-.477,1.374-.945,2.748-1.422,4.122-.07.2-.139.386-.2.583a1.5,1.5,0,0,0,1.044,1.829,1.537,1.537,0,0,0,1.84-1.038c.477-1.374.945-2.748,1.422-4.122.07-.2.139-.386.2-.583a1.5,1.5,0,0,0-1.044-1.829,1.536,1.536,0,0,0-1.84,1.038Z" transform="translate(-54.038 -74.817)" fill="teal"/>
        </g>
      </g>
      <g id="Group_16482" data-name="Group 16482" transform="translate(60.53 57.471)">
        <g id="Group_16481" data-name="Group 16481">
          <path id="Path_514" data-name="Path 514" d="M68.275,80.372c.537-1.068,1.084-2.135,1.621-3.2.08-.148.149-.306.229-.455a1.586,1.586,0,0,0,.149-1.147,1.536,1.536,0,0,0-.686-.89,1.507,1.507,0,0,0-2.049.534c-.537,1.068-1.084,2.135-1.621,3.2-.08.148-.149.306-.229.455a1.586,1.586,0,0,0-.149,1.147,1.536,1.536,0,0,0,.686.89,1.507,1.507,0,0,0,2.049-.534Z" transform="translate(-65.49 -74.471)" fill="teal"/>
        </g>
      </g>
      <g id="Group_16484" data-name="Group 16484" transform="translate(7.437 39.795)">
        <g id="Group_16483" data-name="Group 16483">
          <path id="Path_515" data-name="Path 515" d="M45.535,64.687c-6.106-5.052-14.788-8.848-22.824-7.968a20.431,20.431,0,0,0-9.925,3.836,1.5,1.5,0,0,0,.756,2.768A73.533,73.533,0,0,1,35.52,66.8a21.2,21.2,0,0,1,6.772,3.5c1.462,1.226,3.58-.87,2.108-2.1-3.928-3.282-9.119-4.824-14.052-5.882a95.631,95.631,0,0,0-13.933-1.839c-.955-.059-1.919-.119-2.874-.129.249.919.5,1.839.756,2.768a18.718,18.718,0,0,1,15.574-2.966,35.216,35.216,0,0,1,11.546,5.18c.567.376,1.114.771,1.661,1.176.278.208-.149-.119.01.01.06.049.119.089.169.138s.1.079.159.129c1.472,1.206,3.59-.88,2.118-2.106Z" transform="translate(-12.103 -56.591)" fill="teal"/>
        </g>
      </g>
      <g id="Group_16486" data-name="Group 16486" transform="translate(0 46.537)">
        <g id="Group_16485" data-name="Group 16485">
          <path id="Path_516" data-name="Path 516" d="M35.678,64.013c-7.518-1.3-16.021-.534-22.9,2.778A23.111,23.111,0,0,0,5,72.812,1.5,1.5,0,0,0,6.45,75.293c8.344-2.323,17.344-3.964,26.026-3.648a21.538,21.538,0,0,1,8.314,1.611c1.73.811,3.242-1.75,1.5-2.56-5.241-2.442-11.486-2.284-17.125-1.789A114.409,114.409,0,0,0,9.016,71.586c-1.124.267-2.257.534-3.371.85.487.83.965,1.651,1.452,2.481,6.116-7.395,16.459-9.036,25.578-8.284.627.049,1.243.119,1.86.2-.477-.059.159.02.338.059,1.89.306,2.7-2.551.806-2.877Z" transform="translate(-4.625 -63.412)" fill="teal"/>
        </g>
      </g>
      <g id="Group_16488" data-name="Group 16488" transform="translate(29.603 9.622)">
        <g id="Group_16487" data-name="Group 16487">
          <path id="Path_517" data-name="Path 517" d="M51.843,36.233a7.249,7.249,0,0,1-12.9,4.508,7.218,7.218,0,0,1-.557-8.205,7.249,7.249,0,0,1,13.455,3.7c.03,1.908,3.013,1.908,2.983,0a8.423,8.423,0,1,1-.01,0C54.857,34.325,51.873,34.325,51.843,36.233Z" transform="translate(-34.392 -26.071)" fill="teal"/>
        </g>
      </g>
      <g id="Group_16490" data-name="Group 16490" transform="translate(44.18 6.411)">
        <g id="Group_16489" data-name="Group 16489">
          <path id="Path_518" data-name="Path 518" d="M52.014,30.2a7.342,7.342,0,0,1,11.8-2.294,7.251,7.251,0,0,1-1.9,11.547,7.345,7.345,0,0,1-8.065-1.1c-1.432-1.265-3.55.83-2.108,2.1a10.248,10.248,0,0,0,16.737-4.488,10.282,10.282,0,0,0-10.552-13.1,10.442,10.442,0,0,0-8.8,6.545,1.493,1.493,0,0,0,1.044,1.829,1.541,1.541,0,0,0,1.84-1.038Z" transform="translate(-49.05 -22.822)" fill="teal"/>
        </g>
      </g>
      <g id="Group_16492" data-name="Group 16492" transform="translate(33.569 0)">
        <g id="Group_16491" data-name="Group 16491">
          <path id="Path_519" data-name="Path 519" d="M41.155,23.043A7.261,7.261,0,0,1,54.62,25.02c.428,1.859,3.312,1.068,2.874-.791a10.267,10.267,0,0,0-8.1-7.741,10.4,10.4,0,0,0-10.81,5.052,1.488,1.488,0,0,0,2.566,1.5Z" transform="translate(-38.38 -16.338)" fill="teal"/>
        </g>
      </g>
      <g id="Group_16494" data-name="Group 16494" transform="translate(18.82 2.08)">
        <g id="Group_16493" data-name="Group 16493">
          <path id="Path_520" data-name="Path 520" d="M26.981,31.153a7.245,7.245,0,1,1,13.973-3.46,1.532,1.532,0,0,0,1.492,1.483,1.5,1.5,0,0,0,1.492-1.483,10.217,10.217,0,1,0-19.83,4.251c.617,1.789,3.5,1.028,2.874-.791Z" transform="translate(-23.548 -18.441)" fill="teal"/>
        </g>
      </g>
      <g id="Group_16496" data-name="Group 16496" transform="translate(27.949 19.169)">
        <g id="Group_16495" data-name="Group 16495">
          <path id="Path_521" data-name="Path 521" d="M35.515,35.779a7.577,7.577,0,0,1-.945.178c.129-.02.269-.04.4-.049-.249.03-.5.059-.746.069a1.149,1.149,0,0,0-.577.129,1.021,1.021,0,0,0-.477.306,1.636,1.636,0,0,0-.438,1.048,1.477,1.477,0,0,0,.438,1.048,1.513,1.513,0,0,0,1.054.435,10.535,10.535,0,0,0,2.078-.3,1.138,1.138,0,0,0,.507-.267,1.3,1.3,0,0,0,.388-.415,1.628,1.628,0,0,0,.149-1.147,1.536,1.536,0,0,0-.686-.89l-.358-.148a1.513,1.513,0,0,0-.786,0Z" transform="translate(-32.729 -35.727)" fill="teal"/>
        </g>
      </g>
      <g id="Group_16498" data-name="Group 16498" transform="translate(10.903 13.716)">
        <g id="Group_16497" data-name="Group 16497">
          <path id="Path_522" data-name="Path 522" d="M33.023,40.363a7.252,7.252,0,1,1-5.5-6.989,7.307,7.307,0,0,1,5.5,6.989c.03,1.908,3.013,1.908,2.983,0A10.234,10.234,0,1,0,26.36,50.506a10.3,10.3,0,0,0,9.647-10.143C36.037,38.455,33.053,38.455,33.023,40.363Z" transform="translate(-15.588 -30.212)" fill="teal"/>
        </g>
      </g>
      <g id="Group_16500" data-name="Group 16500" transform="translate(25.211 28.874)">
        <g id="Group_16499" data-name="Group 16499" transform="translate(0)">
          <path id="Path_523" data-name="Path 523" d="M47.573,65.826c.975-1.087-.01-2.491-.557-3.539-.825-1.582-1.73-3.124-2.665-4.637-2.238-3.628-4.734-7.553-8.085-10.272-1.392-1.127-3.332-2.333-5.191-1.621a1.488,1.488,0,1,0,.8,2.867c.119-.049.249-.069.368-.109.179-.059-.328.01-.139.02a.965.965,0,0,0,.169,0c.04-.02.129.01.179.01.189,0-.378-.1-.08-.01l.418.119c.318.079-.2-.129.169.069.129.069.269.138.4.208s.269.168.4.257c.08.059.537.4.318.217a22.487,22.487,0,0,1,3.749,3.954,72.228,72.228,0,0,1,6.116,9.471c.318.593.636,1.186.935,1.789.05.109.1.218.159.326.1.208.05.376-.02-.049.1.6.05-.336.09-.494l.388-.652h0c-1.3,1.394.806,3.5,2.088,2.076Z" transform="translate(-29.975 -45.544)" fill="teal"/>
        </g>
      </g>
      <g id="Group_16502" data-name="Group 16502" transform="translate(51.244 23.795)">
        <g id="Group_16501" data-name="Group 16501">
          <path id="Path_524" data-name="Path 524" d="M56.757,41.478a42.573,42.573,0,0,0-.587,8.413c.119,4.221.835,9.342,4.276,12.239,1.452,1.226,3.58-.86,2.108-2.1-2.944-2.472-3.351-6.97-3.411-10.558a43.145,43.145,0,0,1,.229-5.2c.03-.346.08-.682.119-1.018.01-.109.03-.217.04-.316-.06.455-.01.04.01-.049.03-.208.06-.405.1-.613.318-1.878-2.556-2.679-2.884-.8Z" transform="translate(-56.152 -40.407)" fill="teal"/>
        </g>
      </g>
      <g id="Group_16504" data-name="Group 16504" transform="translate(34.839 25.314)">
        <g id="Group_16503" data-name="Group 16503" transform="translate(0)">
          <path id="Path_525" data-name="Path 525" d="M39.889,45.143l6.355,10.143a6.473,6.473,0,0,0,1.293,1.72,3.621,3.621,0,0,0,5.718-1.671,5.406,5.406,0,0,0-.109-2.729c-.219-1.1-.438-2.195-.656-3.282-.418-2.1-.835-4.2-1.263-6.3a1.5,1.5,0,0,0-2.884.791c.7,3.48,1.353,6.97,2.088,10.44l.03.148c-.08-.5-.04-.04-.03-.069a.8.8,0,0,1-.129.316.644.644,0,0,1-.806.158,3.757,3.757,0,0,1-.726-1.068c-1.183-1.878-2.357-3.767-3.54-5.645-.925-1.483-1.85-2.956-2.775-4.439-.994-1.631-3.58-.138-2.566,1.483Z" transform="translate(-39.657 -41.943)" fill="teal"/>
        </g>
      </g>
    </g>
  </g>
</svg>
