<svg xmlns="http://www.w3.org/2000/svg" width="32" height="32" viewBox="0 0 32 32">
  <g id="header-signin-icn" transform="translate(-1587 -72)">
    <g id="account" transform="translate(1591.6 75.4)" fill="none">
      <path d="M11.5,4a3.881,3.881,0,0,1,3.75,4,3.881,3.881,0,0,1-3.75,4A3.881,3.881,0,0,1,7.75,8,3.881,3.881,0,0,1,11.5,4m0,10c4.144,0,7.5,1.79,7.5,4H4C4,15.79,7.356,14,11.5,14Z" stroke="none"/>
      <path d="M 11.5 4 C 9.428939819335938 4 7.75 5.790870666503906 7.75 8 C 7.75 10.20913982391357 9.428939819335938 12 11.5 12 C 13.57106018066406 12 15.25 10.20913982391357 15.25 8 C 15.25 5.790870666503906 13.57106018066406 4 11.5 4 M 11.5 14 C 7.356249809265137 14 4 15.79001045227051 4 18 L 19 18 C 19 15.79001045227051 15.64375019073486 14 11.5 14 M 11.5 1.5 C 14.94626045227051 1.5 17.75 4.415889739990234 17.75 8 C 17.75 9.613112449645996 17.18197059631348 11.09097099304199 16.24312210083008 12.22844696044922 C 16.86272430419922 12.433669090271 17.44561767578125 12.68016338348389 17.98038101196289 12.96537017822266 C 20.21714973449707 14.1583194732666 21.5 15.99337005615234 21.5 18 L 21.5 20.5 L 19 20.5 L 4 20.5 L 1.5 20.5 L 1.5 18 C 1.5 15.99337005615234 2.78285026550293 14.1583194732666 5.019620895385742 12.96537017822266 C 5.55438232421875 12.68016338348389 6.137275695800781 12.433669090271 6.756877899169922 12.22844696044922 C 5.818029403686523 11.09097099304199 5.25 9.613112449645996 5.25 8 C 5.25 4.415889739990234 8.053739547729492 1.5 11.5 1.5 Z" stroke="none" fill="#2c3d63"/>
    </g>
    <g id="Ellipse_23" data-name="Ellipse 23" transform="translate(1587 72)" fill="none" stroke="#2c3d63" stroke-width="2.5">
      <circle cx="16" cy="16" r="16" stroke="none"/>
      <circle cx="16" cy="16" r="14.75" fill="none"/>
    </g>
  </g>
</svg>
