<svg xmlns="http://www.w3.org/2000/svg" width="28" height="28" viewBox="0 0 28 28">
  <path id="header-wishlist-icn" d="M16.14,26.728,16,26.88l-.154-.153C9.2,20.151,4.8,15.8,4.8,11.392c0-3.052,2.1-5.341,4.9-5.341a5.509,5.509,0,0,1,5,3.6h2.6a5.509,5.509,0,0,1,5-3.6c2.8,0,4.9,2.289,4.9,5.341,0,4.41-4.4,8.759-11.06,15.335M22.3,3A8.152,8.152,0,0,0,16,6.174,8.152,8.152,0,0,0,9.7,3C5.388,3,2,6.677,2,11.392,2,17.145,6.76,21.86,13.97,28.986L16,31l2.03-2.014C25.24,21.86,30,17.145,30,11.392,30,6.677,26.612,3,22.3,3Z" transform="translate(-2 -3)" fill="#2c3d63"/>
</svg>
