<svg xmlns="http://www.w3.org/2000/svg" width="35" height="30.991" viewBox="0 0 35 30.991">
  <g id="header-express-icn" transform="translate(-5.35 -16.149)">
    <g id="Group_16516" data-name="Group 16516" transform="translate(14.535 40.432)">
      <g id="Group_16515" data-name="Group 16515">
        <path id="Path_7256" data-name="Path 7256" d="M39.537,75.182l-10.086-4.85-1.441-.674c-.36-.18-.64.4-.32.584l10.086,4.85,1.441.674c.36.18.68-.4.32-.584Z" transform="translate(-27.55 -69.624)" fill="#2c3d60" stroke="#2c3d63" stroke-width="1"/>
      </g>
    </g>
    <g id="Group_16518" data-name="Group 16518" transform="translate(13.107 16.64)">
      <g id="Group_16517" data-name="Group 16517" transform="translate(0)">
        <path id="Path_7257" data-name="Path 7257" d="M24.429,23.986c3.8-1.976,7.6-3.907,11.367-5.882.52-.269,1.041-.539,1.6-.808h-.32c3.842,1.976,7.685,3.907,11.527,5.882.56.269,1.081.539,1.641.853v-.584c-3.842,1.886-7.685,3.817-11.527,5.7-.56.269-1.081.539-1.641.808a.374.374,0,0,0-.16.269V46.3a.3.3,0,1,0,.6,0V30.228a.956.956,0,0,1-.16.269c3.842-1.886,7.685-3.817,11.527-5.7.56-.269,1.081-.539,1.641-.808a.359.359,0,0,0,0-.584c-3.842-1.976-7.725-3.951-11.567-5.927a12.926,12.926,0,0,0-1.561-.808c-.36-.135-.881.269-1.2.449-2.2,1.167-4.4,2.335-6.6,3.458-1.8.943-3.642,1.886-5.443,2.829-.36.18-.08.763.28.584Z" transform="translate(-23.981 -16.64)" fill="#2c3d60" stroke="#2c3d63" stroke-width="1"/>
      </g>
    </g>
    <g id="Group_16520" data-name="Group 16520" transform="translate(26.204 23.374)">
      <g id="Group_16519" data-name="Group 16519" transform="translate(0 0)">
        <path id="Path_7258" data-name="Path 7258" d="M69.711,31.935v15.9a.955.955,0,0,1,.16-.269c-3.8,1.976-7.6,3.907-11.407,5.882-.52.269-1.081.539-1.6.808-.36.18-.04.763.32.584,3.8-1.976,7.6-3.907,11.407-5.882.52-.269,1.081-.539,1.6-.808a.374.374,0,0,0,.16-.269V31.98a.321.321,0,0,0-.64-.045Z" transform="translate(-56.705 -31.637)" fill="#2c3d60" stroke="#2c3d63" stroke-width="1"/>
      </g>
    </g>
    <g id="Group_16522" data-name="Group 16522" transform="translate(18.577 18.618)">
      <g id="Group_16521" data-name="Group 16521" transform="translate(0 0)">
        <path id="Path_7259" data-name="Path 7259" d="M41.712,21.608c3.642,1.931,7.284,3.907,10.926,5.882.52.269,1.041.539,1.561.853a.956.956,0,0,0-.16-.269c.04,2.245.04,4.49.08,6.78a.956.956,0,0,1,.16-.269c-1.4.718-2.762,1.437-4.162,2.155a4.245,4.245,0,0,1,.44.269c-.04-2.245-.04-4.49-.08-6.736a.283.283,0,0,0-.16-.269L39.631,24.213c-.52-.269-1-.539-1.521-.808-.36-.18-.64.4-.32.584l10.686,5.793c.52.269,1,.539,1.521.808a.956.956,0,0,0-.16-.269c.04,2.245.04,4.49.08,6.736a.282.282,0,0,0,.44.269c1.4-.718,2.762-1.437,4.162-2.155a.374.374,0,0,0,.16-.269c-.04-2.245-.04-4.49-.08-6.78a.283.283,0,0,0-.16-.269c-3.642-1.976-7.284-3.907-10.926-5.882-.52-.269-1.041-.539-1.561-.853-.28-.269-.6.314-.24.494Z" transform="translate(-37.65 -21.044)" fill="#2c3d60" stroke="#2c3d63" stroke-width="1"/>
      </g>
    </g>
    <g id="Group_16524" data-name="Group 16524" transform="translate(13.114 23.369)">
      <g id="Group_16523" data-name="Group 16523" transform="translate(0 0)">
        <path id="Path_7260" data-name="Path 7260" d="M37.408,38.17c-3.8-1.886-7.564-3.817-11.367-5.7-.52-.269-1.081-.539-1.6-.808a.293.293,0,0,0-.44.269v3.009a.3.3,0,1,0,.6,0V31.928a4.244,4.244,0,0,0-.44.269c3.8,1.886,7.564,3.817,11.367,5.7.52.269,1.081.539,1.6.808.32.225.64-.359.28-.539Z" transform="translate(-24 -31.625)" fill="#2c3d60" stroke="#2c3d63" stroke-width="1"/>
      </g>
    </g>
    <g id="Group_16526" data-name="Group 16526" transform="translate(8.562 30.811)">
      <g id="Group_16525" data-name="Group 16525" transform="translate(0 0)">
        <path id="Path_7261" data-name="Path 7261" d="M12.9,48.874H21.34c.4,0,.4-.674,0-.674H12.9c-.36,0-.36.674,0,.674Z" transform="translate(-12.625 -48.2)" fill="#2c3d60" stroke="#2c3d63" stroke-width="1"/>
      </g>
    </g>
    <g id="Group_16528" data-name="Group 16528" transform="translate(6.12 26.591)">
      <g id="Group_16527" data-name="Group 16527" transform="translate(0 0)">
        <path id="Path_7262" data-name="Path 7262" d="M6.8,39.474H15.24c.4,0,.4-.674,0-.674H6.8c-.36,0-.36.674,0,.674Z" transform="translate(-6.525 -38.8)" fill="#2c3d60" stroke="#2c3d63" stroke-width="1"/>
      </g>
    </g>
    <g id="Group_16530" data-name="Group 16530" transform="translate(9.252 40.331)">
      <g id="Group_16529" data-name="Group 16529" transform="translate(0)">
        <path id="Path_7263" data-name="Path 7263" d="M14.65,70.074H23.1c.4,0,.4-.674,0-.674H14.65c-.4,0-.4.674,0,.674Z" transform="translate(-14.35 -69.4)" fill="#2c3d60" stroke="#2c3d63" stroke-width="1"/>
      </g>
    </g>
    <g id="Group_16532" data-name="Group 16532" transform="translate(5.85 34.673)">
      <g id="Group_16531" data-name="Group 16531" transform="translate(0 0)">
        <path id="Path_7264" data-name="Path 7264" d="M6.15,57.474H14.6c.4,0,.4-.674,0-.674H6.15c-.4,0-.4.674,0,.674Z" transform="translate(-5.85 -56.8)" fill="#2c3d60" stroke="#2c3d63" stroke-width="1"/>
      </g>
    </g>
    <g id="Group_16534" data-name="Group 16534" transform="translate(13.124 37.098)">
      <g id="Group_16533" data-name="Group 16533" transform="translate(0)">
        <path id="Path_7265" data-name="Path 7265" d="M24.3,62.874h4.963c.4,0,.4-.674,0-.674H24.3c-.36,0-.36.674,0,.674Z" transform="translate(-24.025 -62.2)" fill="#2c3d60" stroke="#2c3d63" stroke-width="1"/>
      </g>
    </g>
  </g>
</svg>
