<svg xmlns="http://www.w3.org/2000/svg" width="23.305" height="26.495" viewBox="0 0 23.305 26.495">
  <g id="header-location-Pin" transform="translate(-266.4 -595)">
    <rect id="Rectangle_305" data-name="Rectangle 305" width="21.689" height="21.689" transform="translate(266.4 596.001)" fill="none"/>
    <path id="Path_114" data-name="Path 114" d="M10,14.278a4.194,4.194,0,0,1-4.2-4.2A4.323,4.323,0,0,1,10,5.726a4.194,4.194,0,0,1,4.2,4.2A4.428,4.428,0,0,1,10,14.278Zm7.052-11.4a9.973,9.973,0,0,0-14.1,14.1L10,24.031l7.052-7.052A10.245,10.245,0,0,0,17.054,2.876Z" transform="translate(268.839 596.05)" fill="none" stroke="teal" stroke-width="2" fill-rule="evenodd"/>
  </g>
</svg>
