<svg xmlns="http://www.w3.org/2000/svg" width="30" height="30" viewBox="0 0 30 30">
  <g id="header-sell_on_motabhai-icn" data-name="header-sell on motabhai-icn" transform="translate(-2.65 -3.411)">
    <path id="Path_1287" data-name="Path 1287" d="M43.022,53.1l-.422.551h1.168s1.135-.065,1.362.616H43.054l-.454.551h2.594s.195,1.2-2.367,1.038v.519l2.594,2.692h1.135L43.9,56.311s1.978-.1,2.27-1.459h.843l.422-.584H46.167a1.1,1.1,0,0,0-.324-.551h1.168l.454-.584H43.022Z" transform="translate(-27.303 -33.786)" fill="#2c3d60"/>
    <g id="Group_16779" data-name="Group 16779" transform="translate(2.666 10.38)">
      <g id="Group_16778" data-name="Group 16778" transform="translate(0)">
        <path id="Path_1288" data-name="Path 1288" d="M28.282,45.947H7.4a3.473,3.473,0,0,1-.858-.064,2.237,2.237,0,0,1-1.335-.8,2.559,2.559,0,0,1-.6-1.375c-.064-.928,0-1.887,0-2.783V29.314a2.71,2.71,0,0,1,.127-.864A2.5,2.5,0,0,1,5.56,27.3a2.6,2.6,0,0,1,1.653-.512H28.25a1.657,1.657,0,0,1,.572.064,2.361,2.361,0,0,1,1.366.832,2.552,2.552,0,0,1,.572,1.759V43.037a4.065,4.065,0,0,1-.127,1.247,2.566,2.566,0,0,1-2.352,1.663.96.96,0,0,0,0,1.919,4.466,4.466,0,0,0,3.782-2.175,4.607,4.607,0,0,0,.6-2.431V29.474a4.943,4.943,0,0,0-.636-2.495A4.382,4.382,0,0,0,28.314,24.9H7.213A4.456,4.456,0,0,0,2.7,29.314V43.74a4.4,4.4,0,0,0,2.352,3.678,6.732,6.732,0,0,0,3.273.512H28.314A1,1,0,0,0,28.282,45.947Z" transform="translate(-2.7 -24.9)" fill="#2c3d60"/>
      </g>
    </g>
    <g id="Group_16781" data-name="Group 16781" transform="translate(7.206 7.851)">
      <g id="Group_16780" data-name="Group 16780">
        <path id="Path_1289" data-name="Path 1289" d="M18.646,20.6v-2.53l-.973.973h5.254l-.973-.973V20.6a.976.976,0,0,0,.973.973A1,1,0,0,0,23.9,20.6v-2.53a1,1,0,0,0-.973-.973H17.673a1,1,0,0,0-.973.973V20.6a.976.976,0,0,0,.973.973,1.021,1.021,0,0,0,.973-.973Z" transform="translate(-16.7 -17.1)" fill="#2c3d60"/>
      </g>
    </g>
    <g id="Group_16783" data-name="Group 16783" transform="translate(21.283 7.851)">
      <g id="Group_16782" data-name="Group 16782">
        <path id="Path_1290" data-name="Path 1290" d="M63.946,20.6v-2.53l-.973.973h5.254l-.973-.973V20.6a.976.976,0,0,0,.973.973A1,1,0,0,0,69.2,20.6v-2.53a1,1,0,0,0-.973-.973H62.973a1,1,0,0,0-.973.973V20.6a.976.976,0,0,0,.973.973,1.021,1.021,0,0,0,.973-.973Z" transform="translate(-62 -17.1)" fill="#2c3d60"/>
      </g>
    </g>
    <g id="Group_16785" data-name="Group 16785" transform="translate(7.997 3.411)">
      <g id="Group_16784" data-name="Group 16784">
        <path id="Path_1291" data-name="Path 1291" d="M22.053,8.824V6.683a1.166,1.166,0,0,1,1.2-1.265c1.1-.032,2.205,0,3.34,0h9.794a.76.76,0,0,1,.389.065,1.066,1.066,0,0,1,.389.195c.162.1-.13-.13.1.065a1.5,1.5,0,0,1,.227.227c-.032-.032-.065-.1.032.065.065.1.1.195.162.292-.032-.13.065.357.065.227a18.7,18.7,0,0,1,0,2.335.973.973,0,0,0,1.946,0V6.78a3.424,3.424,0,0,0-3.211-3.34c-1.1-.065-2.205,0-3.276,0-3.308,0-6.616-.032-9.924,0A3.133,3.133,0,0,0,20.14,6.391c-.065.811,0,1.622,0,2.432a.957.957,0,0,0,1.913,0Z" transform="translate(-20.111 -3.411)" fill="#2c3d60"/>
      </g>
    </g>
    <g id="Group_16787" data-name="Group 16787" transform="translate(11.122 15.286)">
      <g id="Group_16786" data-name="Group 16786">
        <path id="Path_1292" data-name="Path 1292" d="M40.8,47.231a4.575,4.575,0,1,1-3.73-4.508,4.58,4.58,0,0,1,3.73,4.508.973.973,0,0,0,1.946,0,6.518,6.518,0,1,0-5.221,6.389,6.6,6.6,0,0,0,5.221-6.389A.973.973,0,0,0,40.8,47.231Z" transform="translate(-29.719 -40.718)" fill="#2c3d60"/>
      </g>
    </g>
    <g id="Group_16789" data-name="Group 16789" transform="translate(2.65 18.431)">
      <g id="Group_16788" data-name="Group 16788">
        <path id="Path_1293" data-name="Path 1293" d="M2.8,51.783c.843,1.395,1.557,3.049,3.081,3.762C7.3,56.226,9.087,56,10.612,56H12.4a.973.973,0,0,0,0-1.946H8.731A6.7,6.7,0,0,1,7.3,53.988,2.708,2.708,0,0,1,5.52,52.561c-.357-.584-.713-1.168-1.07-1.784A.969.969,0,0,0,2.8,51.783Z" transform="translate(-2.65 -50.335)" fill="#2c3d60"/>
      </g>
    </g>
    <g id="Group_16791" data-name="Group 16791" transform="translate(21.956 18.442)">
      <g id="Group_16790" data-name="Group 16790">
        <path id="Path_1294" data-name="Path 1294" d="M72.937,50.833c-.324.519-.649,1.07-.941,1.589a3.1,3.1,0,0,1-1.33,1.459,3.792,3.792,0,0,1-1.622.195H65.024a.973.973,0,0,0,0,1.946H68.98a6.367,6.367,0,0,0,2.076-.195,4.568,4.568,0,0,0,2.432-2.108c.389-.649.746-1.265,1.135-1.913.649-1.07-1.038-2.043-1.686-.973Z" transform="translate(-64.075 -50.368)" fill="#2c3d60"/>
      </g>
    </g>
  </g>
</svg>
