<svg xmlns="http://www.w3.org/2000/svg" xmlns:xlink="http://www.w3.org/1999/xlink" width="32" height="32" viewBox="0 0 32 32">
  <defs>
    <clipPath id="clip-path">
      <rect id="Rectangle_2112" data-name="Rectangle 2112" width="32" height="32" transform="translate(1665 39)" fill="#2c3d63"/>
    </clipPath>
  </defs>
  <g id="header-cart-icn" transform="translate(-1665 -39)" clip-path="url(#clip-path)">
    <g id="shopping_cart-24px" transform="translate(1665 39)">
      <path id="Path_1239" data-name="Path 1239" d="M0,0H32V32H0Z" fill="none"/>
      <path id="Path_1240" data-name="Path 1240" d="M21.067,18A2.654,2.654,0,0,0,23.4,16.627l4.773-8.653A1.328,1.328,0,0,0,27.013,6H7.28L6.027,3.333H1.667V6H4.333l4.8,10.12-1.8,3.253a2.671,2.671,0,0,0,2.333,3.96h16V20.667h-16L11.133,18ZM8.547,8.667h16.2l-3.68,6.667h-9.36Zm1.12,16a2.667,2.667,0,1,0,2.667,2.667A2.663,2.663,0,0,0,9.667,24.667Zm13.333,0a2.667,2.667,0,1,0,2.667,2.667A2.663,2.663,0,0,0,23,24.667Z" transform="translate(-0.333 -0.667)" fill="#2c3d63"/>
    </g>
  </g>
</svg>
