<svg xmlns="http://www.w3.org/2000/svg" width="22.667" height="25" viewBox="0 0 22.667 25">
  <g id="Home-Care-icn" transform="translate(-1.777 -8.978)">
    <g id="Group_16632" data-name="Group 16632" transform="translate(1.777 8.977)">
      <g id="Group_16629" data-name="Group 16629" transform="translate(3.62 3.699)">
        <g id="Group_16628" data-name="Group 16628">
          <path id="Path_579" data-name="Path 579" d="M17.774,29.368Q21,26.133,24.215,22.9c.309-.308.618-.62.927-.928h-.5q3.186,3.244,6.373,6.484l.9.913c-.035-.106-.068-.215-.1-.321V42.058l.354-.454h-4.81l.354.454q.011-1.973.021-3.944c0-.729.007-1.455.012-2.184a4.871,4.871,0,0,0-.429-2.256,2.7,2.7,0,0,0-2.365-1.621,2.748,2.748,0,0,0-2.344.962,4.144,4.144,0,0,0-.849,2.631c0,.6,0,1.2,0,1.8v4.606L22.1,41.6H17.484l.354.454q.007-2.2.012-4.391.011-3.5.021-7c0-.538,0-1.077,0-1.612,0-.584-.7-.584-.707,0q-.007,2.2-.012,4.391-.011,3.5-.021,7c0,.538,0,1.077,0,1.612a.42.42,0,0,0,.354.454H22.1a.42.42,0,0,0,.354-.454V36.221a5.724,5.724,0,0,1,.123-1.57,2.12,2.12,0,0,1,1.943-1.691,3.027,3.027,0,0,1,.934.064,2.063,2.063,0,0,1,1.11.88,3.485,3.485,0,0,1,.462,1.954c0,.653-.007,1.307-.009,1.96Q27.01,39.937,27,42.055a.418.418,0,0,0,.354.454h4.81a.42.42,0,0,0,.354-.454V31.037c0-.62.009-1.243,0-1.863-.007-.405-.2-.541-.424-.771q-1.874-1.91-3.751-3.817-1.6-1.629-3.2-3.254a.313.313,0,0,0-.5,0L18.2,27.8c-.309.308-.618.62-.927.928C16.915,29.087,17.42,29.725,17.774,29.368Z" transform="translate(-17.13 -21.208)" fill="#2c3d60"/>
        </g>
      </g>
      <g id="Group_16631" data-name="Group 16631" transform="translate(0 0)">
        <g id="Group_16630" data-name="Group 16630">
          <path id="Path_580" data-name="Path 580" d="M2.4,20.819l3.737-3.75q2.967-2.976,5.932-5.955l1.365-1.37h-.5l3.673,3.738q2.932,2.98,5.861,5.964c.45.46.9.916,1.353,1.376.354.36.856-.278.5-.641l-3.673-3.738q-2.932-2.98-5.861-5.964c-.45-.46-.9-.916-1.353-1.376a.313.313,0,0,0-.5,0Q11.067,10.98,9.2,12.855,6.23,15.831,3.266,18.81L1.9,20.18c-.358.357.144,1,.5.638Z" transform="translate(-1.777 -8.977)" fill="#2c3d60"/>
        </g>
      </g>
    </g>
  </g>
</svg>
