<svg id="instagram-vendor-white-icn" xmlns="http://www.w3.org/2000/svg" width="24.563" height="24.563" viewBox="0 0 24.563 24.563">
  <path id="Path_274" data-name="Path 274" d="M5.2,8.364a8.375,8.375,0,0,1,14.165,0h5.2V5.128A5.134,5.134,0,0,0,19.434,0H5.128A5.134,5.134,0,0,0,0,5.128V8.364H5.2ZM21.116,4.9H19.676V3.461h1.439Z" transform="translate(0)" fill="#fff"/>
  <path id="Path_275" data-name="Path 275" d="M20.088,204.341a8.371,8.371,0,1,1-15.613,0H0v9.631A5.134,5.134,0,0,0,5.128,219.1H19.434a5.134,5.134,0,0,0,5.128-5.128v-9.631Z" transform="translate(0 -194.538)" fill="#fff"/>
  <path id="Path_276" data-name="Path 276" d="M197.814,206.277a2.932,2.932,0,1,0,2.932,2.932A2.935,2.935,0,0,0,197.814,206.277Z" transform="translate(-185.533 -196.381)" fill="#fff"/>
  <path id="Path_277" data-name="Path 277" d="M118.446,122.909a6.932,6.932,0,1,0,6.932,6.932A6.932,6.932,0,0,0,118.446,122.909Zm4.371,6.932a4.371,4.371,0,1,1-4.371-4.371A4.376,4.376,0,0,1,122.817,129.841Z" transform="translate(-106.164 -117.013)" fill="#fff"/>
</svg>
