<svg xmlns="http://www.w3.org/2000/svg" width="30" height="30" viewBox="0 0 30 30">
  <g id="Personal-Care-icn" transform="translate(-3.459 -5.099)">
    <g id="Group_16627" data-name="Group 16627" transform="translate(3.459 5.099)">
      <g id="Group_16598" data-name="Group 16598" transform="translate(19.743 13.736)">
        <g id="Group_16597" data-name="Group 16597">
          <path id="Path_564" data-name="Path 564" d="M72.339,61.72h-4.05a5.148,5.148,0,0,1-1.6-.083,1.7,1.7,0,0,1-1.081-1.7c-.01-3.025,0-6.051,0-9.076,0-1.066-.261-2.57.816-3.191a3.292,3.292,0,0,1,1.665-.206h2.543c.561,0,1.126-.01,1.688,0a1.631,1.631,0,0,1,1.6,1.657c.019,1.109,0,2.218,0,3.327v7.166a2.425,2.425,0,0,1-.226,1.315,1.586,1.586,0,0,1-1.358.794c-.623.017-.623,1.013,0,1A2.628,2.628,0,0,0,74.891,60.2c.019-.335,0-.677,0-1.013V49.4a3.043,3.043,0,0,0-.578-1.973A2.754,2.754,0,0,0,72,46.464c-1.559,0-3.117-.007-4.676,0a2.609,2.609,0,0,0-2.443,1.524,3.8,3.8,0,0,0-.239,1.621v9.85a4.75,4.75,0,0,0,.116,1.418,2.611,2.611,0,0,0,2.5,1.843c1.536.013,3.072,0,4.608,0h.474A.5.5,0,0,0,72.339,61.72Z" transform="translate(-64.644 -46.461)" fill="#2c3d60"/>
        </g>
      </g>
      <g id="Group_16600" data-name="Group 16600" transform="translate(0 20.612)">
        <g id="Group_16599" data-name="Group 16599">
          <path id="Path_565" data-name="Path 565" d="M15.97,75.421H8.884c-.949,0-1.9.017-2.846,0a1.625,1.625,0,0,1-1.61-1.577c-.016-.5,0-1.01,0-1.511v-2.2a1.812,1.812,0,0,1,.862-1.77,2.268,2.268,0,0,1,1.126-.179h1.53c2.63,0,5.257-.01,7.886,0a1.651,1.651,0,0,1,1.526.84,3.478,3.478,0,0,1,.2,1.68V73.04a2.784,2.784,0,0,1-.31,1.724,1.608,1.608,0,0,1-1.278.658c-.623.017-.623,1.013,0,1a2.6,2.6,0,0,0,2.5-2.109,10.494,10.494,0,0,0,.052-1.856V70.108a2.865,2.865,0,0,0-.939-2.328c-.929-.77-2.178-.594-3.291-.594H9.41c-1.113,0-2.23-.01-3.343,0a2.589,2.589,0,0,0-2.249,1.288,3.941,3.941,0,0,0-.358,2.092V73.04a3.947,3.947,0,0,0,.358,2.092A2.6,2.6,0,0,0,6.067,76.42c.387,0,.771,0,1.158,0h8.748A.5.5,0,0,0,15.97,75.421Z" transform="translate(-3.459 -67.168)" fill="#2c3d60"/>
        </g>
      </g>
      <g id="Group_16602" data-name="Group 16602" transform="translate(22.046 17.418)">
        <g id="Group_16601" data-name="Group 16601">
          <path id="Path_566" data-name="Path 566" d="M77.13,65.141H72.264l.484.5V58.048l-.484.5H77.13l-.484-.5V65.64a.484.484,0,0,0,.968,0V58.048a.5.5,0,0,0-.484-.5H72.264a.5.5,0,0,0-.484.5V65.64a.5.5,0,0,0,.484.5H77.13A.5.5,0,0,0,77.13,65.141Z" transform="translate(-71.78 -57.55)" fill="#2c3d60"/>
        </g>
      </g>
      <g id="Group_16604" data-name="Group 16604" transform="translate(22.365 11.208)">
        <g id="Group_16603" data-name="Group 16603">
          <path id="Path_567" data-name="Path 567" d="M77.417,41.38H73.254l.484.5v-2.53l-.484.5h4.163l-.484-.5v2.53a.484.484,0,0,0,.968,0v-2.53a.5.5,0,0,0-.484-.5H73.254a.5.5,0,0,0-.484.5v2.53a.5.5,0,0,0,.484.5h4.163A.5.5,0,0,0,77.417,41.38Z" transform="translate(-72.77 -38.85)" fill="#2c3d60"/>
        </g>
      </g>
      <g id="Group_16606" data-name="Group 16606" transform="translate(1.414 17.398)">
        <g id="Group_16605" data-name="Group 16605">
          <path id="Path_568" data-name="Path 568" d="M19.531,60.717H8.324l.484.5a3.067,3.067,0,0,1,.3-1.6,2.2,2.2,0,0,1,1.568-1.089,11.954,11.954,0,0,1,1.759-.02c1.559,0,3.117-.03,4.676,0a1.956,1.956,0,0,1,1.723,1.079,3.489,3.489,0,0,1,.213,1.631.484.484,0,0,0,.968,0,5.054,5.054,0,0,0-.168-1.72,2.983,2.983,0,0,0-1.549-1.724,5.569,5.569,0,0,0-2.362-.262H12.609a12.412,12.412,0,0,0-2.194.056A3.175,3.175,0,0,0,8.324,59.02a3.993,3.993,0,0,0-.484,2.2.5.5,0,0,0,.484.5H19.531A.5.5,0,0,0,19.531,60.717Z" transform="translate(-7.84 -57.488)" fill="#2c3d60"/>
        </g>
      </g>
      <g id="Group_16608" data-name="Group 16608" transform="translate(22.682 7.031)">
        <g id="Group_16607" data-name="Group 16607">
          <path id="Path_569" data-name="Path 569" d="M77.793,29.182H74.234l.484.5V26.768l-.484.5h3.559l-.484-.5V29.68a.484.484,0,0,0,.968,0V26.768a.5.5,0,0,0-.484-.5H74.234a.5.5,0,0,0-.484.5V29.68a.5.5,0,0,0,.484.5h3.559A.5.5,0,0,0,77.793,29.182Z" transform="translate(-73.75 -26.27)" fill="#2c3d60"/>
        </g>
      </g>
      <g id="Group_16610" data-name="Group 16610" transform="translate(23.359 9.943)">
        <g id="Group_16609" data-name="Group 16609">
          <path id="Path_570" data-name="Path 570" d="M78.383,36.305H76.334l.484.5V35.538l-.484.5h2.049l-.484-.5V36.8a.484.484,0,1,0,.968,0V35.538a.5.5,0,0,0-.484-.5H76.334a.5.5,0,0,0-.484.5V36.8a.5.5,0,0,0,.484.5h2.049a.5.5,0,0,0,0-1Z" transform="translate(-75.85 -35.04)" fill="#2c3d60"/>
        </g>
      </g>
      <g id="Group_16612" data-name="Group 16612" transform="translate(20.292 8.485)">
        <g id="Group_16611" data-name="Group 16611">
          <path id="Path_571" data-name="Path 571" d="M67.242,33.011c.268-.538.532-1.073.8-1.611-.139.083-.278.166-.42.246h1.594a.5.5,0,0,0,0-1H67.623a.481.481,0,0,0-.419.246c-.268.538-.532,1.073-.8,1.611a.512.512,0,0,0,.174.681.484.484,0,0,0,.665-.176Z" transform="translate(-66.343 -30.65)" fill="#2c3d60"/>
        </g>
      </g>
      <g id="Group_16614" data-name="Group 16614" transform="translate(2.646 23.309)">
        <g id="Group_16613" data-name="Group 16613">
          <path id="Path_572" data-name="Path 572" d="M18.117,78.206H12.144l.484.5a2.439,2.439,0,0,1,1.52-2.265,3.719,3.719,0,0,1,1.378-.153h5.418l-.484-.5a2.4,2.4,0,0,1-2.343,2.418c-.623.013-.623,1.01,0,1a3.408,3.408,0,0,0,3.317-3.414.5.5,0,0,0-.484-.5H15.39a4.062,4.062,0,0,0-1.855.342A3.443,3.443,0,0,0,11.66,78.7a.5.5,0,0,0,.484.5h5.973A.5.5,0,0,0,18.117,78.206Z" transform="translate(-11.66 -75.29)" fill="#2c3d60"/>
        </g>
      </g>
      <g id="Group_16616" data-name="Group 16616" transform="translate(14.231 26.428)">
        <g id="Group_16615" data-name="Group 16615">
          <path id="Path_573" data-name="Path 573" d="M48.03,85.676h5.528a.5.5,0,0,0,0-1H48.03a.5.5,0,0,0,0,1Z" transform="translate(-47.562 -84.68)" fill="#2c3d60"/>
        </g>
      </g>
      <g id="Group_16618" data-name="Group 16618" transform="translate(14.113 23.658)">
        <g id="Group_16617" data-name="Group 16617">
          <path id="Path_574" data-name="Path 574" d="M47.665,77.336h5.647a.5.5,0,0,0,0-1H47.665a.5.5,0,0,0,0,1Z" transform="translate(-47.195 -76.34)" fill="#2c3d60"/>
        </g>
      </g>
      <g id="Group_16620" data-name="Group 16620" transform="translate(14.359 28.403)">
        <g id="Group_16619" data-name="Group 16619">
          <path id="Path_575" data-name="Path 575" d="M48.427,91.626h5.4a.5.5,0,0,0,0-1h-5.4a.5.5,0,0,0,0,1Z" transform="translate(-47.959 -90.63)" fill="#2c3d60"/>
        </g>
      </g>
      <g id="Group_16622" data-name="Group 16622" transform="translate(6.476 0)">
        <g id="Group_16621" data-name="Group 16621">
          <path id="Path_576" data-name="Path 576" d="M24.554,22.759q0-3.377-.01-6.755,0-4.06-.013-8.119a1.762,1.762,0,0,1,.52-1.391,1.778,1.778,0,0,1,1.278-.389H38.52c.219,0,.436,0,.655,0A1.578,1.578,0,0,1,40.7,7.763c.01,1.408,0,2.819,0,4.227v.432a.484.484,0,0,0,.968,0v-4.1a3.6,3.6,0,0,0-.394-2.036A2.541,2.541,0,0,0,39.11,5.109c-2.685-.023-5.373,0-8.057,0H26.845c-.261,0-.523-.007-.784,0a2.546,2.546,0,0,0-2.381,1.78,8.946,8.946,0,0,0-.116,2.594q0,2.391.006,4.782c0,2.78-.035,5.562.013,8.342v.149a.486.486,0,0,0,.971,0Z" transform="translate(-23.527 -5.099)" fill="#2c3d60"/>
        </g>
      </g>
      <g id="Group_16624" data-name="Group 16624" transform="translate(11.3 4.114)">
        <g id="Group_16623" data-name="Group 16623">
          <path id="Path_577" data-name="Path 577" d="M45.335,17.662q-2.957,3.915-5.915,7.827c-.278.369-.555.734-.833,1.1-.378.5.3,1.209.684.7q2.957-3.915,5.915-7.827c.278-.369.555-.734.833-1.1.378-.5-.3-1.209-.684-.7Z" transform="translate(-38.478 -17.489)" fill="#2c3d60"/>
        </g>
      </g>
      <g id="Group_16626" data-name="Group 16626" transform="translate(14.834 9.366)">
        <g id="Group_16625" data-name="Group 16625">
          <path id="Path_578" data-name="Path 578" d="M52.753,33.449q-1.4,1.8-2.8,3.61c-.129.169-.261.335-.39.5a.525.525,0,0,0,0,.7.477.477,0,0,0,.684,0q1.4-1.8,2.8-3.61c.129-.169.261-.335.39-.5a.525.525,0,0,0,0-.7.477.477,0,0,0-.684,0Z" transform="translate(-49.429 -33.304)" fill="#2c3d60"/>
        </g>
      </g>
    </g>
  </g>
</svg>
