<svg xmlns="http://www.w3.org/2000/svg" width="67.398" height="65.396" viewBox="0 0 67.398 65.396">
  <g id="Personal-Care-icn-big" transform="translate(1.74 0.098)">
    <g id="Group_16627" data-name="Group 16627" transform="translate(-1.541 0.099)">
      <g id="Group_16598" data-name="Group 16598" transform="translate(44.094 29.761)">
        <g id="Group_16597" data-name="Group 16597">
          <path id="Path_564" data-name="Path 564" d="M81.829,79.522H72.785a11.843,11.843,0,0,1-3.567-.18A3.67,3.67,0,0,1,66.8,75.651c-.022-6.555,0-13.11,0-19.664,0-2.31-.584-5.569,1.823-6.915,1.1-.619,2.5-.446,3.719-.446h5.679c1.254,0,2.515-.022,3.769,0a3.585,3.585,0,0,1,3.574,3.59c.043,2.4,0,4.806,0,7.21V74.953a5.116,5.116,0,0,1-.5,2.849,3.562,3.562,0,0,1-3.034,1.72,1.08,1.08,0,0,0,0,2.159,5.787,5.787,0,0,0,5.7-5.454c.043-.727.007-1.468.007-2.195v-21.2a6.454,6.454,0,0,0-1.29-4.274,6.242,6.242,0,0,0-5.167-2.094c-3.481,0-6.962-.014-10.442,0a5.845,5.845,0,0,0-5.455,3.3,8,8,0,0,0-.533,3.511V74.622a9.993,9.993,0,0,0,.259,3.072,5.815,5.815,0,0,0,5.578,3.993c3.43.029,6.861,0,10.291,0h1.059A1.084,1.084,0,0,0,81.829,79.522Z" transform="translate(-64.644 -46.461)" fill="teal" stroke="teal" stroke-width="0.4"/>
        </g>
      </g>
      <g id="Group_16600" data-name="Group 16600" transform="translate(0 44.659)">
        <g id="Group_16599" data-name="Group 16599">
          <path id="Path_565" data-name="Path 565" d="M31.4,85.049H15.574c-2.119,0-4.237.036-6.356,0a3.58,3.58,0,0,1-3.6-3.418c-.036-1.086,0-2.187,0-3.274v-4.77c0-1.576.4-3.051,1.924-3.835a5.2,5.2,0,0,1,2.515-.389h3.416c5.873,0,11.74-.022,17.613,0a3.714,3.714,0,0,1,3.409,1.82,7.326,7.326,0,0,1,.447,3.641V79.89c0,1.3.13,2.619-.692,3.734A3.628,3.628,0,0,1,31.4,85.049a1.08,1.08,0,0,0,0,2.159,5.768,5.768,0,0,0,5.585-4.569,22.062,22.062,0,0,0,.115-4.022v-5.08A6.115,6.115,0,0,0,35,68.493c-2.076-1.669-4.864-1.288-7.351-1.288h-10.9c-2.486,0-4.98-.022-7.466,0A5.818,5.818,0,0,0,4.26,70a8.316,8.316,0,0,0-.8,4.533v5.36a8.327,8.327,0,0,0,.8,4.533,5.836,5.836,0,0,0,5.023,2.792c.865.007,1.722,0,2.587,0H31.407A1.084,1.084,0,0,0,31.4,85.049Z" transform="translate(-3.459 -67.168)" fill="teal" stroke="teal" stroke-width="0.4"/>
        </g>
      </g>
      <g id="Group_16602" data-name="Group 16602" transform="translate(49.236 37.739)">
        <g id="Group_16601" data-name="Group 16601">
          <path id="Path_566" data-name="Path 566" d="M83.729,74H72.861l1.081,1.079V58.629l-1.081,1.079H83.729l-1.081-1.079V75.077a1.082,1.082,0,0,0,2.162,0V58.629a1.1,1.1,0,0,0-1.081-1.079H72.861a1.1,1.1,0,0,0-1.081,1.079V75.077a1.1,1.1,0,0,0,1.081,1.079H83.729A1.08,1.08,0,0,0,83.729,74Z" transform="translate(-71.78 -57.55)" fill="teal" stroke="teal" stroke-width="0.4"/>
        </g>
      </g>
      <g id="Group_16604" data-name="Group 16604" transform="translate(49.95 24.284)">
        <g id="Group_16603" data-name="Group 16603">
          <path id="Path_567" data-name="Path 567" d="M83.148,44.333h-9.3l1.081,1.079V39.929l-1.081,1.079h9.3l-1.081-1.079v5.483a1.082,1.082,0,0,0,2.162,0V39.929a1.1,1.1,0,0,0-1.081-1.079h-9.3a1.1,1.1,0,0,0-1.081,1.079v5.483a1.1,1.1,0,0,0,1.081,1.079h9.3A1.08,1.08,0,0,0,83.148,44.333Z" transform="translate(-72.77 -38.85)" fill="teal" stroke="teal" stroke-width="0.4"/>
        </g>
      </g>
      <g id="Group_16606" data-name="Group 16606" transform="translate(3.157 37.695)">
        <g id="Group_16605" data-name="Group 16605">
          <path id="Path_568" data-name="Path 568" d="M33.95,64.483H8.921L10,65.562a6.474,6.474,0,0,1,.663-3.468,4.92,4.92,0,0,1,3.5-2.36,27.519,27.519,0,0,1,3.928-.043c3.481,0,6.962-.065,10.442,0a4.382,4.382,0,0,1,3.848,2.338,7.352,7.352,0,0,1,.476,3.533,1.082,1.082,0,0,0,2.162,0,10.637,10.637,0,0,0-.375-3.727A6.536,6.536,0,0,0,31.189,58.1c-1.665-.734-3.5-.568-5.275-.568H18.491a28.569,28.569,0,0,0-4.9.122,7.094,7.094,0,0,0-4.67,3.151A8.438,8.438,0,0,0,7.84,65.57a1.1,1.1,0,0,0,1.081,1.079H33.95A1.084,1.084,0,0,0,33.95,64.483Z" transform="translate(-7.84 -57.488)" fill="teal" stroke="teal" stroke-width="0.4"/>
        </g>
      </g>
      <g id="Group_16608" data-name="Group 16608" transform="translate(50.656 15.233)">
        <g id="Group_16607" data-name="Group 16607">
          <path id="Path_569" data-name="Path 569" d="M82.78,32.58H74.831l1.081,1.079v-6.31l-1.081,1.079H82.78L81.7,27.349v6.31a1.082,1.082,0,0,0,2.162,0v-6.31A1.1,1.1,0,0,0,82.78,26.27H74.831a1.1,1.1,0,0,0-1.081,1.079v6.31a1.1,1.1,0,0,0,1.081,1.079H82.78A1.08,1.08,0,0,0,82.78,32.58Z" transform="translate(-73.75 -26.27)" fill="teal" stroke="teal" stroke-width="0.4"/>
        </g>
      </g>
      <g id="Group_16610" data-name="Group 16610" transform="translate(52.169 21.543)">
        <g id="Group_16609" data-name="Group 16609">
          <path id="Path_570" data-name="Path 570" d="M81.507,37.781H76.931l1.081,1.079V36.119L76.931,37.2h4.576l-1.081-1.079v2.741a1.081,1.081,0,0,0,2.162,0V36.119a1.1,1.1,0,0,0-1.081-1.079H76.931a1.1,1.1,0,0,0-1.081,1.079v2.741a1.1,1.1,0,0,0,1.081,1.079h4.576a1.079,1.079,0,1,0,0-2.159Z" transform="translate(-75.85 -35.04)" fill="teal" stroke="teal" stroke-width="0.4"/>
        </g>
      </g>
      <g id="Group_16612" data-name="Group 16612" transform="translate(45.318 18.384)">
        <g id="Group_16611" data-name="Group 16611">
          <path id="Path_571" data-name="Path 571" d="M68.352,35.766c.6-1.166,1.189-2.324,1.787-3.49-.31.18-.62.36-.937.532h3.56a1.079,1.079,0,1,0,0-2.159H69.2a1.08,1.08,0,0,0-.937.532c-.6,1.166-1.189,2.324-1.787,3.49a1.085,1.085,0,0,0,1.874,1.094Z" transform="translate(-66.343 -30.65)" fill="teal" stroke="teal" stroke-width="0.4"/>
        </g>
      </g>
      <g id="Group_16614" data-name="Group 16614" transform="translate(5.91 50.503)">
        <g id="Group_16613" data-name="Group 16613">
          <path id="Path_572" data-name="Path 572" d="M26.08,81.607H12.741l1.081,1.079a5.286,5.286,0,0,1,3.394-4.907,8.548,8.548,0,0,1,3.077-.331h12.1l-1.081-1.079a5.287,5.287,0,0,1-5.232,5.238,1.08,1.08,0,0,0,0,2.159,7.494,7.494,0,0,0,7.408-7.4,1.1,1.1,0,0,0-1.081-1.079H19.991a9.316,9.316,0,0,0-4.144.741,7.437,7.437,0,0,0-4.187,6.655,1.1,1.1,0,0,0,1.081,1.079H26.08A1.08,1.08,0,0,0,26.08,81.607Z" transform="translate(-11.66 -75.29)" fill="teal" stroke="teal" stroke-width="0.4"/>
        </g>
      </g>
      <g id="Group_16616" data-name="Group 16616" transform="translate(31.783 57.26)">
        <g id="Group_16615" data-name="Group 16615">
          <path id="Path_573" data-name="Path 573" d="M48.606,86.839H60.951a1.08,1.08,0,0,0,0-2.159H48.606a1.08,1.08,0,0,0,0,2.159Z" transform="translate(-47.563 -84.68)" fill="teal" stroke="teal" stroke-width="0.4"/>
        </g>
      </g>
      <g id="Group_16618" data-name="Group 16618" transform="translate(31.519 51.259)">
        <g id="Group_16617" data-name="Group 16617">
          <path id="Path_574" data-name="Path 574" d="M48.244,78.5H60.855a1.08,1.08,0,0,0,0-2.159H48.244a1.08,1.08,0,0,0,0,2.159Z" transform="translate(-47.195 -76.34)" fill="teal" stroke="teal" stroke-width="0.4"/>
        </g>
      </g>
      <g id="Group_16620" data-name="Group 16620" transform="translate(32.069 61.541)">
        <g id="Group_16619" data-name="Group 16619">
          <path id="Path_575" data-name="Path 575" d="M49,92.789H61.068a1.08,1.08,0,0,0,0-2.159H49a1.08,1.08,0,0,0,0,2.159Z" transform="translate(-47.959 -90.63)" fill="teal" stroke="teal" stroke-width="0.4"/>
        </g>
      </g>
      <g id="Group_16622" data-name="Group 16622" transform="translate(14.462 0)">
        <g id="Group_16621" data-name="Group 16621">
          <path id="Path_576" data-name="Path 576" d="M25.821,43.363q-.011-7.317-.022-14.635-.011-8.8-.029-17.592a3.754,3.754,0,0,1,1.16-3.015,4.055,4.055,0,0,1,2.854-.842H57.011c.49,0,.973-.007,1.463,0a3.462,3.462,0,0,1,3.4,3.59c.022,3.051,0,6.109,0,9.159v.935a1.082,1.082,0,0,0,2.162,0V12.086a7.612,7.612,0,0,0-.879-4.411A5.719,5.719,0,0,0,58.33,5.121c-6-.05-12,0-17.995,0h-9.4c-.584,0-1.167-.014-1.751,0a5.667,5.667,0,0,0-5.318,3.857c-.562,1.691-.259,3.878-.259,5.619q.011,5.18.014,10.361c.007,6.022-.079,12.052.029,18.074v.324a1.085,1.085,0,0,0,2.169.007Z" transform="translate(-23.527 -5.099)" fill="teal" stroke="teal" stroke-width="0.4"/>
        </g>
      </g>
      <g id="Group_16624" data-name="Group 16624" transform="translate(25.236 8.915)">
        <g id="Group_16623" data-name="Group 16623">
          <path id="Path_577" data-name="Path 577" d="M53.793,17.864q-6.6,8.483-13.21,16.959c-.62.8-1.24,1.59-1.859,2.389-.843,1.086.677,2.619,1.528,1.525q6.6-8.483,13.21-16.959c.62-.8,1.24-1.59,1.859-2.389.843-1.079-.677-2.619-1.528-1.525Z" transform="translate(-38.478 -17.489)" fill="teal" stroke="teal" stroke-width="0.4"/>
        </g>
      </g>
      <g id="Group_16626" data-name="Group 16626" transform="translate(33.128 20.294)">
        <g id="Group_16625" data-name="Group 16625">
          <path id="Path_578" data-name="Path 578" d="M56.852,33.618q-3.124,3.907-6.248,7.821c-.288.367-.584.727-.872,1.094a1.112,1.112,0,0,0,0,1.525,1.089,1.089,0,0,0,1.528,0q3.124-3.907,6.248-7.821c.288-.367.584-.727.872-1.094a1.112,1.112,0,0,0,0-1.525,1.089,1.089,0,0,0-1.528,0Z" transform="translate(-49.429 -33.304)" fill="teal" stroke="teal" stroke-width="0.4"/>
        </g>
      </g>
    </g>
  </g>
</svg>
