<svg xmlns="http://www.w3.org/2000/svg" width="58.458" height="70.555" viewBox="0 0 58.458 70.555">
  <g id="Snacks-_-Branded-Foods-icn-big" data-name="Snacks-&amp;-Branded-Foods-icn-big" transform="translate(-11.5 -3.439)">
    <g id="Group_16569" data-name="Group 16569" transform="translate(11.746 3.744)">
      <g id="Group_16550" data-name="Group 16550" transform="translate(15.249 49.717)">
        <g id="Group_16549" data-name="Group 16549" transform="translate(0 0)">
          <path id="Path_542" data-name="Path 542" d="M53.241,89.856c9.549-.06,19.372-6.14,21.107-16,.189-1.08.576-2.553-.182-3.482a2.19,2.19,0,0,0-1.652-.748c-.44-.023-.894,0-1.334,0H36.5c-1.258,0-3.3-.34-4.184.748-.758.921-.371,2.409-.182,3.482a16.728,16.728,0,0,0,.932,3.263,18.949,18.949,0,0,0,3.668,5.793,21.88,21.88,0,0,0,12.6,6.623,27.035,27.035,0,0,0,3.9.325,1.133,1.133,0,0,0,0-2.266c-8.678-.053-17.545-5.566-18.955-14.584-.023-.136-.129-1.42-.144-1.42-.061-.008-.235.249-.2.295s.326,0,.364,0H71.423c.121,0,1.016.106,1.1,0,.114-.143-.144.838-.083-.151.03-.491-.144.128-.136.1a1.5,1.5,0,0,0-.03.37c-.023.264-.053.536-.1.8a15.739,15.739,0,0,1-.8,3.051A15.957,15.957,0,0,1,68.111,81.3a19.93,19.93,0,0,1-11.33,6,21.676,21.676,0,0,1-3.57.287A1.138,1.138,0,0,0,53.241,89.856Z" transform="translate(-31.866 -69.573)" fill="teal" stroke="teal" stroke-width="0.5"/>
        </g>
      </g>
      <g id="Group_16552" data-name="Group 16552" transform="translate(25.634 40.382)">
        <g id="Group_16551" data-name="Group 16551">
          <path id="Path_543" data-name="Path 543" d="M47.495,68.139l7.033-7.575a6.9,6.9,0,0,1,.872-.944c.455-.325.72.144,1.008.468C57.7,61.553,59,63.011,60.3,64.476c1.084,1.216,2.16,2.439,3.244,3.655.97,1.1,2.577-.514,1.607-1.6q-3.558-4.01-7.109-8.013a3.275,3.275,0,0,0-1.917-1.269,2.839,2.839,0,0,0-2.6,1.057c-1.326,1.427-2.653,2.862-3.986,4.29q-1.83,1.971-3.661,3.935c-.978,1.072.629,2.681,1.622,1.609Z" transform="translate(-45.569 -57.214)" fill="teal" stroke="teal" stroke-width="0.5"/>
        </g>
      </g>
      <g id="Group_16554" data-name="Group 16554" transform="translate(41.835 42.896)">
        <g id="Group_16553" data-name="Group 16553">
          <path id="Path_544" data-name="Path 544" d="M68.882,68.954q2.24-2.7,4.487-5.392c.2-.249.44-.619.743-.733.477-.189.819.106,1.107.461.773.952,1.523,1.918,2.289,2.877.735.929,1.478,1.858,2.213,2.787a1.139,1.139,0,0,0,1.607,0,1.158,1.158,0,0,0,0-1.6c-1.5-1.888-2.986-3.8-4.509-5.664a3.116,3.116,0,0,0-4.76-.083c-.819.929-1.584,1.9-2.372,2.855-.8.967-1.614,1.933-2.418,2.9a1.158,1.158,0,0,0,0,1.6,1.17,1.17,0,0,0,1.614-.008Z" transform="translate(-66.946 -60.542)" fill="teal" stroke="teal" stroke-width="0.5"/>
        </g>
      </g>
      <g id="Group_16556" data-name="Group 16556" transform="translate(17.113 42.892)">
        <g id="Group_16555" data-name="Group 16555">
          <path id="Path_545" data-name="Path 545" d="M36.262,68.953c1.243-1.488,2.486-2.983,3.721-4.471.3-.363.606-.725.909-1.1a2.392,2.392,0,0,0,.22-.264c.015-.023.038-.045.053-.068-.167.181.045-.015.174-.083.523-.264.773-.287,1.129.151.265.325.523.657.781.982.675.853,1.357,1.707,2.031,2.56a1.139,1.139,0,0,0,1.607,0,1.158,1.158,0,0,0,0-1.6c-.629-.785-1.251-1.578-1.88-2.364-.834-1.05-1.592-2.22-3.138-2.16a3.611,3.611,0,0,0-2.342.952c-.22.227-.417.5-.621.748-.826.989-1.645,1.979-2.471,2.968-.6.717-1.19,1.435-1.789,2.152a1.158,1.158,0,0,0,0,1.6,1.17,1.17,0,0,0,1.614-.008Z" transform="translate(-34.326 -60.537)" fill="teal" stroke="teal" stroke-width="0.5"/>
        </g>
      </g>
      <g id="Group_16558" data-name="Group 16558" transform="translate(0 0)">
        <g id="Group_16557" data-name="Group 16557">
          <path id="Path_546" data-name="Path 546" d="M57.639,51.676V20.756a15.747,15.747,0,0,0,0-2.674c-.008-.038.023-.121,0-.159.038.06-.3.7-.114.476a1.911,1.911,0,0,0,.167-.385c.409-.952.819-1.9,1.228-2.847a11.568,11.568,0,0,0,.978-2.379,12.3,12.3,0,0,0,.023-2.047V4.9a1.148,1.148,0,0,0-1.713-.982L54.843,6.369c.462.06.917.121,1.379.174L53.721,4.1a1.168,1.168,0,0,0-1.607,0l-2.8,2.447c.462-.06.917-.121,1.379-.174L47.332,3.922a1.162,1.162,0,0,0-1.379.174c-.9.816-1.811,1.631-2.713,2.447h1.607c-1.053-.816-2.1-1.631-3.153-2.447a1.184,1.184,0,0,0-1.607,0l-2.8,2.447H38.9c-.864-.816-1.72-1.631-2.584-2.447a1.161,1.161,0,0,0-1.607,0c-.887.861-1.773,1.714-2.66,2.575h1.607C32.6,5.81,31.545,4.957,30.5,4.1a1.184,1.184,0,0,0-1.607,0L26.05,6.543h1.607L25.2,4.1a1.15,1.15,0,0,0-1.379-.174C22.7,4.783,21.579,5.637,20.457,6.5c.462.06.917.121,1.379.174-.9-.861-1.811-1.714-2.713-2.575a1.161,1.161,0,0,0-1.607,0c-.864.816-1.72,1.631-2.584,2.447h1.607L13.7,4.1a1.152,1.152,0,0,0-1.94.8v7.129a5.73,5.73,0,0,0,.417,2.183c.258.71.515,1.412.773,2.122.1.264.182.529.288.785.114.279.076.4.076.015q-.011,4.928-.03,9.848-.034,9.278-.061,18.549c-.015,3.927-.189,7.892-.038,11.812,0,.076-.008.159,0,.234-.015-.257.076-.37-.023-.06-.083.242-.136.5-.2.748-.364,1.314-.765,2.621-1.084,3.942a10.1,10.1,0,0,0-.106,2.394v5.309c0,.778,1,1.526,1.713.982L16.971,68.2c-.462-.06-.917-.121-1.379-.174.9.9,1.811,1.79,2.713,2.689a1.148,1.148,0,0,0,1.379.174c1.251-.9,2.5-1.79,3.752-2.689-.462-.06-.917-.121-1.379-.174.819.9,1.637,1.79,2.456,2.689a1.168,1.168,0,0,0,1.607,0l3.752-2.923H28.263q1.489,1.461,2.971,2.923a1.15,1.15,0,0,0,1.379.174c.872-.619,1.751-1.231,2.622-1.85,1.182-.838.053-2.8-1.144-1.956-.872.619-1.751,1.231-2.622,1.85.462.06.917.121,1.379.174q-1.489-1.461-2.971-2.923a1.176,1.176,0,0,0-1.607,0l-3.752,2.923h1.607c-.819-.9-1.637-1.79-2.456-2.689a1.137,1.137,0,0,0-1.379-.174c-1.251.9-2.5,1.79-3.752,2.689.462.06.917.121,1.379.174-.9-.9-1.811-1.79-2.713-2.689a1.15,1.15,0,0,0-1.379-.174l-3.494,2.689c.568.325,1.137.65,1.713.982,0-2.3.152-4.652,0-6.948-.023-.287.053-.181-.038.068.045-.128.076-.272.114-.408.182-.657.364-1.322.546-1.979a17.323,17.323,0,0,0,.8-3.059c.076-.959.008-1.956.008-2.923.008-2.311.015-4.615.023-6.926q.034-9.278.061-18.549c.015-3.935.129-7.885.038-11.812a4.219,4.219,0,0,0-.333-1.344c-.258-.7-.515-1.4-.765-2.107-.106-.287-.212-.582-.318-.869-.023-.068-.235-.672-.152-.325.068.287.015.023.015-.083.008-.2,0-.415,0-.627V4.9c-.644.264-1.3.536-1.94.8l2.842,2.447a1.168,1.168,0,0,0,1.607,0c.864-.816,1.72-1.631,2.584-2.447H17.532c.9.861,1.811,1.714,2.713,2.575a1.15,1.15,0,0,0,1.379.174c1.122-.861,2.243-1.714,3.365-2.575-.462-.06-.917-.121-1.379-.174l2.456,2.447a1.168,1.168,0,0,0,1.607,0L30.514,5.7H28.908c1.053.861,2.107,1.714,3.153,2.575a1.168,1.168,0,0,0,1.607,0c.887-.861,1.773-1.714,2.66-2.575H34.721c.864.816,1.72,1.631,2.584,2.447a1.168,1.168,0,0,0,1.607,0l2.8-2.447H40.1c1.053.816,2.1,1.631,3.153,2.447a1.176,1.176,0,0,0,1.607,0c.887-.8,1.789-1.616,2.7-2.432-.462.06-.917.121-1.379.174l3.365,2.447a1.162,1.162,0,0,0,1.379-.174l2.8-2.447H52.114l2.5,2.447a1.15,1.15,0,0,0,1.379.174L59.36,5.886c-.568-.325-1.137-.65-1.713-.982V9.873a23.2,23.2,0,0,0,0,2.515c.008.045-.03.174,0,.211.008.008.243-.657.129-.483a7.2,7.2,0,0,0-.417.959c-.424.982-.841,1.956-1.266,2.938a7.316,7.316,0,0,0-.728,1.9c-.061.612,0,1.261,0,1.873V51.661a1.138,1.138,0,0,0,2.274.015Z" transform="translate(-11.746 -3.744)" fill="teal" stroke="teal" stroke-width="0.5"/>
        </g>
      </g>
      <g id="Group_16560" data-name="Group 16560" transform="translate(0.04 7.761)">
        <g id="Group_16559" data-name="Group 16559">
          <path id="Path_547" data-name="Path 547" d="M12.9,16.542l15.506-.091,24.715-.136c1.895-.008,3.782-.023,5.677-.03a1.133,1.133,0,0,0,0-2.266l-15.506.091-24.715.136c-1.895.008-3.782.023-5.677.03a1.133,1.133,0,0,0,0,2.266Z" transform="translate(-11.799 -14.02)" fill="teal" stroke="teal" stroke-width="0.5"/>
        </g>
      </g>
      <g id="Group_16562" data-name="Group 16562" transform="translate(0.611 56.957)">
        <g id="Group_16561" data-name="Group 16561">
          <path id="Path_548" data-name="Path 548" d="M13.65,81.426H29.6a1.133,1.133,0,0,0,0-2.266H13.65a1.133,1.133,0,0,0,0,2.266Z" transform="translate(-12.552 -79.16)" fill="teal" stroke="teal" stroke-width="0.5"/>
        </g>
      </g>
      <g id="Group_16564" data-name="Group 16564" transform="translate(9.443 20.551)">
        <g id="Group_16563" data-name="Group 16563">
          <path id="Path_549" data-name="Path 549" d="M26.521,48.994v-8.27c0-.8-.008-1.609,0-2.409,0-.068.008-.136.008-.2,0-.332-.076.174.023-.159a2.5,2.5,0,0,1,.379-.974,3.1,3.1,0,0,1,1.008-.921,5.726,5.726,0,0,1,2.221-.657,26.1,26.1,0,0,1,4.411.181,86.391,86.391,0,0,0,9.277.06,33.286,33.286,0,0,0,6.109-.763c1.41-.347,3.069-.906,3.842-2.228-.7-.189-1.41-.378-2.122-.574V39.41c0,1.186-.045,2.379,0,3.565.023.589.159-.363.114-.234-.068.2-.083.113.015.008a4,4,0,0,1-.311.31c.015-.015.106-.06-.068.053l-.25.159a3.7,3.7,0,0,1-.621.287,9.082,9.082,0,0,1-2.327.461,18.8,18.8,0,0,1-4.418-.159,36.707,36.707,0,0,0-8.291-.43c-4.153.287-8.572,1.435-11.1,4.992-.849,1.193,1.122,2.326,1.963,1.14,2.069-2.908,6.1-3.693,9.443-3.889a36.981,36.981,0,0,1,7.64.408c2.857.461,6.844.657,9.33-1.171a2.544,2.544,0,0,0,1.175-1.684c.083-.823,0-1.707,0-2.538V32.069a1.15,1.15,0,0,0-2.122-.574c-.1.174-.053.091-.061.1a2.351,2.351,0,0,1-.243.234c.152-.128-.167.106-.212.128-.136.076-.28.159-.424.227a10.58,10.58,0,0,1-1.933.589,32.518,32.518,0,0,1-5.4.6,87.551,87.551,0,0,1-9.125-.083c-3.054-.174-6.821-.71-9.042,1.956a6.034,6.034,0,0,0-1.137,4.244v9.478A1.13,1.13,0,0,0,26.521,48.994Z" transform="translate(-24.206 -30.955)" fill="teal" stroke="teal" stroke-width="0.5"/>
        </g>
      </g>
      <g id="Group_16566" data-name="Group 16566" transform="translate(15.741 17.913)">
        <g id="Group_16565" data-name="Group 16565">
          <path id="Path_550" data-name="Path 550" d="M34.633,33.563a5.89,5.89,0,0,1,.909-1.254,7.748,7.748,0,0,1,2.88-2.122,7.338,7.338,0,0,1,2.706-.461c.136,0,.28.008.417.015l.258.023c.182.015-.129-.03.136.023a7.016,7.016,0,0,1,1.478.408,7.535,7.535,0,0,1,3.554,3.376,1.136,1.136,0,0,0,1.963-1.14,9,9,0,0,0-14.559-2.19,9.96,9.96,0,0,0-1.713,2.183c-.7,1.276,1.266,2.417,1.971,1.14Z" transform="translate(-32.515 -27.463)" fill="teal" stroke="teal" stroke-width="0.5"/>
        </g>
      </g>
      <g id="Group_16568" data-name="Group 16568" transform="translate(15.772 33.743)">
        <g id="Group_16567" data-name="Group 16567">
          <path id="Path_551" data-name="Path 551" d="M47.868,49A7.131,7.131,0,0,1,44.6,52.5a6.932,6.932,0,0,1-1.6.514c-.114.023-.227.045-.341.06-.136.023.008,0,.03-.008l-.2.023c-.2.015-.409.03-.614.03a7.725,7.725,0,0,1-6.1-2.447,5.7,5.7,0,0,1-.819-1.118c-.106-.181-.212-.363-.3-.559a1.143,1.143,0,0,0-1.554-.408,1.161,1.161,0,0,0-.409,1.548c2.046,4.592,8.193,6.427,12.657,4.494a9.087,9.087,0,0,0,4.494-4.494C50.46,48.844,48.5,47.688,47.868,49Z" transform="translate(-32.556 -48.422)" fill="teal" stroke="teal" stroke-width="0.5"/>
        </g>
      </g>
      <ellipse id="Ellipse_14" data-name="Ellipse 14" cx="0.659" cy="0.657" rx="0.659" ry="0.657" transform="translate(34.267 45.349)" fill="teal" stroke="teal" stroke-width="0.5"/>
      <ellipse id="Ellipse_15" data-name="Ellipse 15" cx="0.659" cy="0.657" rx="0.659" ry="0.657" transform="translate(25.438 46.006)" fill="teal" stroke="teal" stroke-width="0.5"/>
      <ellipse id="Ellipse_16" data-name="Ellipse 16" cx="0.659" cy="0.657" rx="0.659" ry="0.657" transform="translate(38.049 47.358)" fill="teal" stroke="teal" stroke-width="0.5"/>
      <ellipse id="Ellipse_17" data-name="Ellipse 17" cx="0.659" cy="0.657" rx="0.659" ry="0.657" transform="translate(22.24 48.672)" fill="teal" stroke="teal" stroke-width="0.5"/>
      <ellipse id="Ellipse_18" data-name="Ellipse 18" cx="0.659" cy="0.657" rx="0.659" ry="0.657" transform="translate(32.949 48.672)" fill="teal" stroke="teal" stroke-width="0.5"/>
      <ellipse id="Ellipse_19" data-name="Ellipse 19" cx="0.659" cy="0.657" rx="0.659" ry="0.657" transform="translate(49.895 46.006)" fill="teal" stroke="teal" stroke-width="0.5"/>
      <ellipse id="Ellipse_20" data-name="Ellipse 20" cx="0.659" cy="0.657" rx="0.659" ry="0.657" transform="translate(47.553 48.672)" fill="teal" stroke="teal" stroke-width="0.5"/>
    </g>
  </g>
</svg>
