<svg xmlns="http://www.w3.org/2000/svg" width="30" height="30" viewBox="0 0 30 30">
  <g id="Snacks-_-Branded-Foods-icn" data-name="Snacks-&amp;-Branded-Foods-icn" transform="translate(-11.746 -3.744)">
    <g id="Group_16569" data-name="Group 16569" transform="translate(11.746 3.744)">
      <g id="Group_16550" data-name="Group 16550" transform="translate(7.887 21.307)">
        <g id="Group_16549" data-name="Group 16549" transform="translate(0 0)">
          <path id="Path_542" data-name="Path 542" d="M42.922,78.266c4.939-.026,10.02-2.631,10.918-6.859.1-.463.3-1.094-.094-1.492a1.245,1.245,0,0,0-.855-.32c-.227-.01-.463,0-.69,0H34.263c-.651,0-1.705-.146-2.164.32-.392.395-.192,1.033-.094,1.492a6.256,6.256,0,0,0,.482,1.4,8.1,8.1,0,0,0,1.9,2.483A12.216,12.216,0,0,0,40.9,78.127a16.813,16.813,0,0,0,2.019.139.491.491,0,1,0,0-.971c-4.489-.023-9.075-2.385-9.8-6.25-.012-.058-.067-.608-.074-.608-.031,0-.122.107-.1.126a.732.732,0,0,0,.188,0h19.2a2.383,2.383,0,0,0,.568,0c.059-.061-.074.359-.043-.065.016-.21-.074.055-.071.042a.534.534,0,0,0-.016.159,3.446,3.446,0,0,1-.051.343,5.844,5.844,0,0,1-.416,1.308,6.786,6.786,0,0,1-1.686,2.25,11.115,11.115,0,0,1-5.861,2.57,13.483,13.483,0,0,1-1.846.123A.492.492,0,1,0,42.922,78.266Z" transform="translate(-31.866 -69.573)" fill="#2c3d60"/>
        </g>
      </g>
      <g id="Group_16552" data-name="Group 16552" transform="translate(13.259 17.307)">
        <g id="Group_16551" data-name="Group 16551">
          <path id="Path_543" data-name="Path 543" d="M46.565,61.9,50.2,58.65a3.259,3.259,0,0,1,.451-.4c.235-.139.372.061.521.2.67.628,1.341,1.253,2.011,1.881.561.521,1.117,1.045,1.678,1.567.5.469,1.333-.22.831-.686q-1.84-1.719-3.677-3.434a1.748,1.748,0,0,0-.992-.544,1.627,1.627,0,0,0-1.345.453q-1.029.918-2.062,1.838-.947.845-1.893,1.686c-.506.46.325,1.149.839.689Z" transform="translate(-45.569 -57.214)" fill="#2c3d60"/>
        </g>
      </g>
      <g id="Group_16554" data-name="Group 16554" transform="translate(21.639 18.384)">
        <g id="Group_16553" data-name="Group 16553">
          <path id="Path_544" data-name="Path 544" d="M67.947,64.147c.772-.77,1.548-1.541,2.321-2.311a1.075,1.075,0,0,1,.384-.314.531.531,0,0,1,.572.2c.4.408.788.822,1.184,1.233.38.4.764.8,1.145,1.194a.679.679,0,0,0,.831,0,.437.437,0,0,0,0-.686c-.776-.809-1.545-1.628-2.332-2.428A1.837,1.837,0,0,0,69.589,61c-.423.4-.819.816-1.227,1.223s-.835.829-1.251,1.243a.437.437,0,0,0,0,.686.7.7,0,0,0,.835,0Z" transform="translate(-66.946 -60.542)" fill="#2c3d60"/>
        </g>
      </g>
      <g id="Group_16556" data-name="Group 16556" transform="translate(8.852 18.382)">
        <g id="Group_16555" data-name="Group 16555">
          <path id="Path_545" data-name="Path 545" d="M35.327,64.144c.643-.638,1.286-1.278,1.925-1.916.157-.155.314-.311.47-.469a1.1,1.1,0,0,0,.114-.113c.008-.01.02-.019.027-.029-.086.078.024-.006.09-.036.27-.113.4-.123.584.065.137.139.271.282.4.421.349.366.7.731,1.051,1.1a.679.679,0,0,0,.831,0,.437.437,0,0,0,0-.686c-.325-.337-.647-.676-.972-1.013a2.063,2.063,0,0,0-1.623-.926,2.088,2.088,0,0,0-1.211.408c-.114.1-.216.214-.321.32-.427.424-.851.848-1.278,1.272-.31.307-.615.615-.925.922a.437.437,0,0,0,0,.686.7.7,0,0,0,.835,0Z" transform="translate(-34.326 -60.537)" fill="#2c3d60"/>
        </g>
      </g>
      <g id="Group_16558" data-name="Group 16558" transform="translate(0 0)">
        <g id="Group_16557" data-name="Group 16557">
          <path id="Path_546" data-name="Path 546" d="M35.484,24.286V11.035a5.6,5.6,0,0,0,0-1.146c0-.016.012-.052,0-.068.02.026-.153.3-.059.2a.754.754,0,0,0,.086-.165c.212-.408.423-.812.635-1.22a4.524,4.524,0,0,0,.506-1.02,4.37,4.37,0,0,0,.012-.877v-2.5a.6.6,0,0,0-.886-.421L34.037,4.869c.239.026.474.052.713.074L33.457,3.895a.7.7,0,0,0-.831,0L31.18,4.943c.239-.026.474-.052.713-.074L30.153,3.82a.7.7,0,0,0-.713.074l-1.4,1.049h.831L27.236,3.895a.708.708,0,0,0-.831,0L24.958,4.943h.831c-.447-.35-.89-.7-1.337-1.049a.693.693,0,0,0-.831,0c-.459.369-.917.735-1.376,1.1h.831c-.545-.369-1.09-.735-1.631-1.1a.708.708,0,0,0-.831,0l-1.47,1.049h.831l-1.27-1.049a.69.69,0,0,0-.713-.074c-.58.369-1.16.735-1.741,1.1.239.026.474.052.713.074-.466-.369-.937-.735-1.4-1.1a.693.693,0,0,0-.831,0c-.447.35-.89.7-1.337,1.049h.831l-1.47-1.049c-.372-.265-1-.1-1,.343V7.293a2.092,2.092,0,0,0,.216.935c.133.3.267.605.4.91.051.113.094.227.149.337s.039.172.039.006c0,1.408-.012,2.813-.016,4.221q-.018,3.976-.031,7.949c-.008,1.683-.1,3.382-.02,5.062a.857.857,0,0,0,0,.1c-.008-.11.039-.159-.012-.026-.043.1-.071.214-.106.32-.188.563-.4,1.123-.561,1.69a3.6,3.6,0,0,0-.055,1.026V32.1a.6.6,0,0,0,.886.421l1.807-1.152c-.239-.026-.474-.052-.713-.074.466.385.937.767,1.4,1.152a.689.689,0,0,0,.713.074c.647-.385,1.294-.767,1.94-1.152-.239-.026-.474-.052-.713-.074.423.385.847.767,1.27,1.152a.7.7,0,0,0,.831,0l1.94-1.253h-.831q.77.626,1.537,1.253a.69.69,0,0,0,.713.074c.451-.265.906-.528,1.356-.793.612-.359.027-1.2-.592-.838-.451.265-.906.528-1.356.793.239.026.474.052.713.074q-.77-.626-1.537-1.253a.7.7,0,0,0-.831,0l-1.94,1.253h.831c-.423-.385-.847-.767-1.27-1.152a.682.682,0,0,0-.713-.074c-.647.385-1.294.767-1.94,1.152.239.026.474.052.713.074-.466-.385-.937-.767-1.4-1.152a.69.69,0,0,0-.713-.074l-1.807,1.152.886.421c0-.987.078-1.994,0-2.978-.012-.123.027-.078-.02.029.024-.055.039-.117.059-.175.094-.282.188-.566.282-.848a6.43,6.43,0,0,0,.416-1.311c.039-.411,0-.838,0-1.253l.012-2.968q.018-3.976.031-7.949c.008-1.686.067-3.379.02-5.062a1.562,1.562,0,0,0-.172-.576c-.133-.3-.267-.6-.4-.9-.055-.123-.11-.249-.165-.372-.012-.029-.122-.288-.078-.139.035.123.008.01.008-.036,0-.087,0-.178,0-.269V4.238l-1,.343L13.4,5.63a.7.7,0,0,0,.831,0c.447-.35.89-.7,1.337-1.049h-.831c.466.369.937.735,1.4,1.1a.69.69,0,0,0,.713.074c.58-.369,1.16-.735,1.741-1.1-.239-.026-.474-.052-.713-.074l1.27,1.049a.7.7,0,0,0,.831,0l1.47-1.049h-.831c.545.369,1.09.735,1.631,1.1a.7.7,0,0,0,.831,0c.459-.369.917-.735,1.376-1.1h-.831c.447.35.89.7,1.337,1.049a.7.7,0,0,0,.831,0l1.447-1.049h-.831L28.043,5.63a.7.7,0,0,0,.831,0c.459-.343.925-.693,1.4-1.042-.239.026-.474.052-.713.074L31.3,5.711a.7.7,0,0,0,.713-.074l1.447-1.049h-.831L33.92,5.636a.69.69,0,0,0,.713.074l1.741-1.049-.886-.421v2.13a8.241,8.241,0,0,0,0,1.078c0,.019-.016.074,0,.091s.125-.282.067-.207a2.84,2.84,0,0,0-.216.411c-.22.421-.435.838-.655,1.259a2.833,2.833,0,0,0-.376.812,6.854,6.854,0,0,0,0,.8V24.28c0,.631,1.176.631,1.176.006Z" transform="translate(-11.746 -3.744)" fill="#2c3d60"/>
        </g>
      </g>
      <g id="Group_16560" data-name="Group 16560" transform="translate(0.021 3.326)">
        <g id="Group_16559" data-name="Group 16559">
          <path id="Path_547" data-name="Path 547" d="M12.368,15.1l8.021-.039L33.172,15c.98,0,1.956-.01,2.936-.013a.491.491,0,1,0,0-.971l-8.021.039L15.3,14.117c-.98,0-1.956.01-2.936.013a.492.492,0,1,0,0,.971Z" transform="translate(-11.799 -14.02)" fill="#2c3d60"/>
        </g>
      </g>
      <g id="Group_16562" data-name="Group 16562" transform="translate(0.316 24.41)">
        <g id="Group_16561" data-name="Group 16561">
          <path id="Path_548" data-name="Path 548" d="M13.12,80.131h8.248a.491.491,0,1,0,0-.971H13.12a.491.491,0,1,0,0,.971Z" transform="translate(-12.552 -79.16)" fill="#2c3d60"/>
        </g>
      </g>
      <g id="Group_16564" data-name="Group 16564" transform="translate(4.884 8.807)">
        <g id="Group_16563" data-name="Group 16563">
          <path id="Path_549" data-name="Path 549" d="M25.4,38.686V35.141c0-.343,0-.689,0-1.033,0-.029,0-.058,0-.087,0-.142-.039.074.012-.068a.973.973,0,0,1,.2-.418,1.526,1.526,0,0,1,.521-.395,3.429,3.429,0,0,1,1.149-.282,16.273,16.273,0,0,1,2.282.078c1.6.074,3.2.094,4.8.026a20.615,20.615,0,0,0,3.16-.327,3.216,3.216,0,0,0,1.988-.955c-.365-.081-.729-.162-1.1-.246v3.143c0,.508-.024,1.02,0,1.528.012.252.082-.155.059-.1-.035.084-.043.049.008,0a1.934,1.934,0,0,1-.161.133c.008-.006.055-.026-.035.023l-.129.068a2.122,2.122,0,0,1-.321.123,5.562,5.562,0,0,1-1.2.2,11.719,11.719,0,0,1-2.285-.068,22.864,22.864,0,0,0-4.289-.185c-2.148.123-4.434.615-5.743,2.139-.439.511.58,1,1.015.489,1.07-1.246,3.156-1.583,4.884-1.667a23.035,23.035,0,0,1,3.951.175c1.478.2,3.54.282,4.826-.5a1.116,1.116,0,0,0,.608-.722,9.15,9.15,0,0,0,0-1.088V31.432c0-.482-.8-.66-1.1-.246-.051.074-.027.039-.031.042a1.149,1.149,0,0,1-.125.1c.078-.055-.086.045-.11.055-.071.032-.145.068-.22.1a6.337,6.337,0,0,1-1,.252,20.171,20.171,0,0,1-2.8.259c-1.572.061-3.152.039-4.72-.036s-3.528-.3-4.677.838a2.269,2.269,0,0,0-.588,1.819v4.062C24.227,39.31,25.4,39.31,25.4,38.686Z" transform="translate(-24.206 -30.955)" fill="#2c3d60"/>
        </g>
      </g>
      <g id="Group_16566" data-name="Group 16566" transform="translate(8.142 7.677)">
        <g id="Group_16565" data-name="Group 16565">
          <path id="Path_550" data-name="Path 550" d="M33.611,30.077a2.608,2.608,0,0,1,.47-.537,4.05,4.05,0,0,1,1.49-.91,4.508,4.508,0,0,1,1.4-.2c.071,0,.145,0,.216.006l.133.01c.094.006-.067-.013.071.01a4.231,4.231,0,0,1,.764.175,3.688,3.688,0,0,1,1.839,1.447c.372.544,1.388.055,1.015-.489a4.924,4.924,0,0,0-3.865-2.123,5.417,5.417,0,0,0-3.665,1.185,4.5,4.5,0,0,0-.886.935c-.361.547.655,1.036,1.019.489Z" transform="translate(-32.515 -27.463)" fill="#2c3d60"/>
        </g>
      </g>
      <g id="Group_16568" data-name="Group 16568" transform="translate(8.158 14.461)">
        <g id="Group_16567" data-name="Group 16567">
          <path id="Path_551" data-name="Path 551" d="M40.476,48.671a3.378,3.378,0,0,1-1.69,1.5,4.134,4.134,0,0,1-.827.22c-.059.01-.118.019-.176.026s0,0,.016,0l-.106.01c-.106.006-.212.013-.318.013a4.455,4.455,0,0,1-3.156-1.049,2.528,2.528,0,0,1-.423-.479,2.7,2.7,0,0,1-.157-.24.663.663,0,0,0-.8-.175.452.452,0,0,0-.212.664c1.058,1.968,4.238,2.754,6.547,1.926A4.384,4.384,0,0,0,41.5,49.156c.321-.553-.694-1.049-1.019-.486Z" transform="translate(-32.556 -48.422)" fill="#2c3d60"/>
        </g>
      </g>
      <ellipse id="Ellipse_14" data-name="Ellipse 14" cx="0.341" cy="0.282" rx="0.341" ry="0.282" transform="translate(17.725 19.435)" fill="#2c3d60"/>
      <ellipse id="Ellipse_15" data-name="Ellipse 15" cx="0.341" cy="0.282" rx="0.341" ry="0.282" transform="translate(13.158 19.717)" fill="#2c3d60"/>
      <ellipse id="Ellipse_16" data-name="Ellipse 16" cx="0.341" cy="0.282" rx="0.341" ry="0.282" transform="translate(19.681 20.296)" fill="#2c3d60"/>
      <ellipse id="Ellipse_17" data-name="Ellipse 17" cx="0.341" cy="0.282" rx="0.341" ry="0.282" transform="translate(11.503 20.859)" fill="#2c3d60"/>
      <ellipse id="Ellipse_18" data-name="Ellipse 18" cx="0.341" cy="0.282" rx="0.341" ry="0.282" transform="translate(17.042 20.859)" fill="#2c3d60"/>
      <ellipse id="Ellipse_19" data-name="Ellipse 19" cx="0.341" cy="0.282" rx="0.341" ry="0.282" transform="translate(25.808 19.717)" fill="#2c3d60"/>
      <ellipse id="Ellipse_20" data-name="Ellipse 20" cx="0.341" cy="0.282" rx="0.341" ry="0.282" transform="translate(24.597 20.859)" fill="#2c3d60"/>
    </g>
  </g>
</svg>
