<svg xmlns="http://www.w3.org/2000/svg" width="30" height="30" viewBox="0 0 30 30">
  <g id="Staples-icn" transform="translate(-4.988 -2.741)">
    <g id="Group_16548" data-name="Group 16548" transform="translate(4.988 2.741)">
      <g id="Group_16507" data-name="Group 16507" transform="translate(0.129 6.062)">
        <g id="Group_16506" data-name="Group 16506">
          <path id="Path_526" data-name="Path 526" d="M7.737,25.087H26.259a4.083,4.083,0,0,0,1.641-.243A1.679,1.679,0,0,0,29.035,23.4a1.7,1.7,0,0,0-1.2-1.47,8.89,8.89,0,0,0-3.14-.221H8.411c-.225,0-.449,0-.67,0a2.627,2.627,0,0,0-2.087.884,1.323,1.323,0,0,0,.04,1.662,2.647,2.647,0,0,0,2.044.836.48.48,0,0,0,0-.96c-.413-.01-1.443-.176-1.377-.775.059-.541.957-.679,1.377-.685.228,0,.459,0,.687,0H23.908c.908,0,1.816-.01,2.72,0a1.961,1.961,0,0,1,1.113.288c.508.359.261.794-.238,1.012a3.053,3.053,0,0,1-1.261.16H7.737A.48.48,0,0,0,7.737,25.087Z" transform="translate(-5.38 -21.676)" fill="#2c3d60"/>
        </g>
      </g>
      <g id="Group_16509" data-name="Group 16509" transform="translate(0 8.508)">
        <g id="Group_16508" data-name="Group 16508">
          <path id="Path_527" data-name="Path 527" d="M6.818,44.512A34.653,34.653,0,0,1,6.2,40.654a23.039,23.039,0,0,1,.112-7.316,6.309,6.309,0,0,1,1.515-3.2c.442-.445-.258-1.124-.7-.679-1.743,1.754-2.06,4.5-2.126,6.822a35.668,35.668,0,0,0,.581,7.008c.086.493.175.986.284,1.476.135.6,1.09.349.954-.256Z" transform="translate(-4.988 -29.316)" fill="#2c3d60"/>
        </g>
      </g>
      <g id="Group_16511" data-name="Group 16511" transform="translate(0.413 22.912)">
        <g id="Group_16510" data-name="Group 16510">
          <path id="Path_528" data-name="Path 528" d="M7.927,74.313a2.016,2.016,0,0,0-1.086,3.413,3.567,3.567,0,0,0,1.278.618c.36.131.716.263,1.08.387a18.826,18.826,0,0,0,7.055.951,27.9,27.9,0,0,0,6.408-1.165.481.481,0,0,0-.264-.925,23.857,23.857,0,0,1-9.132,1.066,20.106,20.106,0,0,1-4.909-1.249c-.423-.154-.891-.263-1.076-.72a1.1,1.1,0,0,1,.908-1.45c.627-.1.363-1.028-.261-.925Z" transform="translate(-6.24 -74.305)" fill="#2c3d60"/>
        </g>
      </g>
      <g id="Group_16513" data-name="Group 16513" transform="translate(21.326 8.531)">
        <g id="Group_16512" data-name="Group 16512">
          <path id="Path_529" data-name="Path 529" d="M69.663,30.092a3.454,3.454,0,0,1,.218.387,6.623,6.623,0,0,1,.416,1.082,11.378,11.378,0,0,1,.34,4.463.491.491,0,0,0,.5.48.5.5,0,0,0,.5-.48,11.987,11.987,0,0,0-.376-4.719,6.338,6.338,0,0,0-.733-1.7c-.347-.512-1.205-.032-.855.487Z" transform="translate(-69.581 -29.387)" fill="#2c3d60"/>
        </g>
      </g>
      <g id="Group_16515" data-name="Group 16515" transform="translate(2.262)">
        <g id="Group_16514" data-name="Group 16514">
          <path id="Path_530" data-name="Path 530" d="M31.143,8.763c.03-1.444-.938-2.308-2.087-3.064-1.39-.912-2.991-1.444-4.414-2.305a3.519,3.519,0,0,0-2.281-.634,21.69,21.69,0,0,0-2.77.647c-.862.215-1.766.375-2.6.672a2.722,2.722,0,0,0-.961.554,9.389,9.389,0,0,1-.815.871c-.35.253-.773.4-1.132.64a5.4,5.4,0,0,0-.948.791,5.746,5.746,0,0,0-1.268,2.148c-.2.589.759.842.954.256a4.7,4.7,0,0,1,.971-1.681,5.567,5.567,0,0,1,1.578-1.124,3.062,3.062,0,0,0,.8-.579,5.08,5.08,0,0,1,.723-.772,2.882,2.882,0,0,1,.944-.349c.413-.106.829-.208,1.245-.311l2.41-.605a2.874,2.874,0,0,1,2.245.064c.644.339,1.241.746,1.9,1.057.68.32,1.38.6,2.044.954,1.113.6,2.5,1.38,2.473,2.766-.013.621.977.621.99,0Z" transform="translate(-11.839 -2.741)" fill="#2c3d60"/>
        </g>
      </g>
      <g id="Group_16517" data-name="Group 16517" transform="translate(5.834 12.214)">
        <g id="Group_16516" data-name="Group 16516">
          <path id="Path_531" data-name="Path 531" d="M22.66,44.564A5.264,5.264,0,0,0,24.278,48.1a.516.516,0,0,0,.7,0A5.214,5.214,0,0,0,26.6,44.564a5.214,5.214,0,0,0-1.618-3.535.516.516,0,0,0-.7,0,5.264,5.264,0,0,0-1.618,3.535.5.5,0,0,0,.99,0,4.317,4.317,0,0,1,1.327-2.856h-.7A4.251,4.251,0,0,1,25.6,44.564a4.272,4.272,0,0,1-1.327,2.856h.7a4.31,4.31,0,0,1-1.327-2.856A.5.5,0,0,0,22.66,44.564Z" transform="translate(-22.66 -40.893)" fill="#2c3d60"/>
        </g>
      </g>
      <g id="Group_16519" data-name="Group 16519" transform="translate(9.449 16.727)">
        <g id="Group_16518" data-name="Group 16518">
          <path id="Path_532" data-name="Path 532" d="M35.025,56.125a4.517,4.517,0,0,0-1.416,3.083.494.494,0,0,0,.5.48,5.726,5.726,0,0,0,2.456-.535,4.1,4.1,0,0,0,2.186-2.747,4.766,4.766,0,0,0,.158-.938.494.494,0,0,0-.5-.48,5.231,5.231,0,0,0-3.384,1.137.473.473,0,0,0,0,.679.516.516,0,0,0,.7,0,3.714,3.714,0,0,1,1.77-.765c.063-.013.125-.022.188-.032.036-.006.073-.01.112-.016.079-.013-.079.01-.007,0,.106-.013.215-.022.32-.029s.2-.013.3-.01l-.5-.48c0,.054-.01.109-.017.163-.01.1.007-.038,0-.013s-.01.07-.017.106q-.02.125-.05.25A3.939,3.939,0,0,1,37.36,57.2a3.423,3.423,0,0,1-2.529,1.479c-.036.006-.191.026-.086.013-.053.006-.106.013-.155.016q-.129.014-.258.019c-.076,0-.152.006-.228.006l.5.48a.508.508,0,0,1,.007-.07c0-.029.007-.054.01-.083.013-.125-.013.064,0-.01a5.832,5.832,0,0,1,.152-.672,3.3,3.3,0,0,1,.961-1.569.476.476,0,0,0,0-.679A.517.517,0,0,0,35.025,56.125Z" transform="translate(-33.608 -54.988)" fill="#2c3d60"/>
        </g>
      </g>
      <g id="Group_16521" data-name="Group 16521" transform="translate(2.509 17.719)">
        <g id="Group_16520" data-name="Group 16520">
          <path id="Path_533" data-name="Path 533" d="M13.153,62.274a5.792,5.792,0,0,0,3.2,2.43.506.506,0,0,0,.611-.336,5.3,5.3,0,0,0,0-3.032A4.988,4.988,0,0,0,14.341,58.5a6.293,6.293,0,0,0-.921-.394.506.506,0,0,0-.611.336,5.1,5.1,0,0,0,.343,3.832c.3.547,1.152.061.855-.483a4.135,4.135,0,0,1-.244-3.089l-.611.336c.092.029.182.064.267.1-.125-.051.05.022.069.032.043.019.086.038.132.061q.173.082.347.173a4.658,4.658,0,0,1,1.555,1.258,3.968,3.968,0,0,1,.482,3.458l.611-.336a.845.845,0,0,1-.083-.029c-.04-.019-.251-.1-.139-.051a7.142,7.142,0,0,1-.756-.371A4.336,4.336,0,0,1,14,61.8.489.489,0,0,0,13.153,62.274Z" transform="translate(-12.587 -58.085)" fill="#2c3d60"/>
        </g>
      </g>
      <g id="Group_16523" data-name="Group 16523" transform="translate(7.132 18.617)">
        <g id="Group_16522" data-name="Group 16522">
          <path id="Path_534" data-name="Path 534" d="M26.765,61.356q-.074,3.5-.152,7c-.007.336-.013.672-.023,1.008-.013.618.977.618.99,0q.074-3.5.152-7c.007-.336.013-.672.023-1.008.013-.618-.977-.618-.99,0Z" transform="translate(-26.59 -60.893)" fill="#2c3d60"/>
        </g>
      </g>
      <g id="Group_16525" data-name="Group 16525" transform="translate(6.088 20.812)">
        <g id="Group_16524" data-name="Group 16524">
          <path id="Path_535" data-name="Path 535" d="M26.748,67.983l-1.882,3.669-.267.519h.855c-.366-.467-.733-.938-1.1-1.405a.522.522,0,0,0-.677-.173.474.474,0,0,0-.178.656c.366.467.733.938,1.1,1.405a.509.509,0,0,0,.855,0l1.882-3.669.267-.519a.485.485,0,0,0-.178-.656.51.51,0,0,0-.677.173Z" transform="translate(-23.429 -67.749)" fill="#2c3d60"/>
        </g>
      </g>
      <g id="Group_16526" data-name="Group 16526" transform="translate(12.467 1.959)">
        <ellipse id="Ellipse_4" data-name="Ellipse 4" cx="0.314" cy="0.304" rx="0.314" ry="0.304" fill="#2c3d60"/>
      </g>
      <g id="Group_16527" data-name="Group 16527" transform="translate(21.837 17.903)">
        <ellipse id="Ellipse_5" data-name="Ellipse 5" cx="0.314" cy="0.304" rx="0.314" ry="0.304" fill="#2c3d60"/>
      </g>
      <g id="Group_16528" data-name="Group 16528" transform="translate(23.94 16.907)">
        <ellipse id="Ellipse_6" data-name="Ellipse 6" cx="0.314" cy="0.304" rx="0.314" ry="0.304" fill="#2c3d60"/>
      </g>
      <g id="Group_16529" data-name="Group 16529" transform="translate(19.661 16.907)">
        <ellipse id="Ellipse_7" data-name="Ellipse 7" cx="0.314" cy="0.304" rx="0.314" ry="0.304" fill="#2c3d60"/>
      </g>
      <g id="Group_16530" data-name="Group 16530" transform="translate(18.724 19.046)">
        <ellipse id="Ellipse_8" data-name="Ellipse 8" cx="0.314" cy="0.304" rx="0.314" ry="0.304" fill="#2c3d60"/>
      </g>
      <g id="Group_16531" data-name="Group 16531" transform="translate(24.567 18.777)">
        <ellipse id="Ellipse_9" data-name="Ellipse 9" cx="0.314" cy="0.304" rx="0.314" ry="0.304" fill="#2c3d60"/>
      </g>
      <g id="Group_16532" data-name="Group 16532" transform="translate(9.486 3.246)">
        <ellipse id="Ellipse_10" data-name="Ellipse 10" cx="0.314" cy="0.304" rx="0.314" ry="0.304" fill="#2c3d60"/>
      </g>
      <g id="Group_16533" data-name="Group 16533" transform="translate(6.432 4.386)">
        <ellipse id="Ellipse_11" data-name="Ellipse 11" cx="0.314" cy="0.304" rx="0.314" ry="0.304" fill="#2c3d60"/>
      </g>
      <g id="Group_16534" data-name="Group 16534" transform="translate(14.101 4.386)">
        <ellipse id="Ellipse_12" data-name="Ellipse 12" cx="0.314" cy="0.304" rx="0.314" ry="0.304" fill="#2c3d60"/>
      </g>
      <g id="Group_16535" data-name="Group 16535" transform="translate(16.7 3.246)">
        <ellipse id="Ellipse_13" data-name="Ellipse 13" cx="0.314" cy="0.304" rx="0.314" ry="0.304" fill="#2c3d60"/>
      </g>
      <g id="Group_16537" data-name="Group 16537" transform="translate(14.216 19.888)">
        <g id="Group_16536" data-name="Group 16536">
          <path id="Path_536" data-name="Path 536" d="M55.948,72.228a8.077,8.077,0,0,1-4.969-1.117,4.865,4.865,0,0,1-1.7-3.131,15.458,15.458,0,0,1-.215-2.027c0-.032.01-.237-.013-.253s-.158.144-.162.138.046,0,.056,0a.782.782,0,0,0,.244,0h13.4a1.966,1.966,0,0,0,.307,0c.079-.013.188.045.03-.07-.139-.1-.086,0-.092.128,0,.077-.007.157-.01.234-.01.179-.016.359-.03.535-.02.307-.04.615-.073.919a5.049,5.049,0,0,1-1.09,2.977,6.249,6.249,0,0,1-3.975,1.559c-.571.067-1.139.1-1.71.109a.48.48,0,0,0,0,.96c1.869-.045,4-.208,5.589-1.277a4.847,4.847,0,0,0,2-3.16,14.615,14.615,0,0,0,.241-2.043c.043-.7.238-1.764-.782-1.828-.65-.042-1.317,0-1.971,0H49.318a3.359,3.359,0,0,0-.568.016c-1.01.176-.66,1.582-.584,2.28a7.224,7.224,0,0,0,1.453,3.989,6.606,6.606,0,0,0,4.533,1.963,15.947,15.947,0,0,0,1.793.061A.48.48,0,0,0,55.948,72.228Z" transform="translate(-48.046 -64.862)" fill="#2c3d60"/>
        </g>
      </g>
      <g id="Group_16539" data-name="Group 16539" transform="translate(15.422 14.967)">
        <g id="Group_16538" data-name="Group 16538">
          <path id="Path_537" data-name="Path 537" d="M52.538,54.92a21.634,21.634,0,0,1,2.717-3.083,5.76,5.76,0,0,1,3.41-1.354,4.528,4.528,0,0,1,3.41,1.457,14.358,14.358,0,0,1,2.166,2.955c.333.525,1.192.042.855-.483-1.162-1.822-2.371-3.823-4.553-4.636A6.375,6.375,0,0,0,54.506,51.2a21.919,21.919,0,0,0-2.668,3.038.485.485,0,0,0,0,.679.506.506,0,0,0,.7,0Z" transform="translate(-51.699 -49.491)" fill="#2c3d60"/>
        </g>
      </g>
      <g id="Group_16541" data-name="Group 16541" transform="translate(16.835 26.195)">
        <g id="Group_16540" data-name="Group 16540">
          <path id="Path_538" data-name="Path 538" d="M66.1,85.026v2.443l.5-.48H56.475l.5.48v-1.9a.5.5,0,0,0-.99,0v1.9a.5.5,0,0,0,.5.48H66.594a.5.5,0,0,0,.5-.48V85.026a.5.5,0,0,0-.99,0Z" transform="translate(-55.98 -84.563)" fill="#2c3d60"/>
        </g>
      </g>
      <g id="Group_16543" data-name="Group 16543" transform="translate(0.099 25.116)">
        <g id="Group_16542" data-name="Group 16542">
          <path id="Path_539" data-name="Path 539" d="M5.731,81.347C4.5,82.714,6.1,84.318,7.4,84.907a16.992,16.992,0,0,0,7.23,1.162,42.991,42.991,0,0,0,8.016-.989c.624-.131.36-1.057-.264-.925a33.113,33.113,0,0,1-11.347.762,13.146,13.146,0,0,1-2.78-.685c-.036-.013-.254-.1-.142-.054l-.2-.086c-.122-.054-.244-.115-.363-.176-.155-.08-.3-.17-.446-.263s-.007,0-.02-.01a4.328,4.328,0,0,1-.433-.413,1.161,1.161,0,0,1-.33-.935.637.637,0,0,1,.092-.234c.036-.08.1-.128.013-.026.419-.474-.277-1.156-.7-.688Z" transform="translate(-5.287 -81.19)" fill="#2c3d60"/>
        </g>
      </g>
      <g id="Group_16545" data-name="Group 16545" transform="translate(24.077 11.605)">
        <g id="Group_16544" data-name="Group 16544">
          <path id="Path_540" data-name="Path 540" d="M79.914,39.223q-.847,1.676-1.7,3.355c-.079.16-.162.317-.241.477a.481.481,0,0,0,.178.656.507.507,0,0,0,.677-.173q.847-1.676,1.7-3.355c.079-.16.162-.317.241-.477a.481.481,0,0,0-.178-.656.51.51,0,0,0-.677.173Z" transform="translate(-77.916 -38.989)" fill="#2c3d60"/>
        </g>
      </g>
      <g id="Group_16547" data-name="Group 16547" transform="translate(25.048 11.172)">
        <g id="Group_16546" data-name="Group 16546">
          <path id="Path_541" data-name="Path 541" d="M84.967,37.776q-1.738,2.084-3.48,4.172c-.165.2-.33.394-.492.592a.482.482,0,0,0,0,.679.509.509,0,0,0,.7,0q1.738-2.084,3.48-4.172c.165-.2.33-.394.492-.592a.482.482,0,0,0,0-.679.513.513,0,0,0-.7,0Z" transform="translate(-80.855 -37.638)" fill="#2c3d60"/>
        </g>
      </g>
    </g>
  </g>
</svg>
