<svg xmlns="http://www.w3.org/2000/svg" width="61.058" height="61.994" viewBox="0 0 61.058 61.994">
  <g id="Staples-icn-big" transform="translate(-4.489 -2.246)">
    <g id="Staples-icn-big-2" data-name="Staples-icn-big" transform="translate(4.988 2.741)">
      <g id="Group_16507" data-name="Group 16507" transform="translate(0.259 12.326)">
        <g id="Group_16506" data-name="Group 16506">
          <path id="Path_526" data-name="Path 526" d="M10.095,28.611H47.138a8.044,8.044,0,0,0,3.282-.495,3.4,3.4,0,0,0,2.271-2.942,3.443,3.443,0,0,0-2.39-2.988c-1.849-.755-4.318-.449-6.28-.449H11.442c-.449,0-.9-.007-1.34,0a5.214,5.214,0,0,0-4.173,1.8,2.726,2.726,0,0,0,.079,3.379,5.251,5.251,0,0,0,4.087,1.7.977.977,0,0,0,0-1.953c-.825-.02-2.886-.358-2.753-1.575.119-1.1,1.915-1.38,2.753-1.393.456-.007.918,0,1.373,0H42.436c1.816,0,3.632-.02,5.441,0a3.872,3.872,0,0,1,2.225.586c1.017.729.522,1.614-.475,2.057a6.013,6.013,0,0,1-2.522.325H10.095A.977.977,0,0,0,10.095,28.611Z" transform="translate(-5.38 -21.676)" fill="teal" stroke="teal" stroke-width="1"/>
        </g>
      </g>
      <g id="Group_16509" data-name="Group 16509" transform="translate(0 17.3)">
        <g id="Group_16508" data-name="Group 16508">
          <path id="Path_527" data-name="Path 527" d="M8.647,60.214A71.545,71.545,0,0,1,7.406,52.37c-.535-4.9-.8-10.025.225-14.875a12.92,12.92,0,0,1,3.031-6.5.983.983,0,0,0-1.4-1.38c-3.486,3.567-4.12,9.159-4.252,13.872a73.7,73.7,0,0,0,1.162,14.25c.172,1,.35,2.005.568,3,.271,1.224,2.179.71,1.908-.521Z" transform="translate(-4.988 -29.316)" fill="teal" stroke="teal" stroke-width="1"/>
        </g>
      </g>
      <g id="Group_16511" data-name="Group 16511" transform="translate(0.827 46.587)">
        <g id="Group_16510" data-name="Group 16510">
          <path id="Path_528" data-name="Path 528" d="M9.614,74.321a4.119,4.119,0,0,0-2.172,6.939A7.086,7.086,0,0,0,10,82.517c.72.267,1.433.534,2.159.788a37.078,37.078,0,0,0,14.111,1.933,54.989,54.989,0,0,0,12.817-2.37.977.977,0,0,0-.528-1.881,46.977,46.977,0,0,1-18.264,2.168,39.68,39.68,0,0,1-9.819-2.539c-.845-.312-1.783-.534-2.153-1.465A2.236,2.236,0,0,1,10.136,76.2c1.255-.208.726-2.09-.522-1.881Z" transform="translate(-6.24 -74.305)" fill="teal" stroke="teal" stroke-width="1"/>
        </g>
      </g>
      <g id="Group_16513" data-name="Group 16513" transform="translate(42.651 17.346)">
        <g id="Group_16512" data-name="Group 16512">
          <path id="Path_529" data-name="Path 529" d="M69.745,30.821a7.054,7.054,0,0,1,.436.788,13.6,13.6,0,0,1,.832,2.2,23.507,23.507,0,0,1,.68,9.075.991.991,0,0,0,.99.976,1,1,0,0,0,.99-.976,24.766,24.766,0,0,0-.753-9.6,13,13,0,0,0-1.466-3.457c-.693-1.042-2.41-.065-1.71.989Z" transform="translate(-69.581 -29.387)" fill="teal" stroke="teal" stroke-width="1"/>
        </g>
      </g>
      <g id="Group_16515" data-name="Group 16515" transform="translate(4.524)">
        <g id="Group_16514" data-name="Group 16514">
          <path id="Path_530" data-name="Path 530" d="M50.448,14.985c.059-2.936-1.875-4.694-4.173-6.23C43.495,6.9,40.292,5.82,37.446,4.068a6.954,6.954,0,0,0-4.563-1.289,42.781,42.781,0,0,0-5.54,1.315c-1.723.436-3.533.762-5.2,1.367a5.424,5.424,0,0,0-1.922,1.126,18.969,18.969,0,0,1-1.631,1.771c-.7.514-1.545.814-2.265,1.3a10.851,10.851,0,0,0-1.9,1.608,11.727,11.727,0,0,0-2.536,4.368c-.4,1.2,1.519,1.712,1.908.521a9.6,9.6,0,0,1,1.941-3.418A11.138,11.138,0,0,1,18.9,10.454,6.13,6.13,0,0,0,20.49,9.276a10.262,10.262,0,0,1,1.446-1.569A5.7,5.7,0,0,1,23.824,7c.825-.215,1.657-.423,2.489-.631l4.82-1.23c1.618-.41,2.958-.7,4.49.13,1.288.69,2.483,1.517,3.81,2.148,1.36.651,2.76,1.224,4.087,1.94,2.225,1.211,5.005,2.806,4.946,5.624a.992.992,0,0,0,1.981.007Z" transform="translate(-11.839 -2.741)" fill="teal" stroke="teal" stroke-width="1"/>
        </g>
      </g>
      <g id="Group_16517" data-name="Group 16517" transform="translate(11.669 24.836)">
        <g id="Group_16516" data-name="Group 16516">
          <path id="Path_531" data-name="Path 531" d="M22.66,48.358A10.782,10.782,0,0,0,25.9,55.544a1.019,1.019,0,0,0,1.4,0,10.679,10.679,0,0,0,3.236-7.187A10.679,10.679,0,0,0,27.3,41.171a1.019,1.019,0,0,0-1.4,0,10.782,10.782,0,0,0-3.236,7.187.992.992,0,0,0,1.981,0A8.841,8.841,0,0,1,27.3,42.551H25.9a8.7,8.7,0,0,1,2.654,5.807A8.748,8.748,0,0,1,25.9,54.164h1.4a8.827,8.827,0,0,1-2.654-5.807A.992.992,0,0,0,22.66,48.358Z" transform="translate(-22.66 -40.893)" fill="teal" stroke="teal" stroke-width="1"/>
        </g>
      </g>
      <g id="Group_16519" data-name="Group 16519" transform="translate(18.898 34.012)">
        <g id="Group_16518" data-name="Group 16518">
          <path id="Path_532" data-name="Path 532" d="M36.442,57.3a9.252,9.252,0,0,0-2.833,6.269,1,1,0,0,0,.99.976,11.293,11.293,0,0,0,4.913-1.087,8.314,8.314,0,0,0,4.371-5.585,9.839,9.839,0,0,0,.317-1.907,1,1,0,0,0-.99-.976A10.352,10.352,0,0,0,36.442,57.3a.972.972,0,0,0,0,1.38,1.019,1.019,0,0,0,1.4,0,7.366,7.366,0,0,1,3.539-1.556c.125-.026.251-.046.376-.065.073-.013.145-.02.225-.033.158-.026-.158.02-.013,0,.211-.026.429-.046.641-.059s.4-.026.6-.02l-.99-.976c-.007.111-.02.221-.033.332-.02.208.013-.078.007-.026-.013.072-.02.143-.033.215q-.04.254-.1.508a8.089,8.089,0,0,1-.951,2.487A6.827,6.827,0,0,1,36.053,62.5c-.073.013-.383.052-.172.026-.106.013-.211.026-.31.033q-.258.029-.515.039c-.152.006-.3.013-.456.013l.99.976a1.049,1.049,0,0,1,.013-.143c.007-.059.013-.111.02-.169.026-.254-.026.13,0-.02a12.03,12.03,0,0,1,.3-1.367,6.726,6.726,0,0,1,1.922-3.19.978.978,0,0,0,0-1.38A1.021,1.021,0,0,0,36.442,57.3Z" transform="translate(-33.608 -54.988)" fill="teal" stroke="teal" stroke-width="1"/>
        </g>
      </g>
      <g id="Group_16521" data-name="Group 16521" transform="translate(5.018 36.028)">
        <g id="Group_16520" data-name="Group 16520">
          <path id="Path_533" data-name="Path 533" d="M13.718,66.6a11.608,11.608,0,0,0,6.4,4.941,1.01,1.01,0,0,0,1.222-.684,10.939,10.939,0,0,0,0-6.165A10.08,10.08,0,0,0,16.1,58.928a12.477,12.477,0,0,0-1.842-.8,1.01,1.01,0,0,0-1.222.684,10.521,10.521,0,0,0,.687,7.792c.594,1.113,2.3.124,1.71-.983a8.535,8.535,0,0,1-.489-6.282c-.409.228-.812.456-1.222.684.185.059.363.13.535.2-.251-.1.1.046.139.065.086.039.172.078.264.124q.347.166.693.352a9.348,9.348,0,0,1,3.11,2.558,8.182,8.182,0,0,1,.964,7.031c.409-.228.812-.456,1.222-.684a1.672,1.672,0,0,1-.165-.059c-.079-.039-.5-.2-.277-.1a14.192,14.192,0,0,1-1.512-.755,8.732,8.732,0,0,1-3.269-3.118A.981.981,0,0,0,13.718,66.6Z" transform="translate(-12.587 -58.085)" fill="teal" stroke="teal" stroke-width="1"/>
        </g>
      </g>
      <g id="Group_16523" data-name="Group 16523" transform="translate(14.264 37.855)">
        <g id="Group_16522" data-name="Group 16522">
          <path id="Path_534" data-name="Path 534" d="M26.94,61.835q-.149,7.109-.3,14.224c-.013.684-.026,1.367-.046,2.051a.992.992,0,0,0,1.981,0q.149-7.109.3-14.224c.013-.684.026-1.367.046-2.051a.992.992,0,0,0-1.981,0Z" transform="translate(-26.59 -60.893)" fill="teal" stroke="teal" stroke-width="1"/>
        </g>
      </g>
      <g id="Group_16525" data-name="Group 16525" transform="translate(12.177 42.319)">
        <g id="Group_16524" data-name="Group 16524">
          <path id="Path_535" data-name="Path 535" d="M30.066,68.225,26.3,75.685l-.535,1.055h1.71c-.733-.95-1.466-1.907-2.192-2.858a1.035,1.035,0,0,0-1.354-.352.972.972,0,0,0-.357,1.335c.733.95,1.466,1.907,2.192,2.858a1.009,1.009,0,0,0,1.71,0l3.764-7.46.535-1.055a.994.994,0,0,0-.357-1.335,1.011,1.011,0,0,0-1.354.352Z" transform="translate(-23.429 -67.749)" fill="teal" stroke="teal" stroke-width="1"/>
        </g>
      </g>
      <g id="Group_16526" data-name="Group 16526" transform="translate(24.934 3.983)">
        <ellipse id="Ellipse_4" data-name="Ellipse 4" cx="0.627" cy="0.618" rx="0.627" ry="0.618" fill="teal" stroke="teal" stroke-width="1"/>
      </g>
      <g id="Group_16527" data-name="Group 16527" transform="translate(43.674 36.402)">
        <ellipse id="Ellipse_5" data-name="Ellipse 5" cx="0.627" cy="0.618" rx="0.627" ry="0.618" fill="teal" stroke="teal" stroke-width="1"/>
      </g>
      <g id="Group_16528" data-name="Group 16528" transform="translate(47.88 34.378)">
        <ellipse id="Ellipse_6" data-name="Ellipse 6" cx="0.627" cy="0.618" rx="0.627" ry="0.618" fill="teal" stroke="teal" stroke-width="1"/>
      </g>
      <g id="Group_16529" data-name="Group 16529" transform="translate(39.323 34.378)">
        <ellipse id="Ellipse_7" data-name="Ellipse 7" cx="0.627" cy="0.618" rx="0.627" ry="0.618" fill="teal" stroke="teal" stroke-width="1"/>
      </g>
      <g id="Group_16530" data-name="Group 16530" transform="translate(37.447 38.726)">
        <ellipse id="Ellipse_8" data-name="Ellipse 8" cx="0.627" cy="0.618" rx="0.627" ry="0.618" fill="teal" stroke="teal" stroke-width="1"/>
      </g>
      <g id="Group_16531" data-name="Group 16531" transform="translate(49.135 38.179)">
        <ellipse id="Ellipse_9" data-name="Ellipse 9" cx="0.627" cy="0.618" rx="0.627" ry="0.618" fill="teal" stroke="teal" stroke-width="1"/>
      </g>
      <g id="Group_16532" data-name="Group 16532" transform="translate(18.972 6.6)">
        <ellipse id="Ellipse_10" data-name="Ellipse 10" cx="0.627" cy="0.618" rx="0.627" ry="0.618" fill="teal" stroke="teal" stroke-width="1"/>
      </g>
      <g id="Group_16533" data-name="Group 16533" transform="translate(12.864 8.918)">
        <ellipse id="Ellipse_11" data-name="Ellipse 11" cx="0.627" cy="0.618" rx="0.627" ry="0.618" fill="teal" stroke="teal" stroke-width="1"/>
      </g>
      <g id="Group_16534" data-name="Group 16534" transform="translate(28.203 8.918)">
        <ellipse id="Ellipse_12" data-name="Ellipse 12" cx="0.627" cy="0.618" rx="0.627" ry="0.618" fill="teal" stroke="teal" stroke-width="1"/>
      </g>
      <g id="Group_16535" data-name="Group 16535" transform="translate(33.4 6.6)">
        <ellipse id="Ellipse_13" data-name="Ellipse 13" cx="0.627" cy="0.618" rx="0.627" ry="0.618" fill="teal" stroke="teal" stroke-width="1"/>
      </g>
      <g id="Group_16537" data-name="Group 16537" transform="translate(28.431 40.44)">
        <g id="Group_16536" data-name="Group 16536">
          <path id="Path_536" data-name="Path 536" d="M63.85,79.84c-3.341.059-7.184-.176-9.938-2.272a9.94,9.94,0,0,1-3.4-6.367,31.933,31.933,0,0,1-.429-4.121,2.147,2.147,0,0,0-.026-.514c-.026-.013-.317.293-.324.28.013.013.092-.007.112,0a1.539,1.539,0,0,0,.489,0h26.8a3.869,3.869,0,0,0,.614,0c.158-.026.376.091.059-.143-.277-.2-.172.006-.185.26-.007.156-.013.319-.02.475-.02.365-.033.729-.059,1.087-.04.625-.079,1.25-.145,1.868-.218,2.122-.687,4.42-2.179,6.054-1.981,2.161-5.131,2.864-7.95,3.17-1.142.137-2.278.2-3.42.221a.977.977,0,0,0,0,1.953c3.737-.091,8.01-.423,11.179-2.6a9.875,9.875,0,0,0,4.008-6.425,30.194,30.194,0,0,0,.482-4.153c.086-1.419.475-3.587-1.565-3.717-1.3-.085-2.635,0-3.942,0H50.591a6.607,6.607,0,0,0-1.136.033c-2.021.358-1.321,3.216-1.169,4.635.317,2.9.99,5.807,2.905,8.111,2.212,2.656,5.718,3.665,9.066,3.991a31.376,31.376,0,0,0,3.585.124A.977.977,0,0,0,63.85,79.84Z" transform="translate(-48.046 -64.862)" fill="teal" stroke="teal" stroke-width="1"/>
        </g>
      </g>
      <g id="Group_16539" data-name="Group 16539" transform="translate(30.843 30.433)">
        <g id="Group_16538" data-name="Group 16538">
          <path id="Path_537" data-name="Path 537" d="M53.377,60.531a43.772,43.772,0,0,1,5.434-6.269,11.416,11.416,0,0,1,6.821-2.754c2.767-.143,4.873,1.12,6.821,2.962a29.173,29.173,0,0,1,4.332,6.009c.667,1.068,2.384.085,1.71-.983-2.324-3.7-4.741-7.773-9.106-9.426-4.061-1.536-8.98.176-12.077,2.9a44.352,44.352,0,0,0-5.335,6.178.985.985,0,0,0,1.4,1.387Z" transform="translate(-51.699 -49.491)" fill="teal" stroke="teal" stroke-width="1"/>
        </g>
      </g>
      <g id="Group_16541" data-name="Group 16541" transform="translate(33.67 53.264)">
        <g id="Group_16540" data-name="Group 16540">
          <path id="Path_538" data-name="Path 538" d="M76.218,85.5v4.967l.99-.976H56.97l.99.976v-3.86a.992.992,0,0,0-1.981,0v3.86a1,1,0,0,0,.99.976H77.209a1,1,0,0,0,.99-.976V85.5a.992.992,0,0,0-1.981,0Z" transform="translate(-55.98 -84.562)" fill="teal" stroke="teal" stroke-width="1"/>
        </g>
      </g>
      <g id="Group_16543" data-name="Group 16543" transform="translate(0.197 51.069)">
        <g id="Group_16542" data-name="Group 16542">
          <path id="Path_539" data-name="Path 539" d="M6.174,81.509c-2.47,2.78.733,6.041,3.341,7.239,4.45,2.044,9.621,2.448,14.461,2.363A84.642,84.642,0,0,0,40.008,89.1c1.248-.267.72-2.148-.528-1.881-7.349,1.556-15.187,2.656-22.695,1.549a25.937,25.937,0,0,1-5.56-1.393c-.073-.026-.508-.208-.284-.111l-.4-.176c-.244-.111-.489-.234-.726-.358-.31-.163-.6-.345-.891-.534s-.013,0-.04-.02a8.726,8.726,0,0,1-.865-.84,2.383,2.383,0,0,1-.66-1.9,1.307,1.307,0,0,1,.185-.475c.073-.163.2-.26.026-.052.839-.963-.555-2.35-1.393-1.4Z" transform="translate(-5.287 -81.19)" fill="teal" stroke="teal" stroke-width="1"/>
        </g>
      </g>
      <g id="Group_16545" data-name="Group 16545" transform="translate(48.155 23.597)">
        <g id="Group_16544" data-name="Group 16544">
          <path id="Path_540" data-name="Path 540" d="M81.913,39.465q-1.694,3.408-3.394,6.822c-.159.325-.324.644-.482.97a.987.987,0,0,0,.357,1.335,1,1,0,0,0,1.354-.352q1.694-3.408,3.394-6.822c.158-.326.324-.644.482-.97a.987.987,0,0,0-.357-1.335,1.011,1.011,0,0,0-1.354.352Z" transform="translate(-77.915 -38.989)" fill="teal" stroke="teal" stroke-width="1"/>
        </g>
      </g>
      <g id="Group_16547" data-name="Group 16547" transform="translate(50.096 22.717)">
        <g id="Group_16546" data-name="Group 16546">
          <path id="Path_541" data-name="Path 541" d="M89.079,37.919Q85.6,42.157,82.12,46.4c-.33.4-.66.8-.984,1.2a.991.991,0,0,0,0,1.38,1.007,1.007,0,0,0,1.4,0q3.477-4.238,6.96-8.482c.33-.4.66-.8.984-1.2a.991.991,0,0,0,0-1.38,1.013,1.013,0,0,0-1.4,0Z" transform="translate(-80.855 -37.638)" fill="teal" stroke="teal" stroke-width="1"/>
        </g>
      </g>
    </g>
  </g>
</svg>
